<svg width="600" height="552" viewBox="0 0 600 552" fill="none" xmlns="http://www.w3.org/2000/svg">
<g clip-path="url(#clip0_3_5626)">
<g opacity="0.2">
<path d="M156.578 376.533H62.876V554.117H156.578V376.533Z" fill="#E0E0E0"/>
<path d="M156.578 376.533H112.649V554.117H156.578V376.533Z" fill="#EBEBEB"/>
<path d="M90.9498 393.237H82.5317V413.682H90.9498V393.237Z" fill="#F5F5F5"/>
<path d="M90.9498 473.248H82.5317V493.693H90.9498V473.248Z" fill="#F5F5F5"/>
<path d="M112.649 421.708C112.649 421.884 101.507 422.02 87.7625 422.02C74.0184 422.02 62.876 421.884 62.876 421.708C62.876 421.531 74.0184 421.395 87.7625 421.395C101.507 421.395 112.649 421.531 112.649 421.708Z" fill="#F5F5F5"/>
<path d="M90.9498 433.542H82.5317V453.987H90.9498V433.542Z" fill="#F5F5F5"/>
<path d="M112.649 462.012C112.649 462.189 101.507 462.325 87.7625 462.325C74.0184 462.325 62.876 462.189 62.876 462.012C62.876 461.836 74.0184 461.7 87.7625 461.7C101.507 461.7 112.649 461.836 112.649 462.012Z" fill="#F5F5F5"/>
<path d="M130.398 393.237H121.979V413.682H130.398V393.237Z" fill="#E0E0E0"/>
<path d="M148.678 393.237H140.26V413.682H148.678V393.237Z" fill="#E0E0E0"/>
<path d="M130.398 432.032H121.979V452.477H130.398V432.032Z" fill="#E0E0E0"/>
<path d="M148.678 432.032H140.26V452.477H148.678V432.032Z" fill="#E0E0E0"/>
<path d="M130.398 470.813H121.979V491.258H130.398V470.813Z" fill="#E0E0E0"/>
<path d="M148.678 470.813H140.26V491.258H148.678V470.813Z" fill="#E0E0E0"/>
<path d="M163.62 372.234H55.8335V376.682H163.62V372.234Z" fill="#E0E0E0"/>
<path d="M157.232 377.104C157.232 377.281 136.296 377.417 110.456 377.417C84.6159 377.417 63.6797 377.267 63.6797 377.104C63.6797 376.941 84.6159 376.791 110.456 376.791C136.296 376.791 157.232 376.927 157.232 377.104Z" fill="#EBEBEB"/>
<path d="M85.1879 443.132H1.30664V553.613H85.1879V443.132Z" fill="#EBEBEB"/>
<path d="M85.1744 443.132H45.8491V553.613H85.1744V443.132Z" fill="#E0E0E0"/>
<path d="M26.4384 458.095H18.8921V476.391H26.4384V458.095Z" fill="#F5F5F5"/>
<path d="M26.4384 529.713H18.8921V548.009H26.4384V529.713Z" fill="#F5F5F5"/>
<path d="M45.849 483.573C45.849 483.777 35.878 483.94 23.5778 483.94C11.2776 483.94 1.30664 483.777 1.30664 483.573C1.30664 483.369 11.2776 483.206 23.5778 483.206C35.878 483.206 45.849 483.369 45.849 483.573Z" fill="#F5F5F5"/>
<path d="M26.4384 494.169H18.8921V512.465H26.4384V494.169Z" fill="#F5F5F5"/>
<path d="M45.849 519.647C45.849 519.851 35.878 520.015 23.5778 520.015C11.2776 520.015 1.30664 519.851 1.30664 519.647C1.30664 519.443 11.2776 519.28 23.5778 519.28C35.878 519.28 45.849 519.443 45.849 519.647Z" fill="#F5F5F5"/>
<path d="M61.7592 458.095H54.2129V476.391H61.7592V458.095Z" fill="#F5F5F5"/>
<path d="M78.1186 458.095H70.5723V476.391H78.1186V458.095Z" fill="#F5F5F5"/>
<path d="M61.7592 492.809H54.2129V511.105H61.7592V492.809Z" fill="#F5F5F5"/>
<path d="M78.1186 492.809H70.5723V511.105H78.1186V492.809Z" fill="#F5F5F5"/>
<path d="M61.7592 527.537H54.2129V545.833H61.7592V527.537Z" fill="#F5F5F5"/>
<path d="M78.1186 527.537H70.5723V545.833H78.1186V527.537Z" fill="#F5F5F5"/>
<path d="M91.4947 439.282H-5V443.268H91.4947V439.282Z" fill="#E0E0E0"/>
<path d="M85.7738 443.649C85.7738 443.853 67.0306 444.016 43.9013 444.016C20.772 444.016 2.02881 443.853 2.02881 443.649C2.02881 443.445 20.772 443.281 43.9013 443.281C67.0306 443.281 85.7738 443.445 85.7738 443.649Z" fill="#EBEBEB"/>
</g>
<g opacity="0.2">
<path d="M45.6314 27.7851C45.6314 27.7851 32.2823 31.7979 44.5961 60.4454C56.91 89.0928 65.8184 103.457 65.8184 103.457C65.8184 103.457 67.9025 110.055 62.4131 110.694C56.9236 111.333 45.1138 108.64 42.2532 115.115C39.2974 121.821 43.8606 128.636 53.6136 134.989C63.3666 141.341 84.2347 156.059 86.1281 157.392C87.9806 158.712 89.7106 161.827 86.0328 162.861C82.3549 163.894 55.3163 164.915 56.5694 177.701C57.8226 190.488 87.9261 203.737 91.1817 205.247C94.4508 206.757 95.1455 208.226 94.7505 210.049C94.3555 211.871 85.2291 211.354 77.5465 211.953C69.864 212.551 61.0645 214.605 62.4131 221.924C63.7616 229.242 81.02 245.565 125.099 252.843L145.749 254.883L158.172 238.179C182.568 200.799 182.173 177.062 177.665 171.131C173.17 165.2 165.719 170.301 160.079 175.552C154.44 180.803 148.664 187.862 147.057 186.924C145.45 185.985 144.837 184.475 145.927 181.047C147.016 177.62 157.559 146.51 148.964 136.947C140.369 127.385 121.353 146.619 118.111 148.618C114.869 150.618 113.739 147.231 114.011 144.987C114.297 142.701 117.526 117.387 119.419 105.906C121.312 94.4251 119.365 86.4538 112.418 84.1142C105.716 81.8561 99.7224 92.371 95.5406 95.9758C91.3588 99.5805 87.8989 93.5953 87.8989 93.5953C87.8989 93.5953 83.2948 77.34 70.4634 48.9238C57.6319 20.5077 45.3726 27.8531 45.3726 27.8531" fill="#EBEBEB"/>
<path d="M146.526 259.848C137.182 238.941 121.19 201.492 107.296 169.417C93.402 137.355 80.8021 108.341 71.5668 87.3788C66.9491 76.9183 63.2032 68.4574 60.6015 62.5674C59.321 59.6564 58.313 57.3847 57.6183 55.8204C57.2914 55.0587 57.0462 54.4738 56.8555 54.0657C56.6921 53.6712 56.6104 53.4535 56.6104 53.4535C56.6104 53.4535 56.7193 53.644 56.91 54.0385C57.1007 54.4465 57.3732 55.0315 57.7273 55.7796C58.4493 57.3303 59.4845 59.5884 60.8194 62.4722C63.4892 68.2942 67.3032 76.7415 71.9754 87.202C81.3198 108.109 93.9878 137.111 107.882 169.172C121.776 201.248 137.699 238.71 146.935 259.671" fill="#E0E0E0"/>
<path d="M58.6401 119.549C58.6401 119.549 59.1578 119.685 60.0568 120.053C60.9558 120.406 62.2362 120.964 63.8163 121.658C66.9629 123.059 71.2673 125.099 75.9803 127.425C80.6116 129.751 84.807 131.846 88.0081 133.451C89.452 134.172 90.6779 134.771 91.6587 135.247C92.5168 135.669 92.9936 135.927 92.9799 135.968C92.9663 136.009 92.4623 135.832 91.5633 135.478C90.6643 135.125 89.3839 134.567 87.8174 133.859C84.6844 132.431 80.4073 130.336 75.6943 127.997C71.0493 125.711 66.8403 123.644 63.6256 122.066C62.1681 121.359 60.9422 120.76 59.9614 120.284C59.1033 119.862 58.6265 119.604 58.6538 119.563L58.6401 119.549Z" fill="#E0E0E0"/>
<path d="M94.4645 134.744C94.3011 134.676 98.1287 125.63 102.992 114.544C107.868 103.457 111.955 94.5339 112.118 94.6019C112.281 94.6699 108.467 103.716 103.591 114.802C98.7144 125.888 94.628 134.812 94.4645 134.744Z" fill="#E0E0E0"/>
<path d="M113.576 184.951C113.576 184.951 113.875 184.489 114.502 183.727C115.224 182.87 116.109 181.809 117.172 180.544C119.419 177.851 122.525 174.124 125.781 169.88C129.05 165.636 131.883 161.704 133.913 158.834C134.866 157.487 135.67 156.345 136.31 155.433C136.882 154.631 137.223 154.209 137.25 154.223C137.291 154.25 137.018 154.726 136.514 155.569C136.01 156.413 135.247 157.61 134.28 159.079C132.346 162.017 129.567 166.003 126.285 170.26C123.015 174.518 119.855 178.218 117.512 180.83C116.341 182.136 115.374 183.183 114.679 183.89C113.998 184.598 113.603 184.979 113.562 184.938L113.576 184.951Z" fill="#E0E0E0"/>
<path d="M78.1321 178.34C78.1321 178.34 78.6361 178.34 79.5487 178.463C80.5839 178.613 81.8507 178.803 83.3627 179.021C86.5774 179.524 91.0044 180.245 95.8809 181.102C100.771 181.945 105.184 182.748 108.372 183.36C109.857 183.659 111.123 183.918 112.145 184.122C113.03 184.312 113.521 184.448 113.507 184.489C113.507 184.53 113.003 184.489 112.09 184.367C111.055 184.217 109.788 184.026 108.276 183.809C105.062 183.305 100.635 182.585 95.7447 181.728C90.8545 180.884 86.4412 180.082 83.2537 179.47C81.769 179.17 80.5022 178.912 79.4806 178.708C78.5952 178.517 78.1048 178.381 78.1184 178.34H78.1321Z" fill="#E0E0E0"/>
<path d="M89.3701 224.807C89.3701 224.807 90.024 224.821 91.1818 224.971C92.4486 225.148 94.0968 225.392 96.0719 225.664C100.186 226.277 105.879 227.174 112.145 228.195C118.411 229.215 124.091 230.181 128.191 230.915C130.153 231.282 131.774 231.582 133.041 231.813C134.185 232.044 134.811 232.18 134.811 232.235C134.811 232.275 134.158 232.221 133.013 232.071C131.747 231.895 130.098 231.65 128.123 231.378C124.01 230.766 118.316 229.868 112.05 228.848C105.784 227.827 100.104 226.862 96.0038 226.127C94.0423 225.76 92.4213 225.46 91.1545 225.229C90.0103 224.998 89.3837 224.862 89.3837 224.807H89.3701Z" fill="#E0E0E0"/>
<path d="M133.749 231.745C133.749 231.745 134.117 231.16 134.88 230.167C135.71 229.092 136.814 227.691 138.121 226.005C140.859 222.481 144.619 217.612 148.61 212.116C152.615 206.621 156.115 201.56 158.608 197.874C159.807 196.106 160.815 194.637 161.578 193.508C162.286 192.474 162.695 191.93 162.722 191.943C162.763 191.97 162.422 192.569 161.782 193.644C161.142 194.718 160.188 196.242 158.976 198.119C156.565 201.873 153.119 206.988 149.114 212.483C145.109 217.993 141.295 222.822 138.462 226.277C137.045 227.991 135.888 229.378 135.057 230.317C134.239 231.255 133.763 231.759 133.735 231.731L133.749 231.745Z" fill="#E0E0E0"/>
</g>
<g opacity="0.2">
<path d="M381.876 311.099C354.279 291.851 348.026 256.117 349.116 224.001C349.293 218.641 348.707 212.982 351.268 208.276C353.829 203.569 359.782 200.359 364.59 202.617C368.581 204.494 370.311 209.119 372.545 212.955C375.515 218.056 379.928 222.273 385.131 224.966C388.55 226.735 392.787 227.823 396.151 225.959C400.782 223.402 401.327 217.022 401.3 211.69C401.232 201.747 401.178 191.817 401.109 181.873C401.082 176.541 401.055 171.1 402.717 166.039C404.379 160.979 408.043 156.272 413.124 154.858C418.204 153.443 424.484 156.368 425.56 161.578C426.009 163.754 425.56 165.998 425.71 168.216C425.86 170.433 426.895 172.881 428.993 173.494C431.118 174.119 433.256 172.609 434.863 171.045C440.38 165.658 444.112 158.721 447.613 151.824C451.114 144.928 454.506 137.868 459.505 131.992C464.504 126.115 471.424 121.463 479.065 121.028C486.721 120.592 494.866 125.313 496.8 132.808C498.735 140.33 494.349 147.948 489.567 154.042C482.471 163.074 474.093 171.059 464.749 177.67C463.06 178.867 461.235 180.145 460.594 182.131C459.437 185.682 462.801 189.218 466.329 190.388C470.307 191.708 474.625 191.3 478.793 191.789C482.961 192.279 487.47 194.115 489.036 198.047C491.229 203.501 486.652 209.214 482.171 212.955C473.181 220.45 462.91 226.368 451.945 230.38C448.022 231.822 443.881 233.074 440.721 235.835C437.547 238.596 435.64 243.385 437.561 247.139C439.481 250.893 444.385 252.104 448.499 251.342C452.612 250.58 456.29 248.35 460.213 246.867C467.555 244.106 477.022 244.609 481.735 250.934C484.827 255.097 485.1 260.891 483.533 265.856C481.967 270.821 478.806 275.093 475.442 279.037C463.687 292.817 448.621 303.917 431.594 309.807C414.567 315.697 398.794 317.302 381.876 311.113" fill="#F5F5F5"/>
<path d="M381.454 334.904C382.625 322.185 385.417 307.154 390.185 290.953C394.925 274.739 401.586 257.409 409.173 239.508C411.094 235.046 412.987 230.625 414.84 226.272C416.706 221.933 418.572 217.635 420.643 213.54C424.756 205.324 429.347 197.747 433.924 190.687C438.5 183.628 443.105 177.085 447.45 171.004C451.809 164.924 455.977 159.347 459.995 154.409C468.005 144.52 475.401 137.324 480.673 132.576C483.302 130.196 485.413 128.428 486.857 127.231C487.551 126.673 488.096 126.224 488.505 125.898C488.886 125.598 489.077 125.462 489.091 125.462C489.091 125.462 488.927 125.653 488.573 125.966C488.178 126.319 487.66 126.782 486.993 127.38C485.59 128.618 483.533 130.441 480.945 132.849C475.755 137.664 468.468 144.914 460.554 154.831C456.576 159.768 452.449 165.373 448.131 171.453C443.813 177.547 439.25 184.09 434.7 191.15C430.15 198.21 425.601 205.773 421.528 213.935C419.471 218.015 417.632 222.273 415.766 226.626C413.9 230.979 412.02 235.386 410.1 239.848C402.512 257.735 395.838 275.011 391.07 291.157C386.276 307.29 383.415 322.24 382.176 334.918" fill="#E0E0E0"/>
<path d="M420.929 213.513C420.929 213.513 420.683 212.71 420.411 211.241C420.125 209.772 419.798 207.623 419.417 204.97C418.667 199.665 417.864 192.293 417.033 184.172C416.188 176.037 415.289 168.705 414.458 163.428C414.05 160.789 413.696 158.653 413.437 157.17C413.178 155.701 413.069 154.871 413.137 154.858C413.205 154.844 413.437 155.633 413.805 157.089C414.186 158.544 414.635 160.666 415.139 163.305C416.147 168.583 417.155 175.928 418 184.063C418.817 192.089 419.539 199.339 420.098 204.889C420.37 207.392 420.588 209.5 420.779 211.2C420.929 212.683 420.997 213.527 420.929 213.527V213.513Z" fill="#E0E0E0"/>
<path d="M489.581 200.699C489.581 200.699 488.6 200.876 486.843 201.026C485.086 201.189 482.525 201.393 479.392 201.76C473.099 202.44 464.45 203.678 454.969 205.46C445.488 207.269 436.961 209.255 430.845 210.888C427.78 211.677 425.315 212.384 423.612 212.86C421.91 213.35 420.956 213.581 420.929 213.513C420.902 213.445 421.828 213.091 423.49 212.493C425.165 211.908 427.603 211.092 430.655 210.207C436.743 208.412 445.257 206.303 454.778 204.481C464.3 202.685 472.99 201.556 479.324 201.053C482.484 200.781 485.045 200.672 486.83 200.631C488.6 200.604 489.581 200.631 489.581 200.686V200.699Z" fill="#E0E0E0"/>
<path d="M391.016 289.702C391.016 289.702 390.825 289.43 390.539 288.872C390.226 288.206 389.831 287.39 389.368 286.396C388.36 284.234 386.984 281.078 385.322 277.147C382.012 269.298 377.776 258.293 373.267 246.105C368.758 233.903 364.631 222.885 361.484 214.982C359.945 211.132 358.678 207.977 357.739 205.623C357.33 204.603 357.003 203.76 356.731 203.066C356.513 202.481 356.404 202.168 356.445 202.141C356.472 202.141 356.635 202.413 356.921 202.984C357.235 203.651 357.63 204.467 358.093 205.46C359.101 207.623 360.476 210.779 362.138 214.71C365.448 222.559 369.685 233.563 374.193 245.751C378.702 257.953 382.829 268.958 385.976 276.875C387.515 280.724 388.782 283.88 389.722 286.233C390.13 287.253 390.457 288.097 390.73 288.791C390.948 289.376 391.057 289.688 391.016 289.702Z" fill="#E0E0E0"/>
<path d="M482.253 260.334C482.253 260.334 481.953 260.497 481.353 260.701C480.645 260.946 479.76 261.231 478.697 261.585C476.245 262.374 472.949 263.449 468.931 264.741C460.676 267.407 449.329 271.229 436.798 275.473C424.252 279.718 412.865 283.431 404.555 285.934C400.401 287.185 397.036 288.165 394.693 288.791C393.604 289.076 392.718 289.307 391.996 289.498C391.37 289.648 391.043 289.716 391.029 289.675C391.029 289.648 391.329 289.512 391.928 289.294C392.637 289.063 393.522 288.763 394.584 288.41C397.036 287.621 400.333 286.546 404.351 285.254C412.606 282.588 423.952 278.765 436.498 274.521C449.03 270.277 460.431 266.564 468.74 264.061C472.895 262.809 476.259 261.83 478.602 261.204C479.692 260.919 480.577 260.687 481.299 260.497C481.926 260.347 482.252 260.279 482.266 260.32L482.253 260.334Z" fill="#E0E0E0"/>
</g>
<path d="M600 551.646C600 551.837 465.678 552 300.014 552C134.349 552 0 551.837 0 551.646C0 551.456 134.294 551.293 300.014 551.293C465.733 551.293 600 551.456 600 551.646Z" fill="#263238"/>
<path d="M165.569 340.423C187.228 318.59 186.996 285.44 180.744 256.725C179.695 251.937 179.3 246.754 176.235 242.945C173.17 239.137 167.286 237.219 163.322 240.034C160.039 242.374 159.235 246.822 157.86 250.631C156.021 255.705 152.738 260.221 148.502 263.485C145.723 265.635 142.086 267.308 138.749 266.179C134.172 264.642 132.633 258.983 131.774 254.181C130.194 245.231 128.628 236.28 127.048 227.343C126.203 222.541 125.318 217.644 123.002 213.359C120.673 209.074 116.614 205.456 111.805 205.007C106.997 204.558 101.834 208.217 101.725 213.087C101.685 215.114 102.447 217.073 102.679 219.086C102.91 221.099 102.379 223.466 100.595 224.378C98.7831 225.289 96.6173 224.282 94.9146 223.14C89.071 219.195 84.5759 213.577 80.2988 207.945C76.0216 202.314 71.8126 196.519 66.3503 192.057C60.8881 187.596 53.9003 184.535 46.9533 185.406C40.0064 186.263 33.4544 191.84 32.9368 198.9C32.4328 205.973 37.6226 212.121 42.9214 216.814C50.781 223.779 59.6349 229.587 69.1155 233.995C70.8318 234.797 72.6707 235.654 73.5834 237.327C75.2043 240.334 72.7524 244.061 69.783 245.693C66.4184 247.529 62.4682 247.869 58.804 248.985C55.1398 250.1 51.3803 252.494 50.6175 256.29C49.5414 261.554 54.5814 265.934 59.2399 268.573C68.557 273.837 78.7595 277.483 89.2753 279.292C93.0485 279.945 96.9715 280.394 100.268 282.353C103.564 284.311 106.071 288.311 104.967 291.997C103.864 295.697 99.6413 297.574 95.8136 297.56C91.986 297.56 88.3082 296.146 84.5487 295.452C77.4927 294.16 69.061 296.173 65.8736 302.634C63.7759 306.878 64.4842 312.143 66.7045 316.346C68.9248 320.549 72.48 323.882 76.1442 326.874C88.9757 337.348 104.341 344.857 120.618 347.374C136.896 349.89 151.335 348.748 165.542 340.423" fill="#0073F4"/>
<path d="M169.86 361.779C166.727 350.53 161.742 337.471 154.808 323.678C147.889 309.871 139.048 295.37 129.282 280.516C126.83 276.816 124.405 273.157 122.008 269.552C119.61 265.961 117.24 262.397 114.693 259.051C109.64 252.345 104.273 246.278 99.0011 240.674C93.7296 235.069 88.5126 229.941 83.6088 225.18C78.6915 220.433 74.0193 216.093 69.6059 212.312C60.7792 204.722 52.9468 199.457 47.4301 196.07C44.6649 194.356 42.4855 193.105 41.0008 192.275C40.2788 191.881 39.7203 191.568 39.2981 191.336C38.9167 191.132 38.7124 191.037 38.6987 191.051C38.6987 191.064 38.8758 191.187 39.2436 191.418C39.6522 191.663 40.2107 192.003 40.9054 192.425C42.3629 193.309 44.5151 194.601 47.253 196.356C52.7153 199.838 60.4523 205.17 69.1973 212.788C73.5834 216.583 78.2147 220.936 83.1048 225.711C87.9813 230.485 93.1711 235.627 98.4154 241.231C103.66 246.836 108.986 252.889 113.998 259.568C116.518 262.901 118.875 266.437 121.272 270.042C123.656 273.647 126.081 277.306 128.533 281.006C138.286 295.846 147.126 310.306 154.059 324.045C161.02 337.77 166.033 350.747 169.234 361.942" fill="#263238"/>
<path d="M114.448 259.065C114.448 259.065 114.543 258.303 114.543 256.929C114.543 255.555 114.503 253.569 114.407 251.121C114.217 246.224 113.713 239.463 113.14 232.022C112.568 224.568 112.16 217.835 112.051 212.938C111.983 210.489 111.955 208.517 111.942 207.143C111.942 205.769 111.887 205.021 111.833 205.007C111.765 205.007 111.683 205.755 111.601 207.129C111.492 208.503 111.438 210.476 111.424 212.938C111.383 217.848 111.683 224.622 112.255 232.077C112.841 239.422 113.372 246.074 113.781 251.148C113.944 253.447 114.094 255.378 114.203 256.929C114.312 258.289 114.394 259.051 114.462 259.051L114.448 259.065Z" fill="#263238"/>
<path d="M50.6041 258.765C50.6041 258.765 51.5168 258.765 53.1241 258.616C54.7314 258.466 57.0607 258.248 59.9485 258.058C65.7104 257.636 73.7062 257.337 82.5193 257.391C91.346 257.459 99.3282 257.868 105.104 258.316C107.992 258.52 110.321 258.752 111.928 258.901C113.535 259.065 114.434 259.119 114.448 259.051C114.448 258.983 113.576 258.82 111.969 258.548C110.362 258.289 108.032 257.963 105.145 257.663C99.3691 257.038 91.3596 256.534 82.5057 256.466C73.6517 256.412 65.6422 256.82 59.8667 257.405C56.979 257.677 54.6497 258.004 53.056 258.248C51.4623 258.52 50.5769 258.684 50.5905 258.752L50.6041 258.765Z" fill="#263238"/>
<path d="M153.841 322.685C153.841 322.685 153.964 322.413 154.127 321.855C154.304 321.202 154.522 320.399 154.781 319.434C155.34 317.325 156.062 314.265 156.906 310.456C158.595 302.852 160.598 292.269 162.654 280.571C164.711 268.859 166.618 258.276 168.144 250.644C168.893 246.931 169.52 243.884 169.983 241.612C170.173 240.633 170.337 239.817 170.473 239.15C170.569 238.592 170.609 238.28 170.582 238.28C170.555 238.28 170.46 238.565 170.296 239.109C170.119 239.762 169.901 240.565 169.642 241.531C169.084 243.639 168.362 246.7 167.517 250.508C165.828 258.112 163.826 268.695 161.769 280.394C159.712 292.092 157.805 302.675 156.28 310.306C155.517 314.02 154.904 317.067 154.441 319.338C154.25 320.318 154.086 321.134 153.95 321.801C153.855 322.372 153.814 322.671 153.841 322.671V322.685Z" fill="#263238"/>
<path d="M66.9771 311.204C66.9771 311.204 67.2767 311.299 67.8488 311.394C68.5299 311.49 69.3608 311.612 70.3824 311.762C72.7117 312.075 75.8583 312.496 79.6859 313.013C87.5455 314.061 98.3746 315.652 110.348 317.407C122.321 319.175 133.178 320.644 141.064 321.542C145.001 321.991 148.202 322.317 150.409 322.494C151.43 322.576 152.275 322.63 152.956 322.685C153.542 322.725 153.841 322.725 153.855 322.685C153.855 322.657 153.555 322.589 152.983 322.494C152.302 322.399 151.471 322.277 150.45 322.127C148.12 321.814 144.974 321.392 141.146 320.876C133.287 319.828 122.457 318.25 110.484 316.482C98.5108 314.713 87.6545 313.244 79.7813 312.347C75.8447 311.898 72.6436 311.571 70.4369 311.394C69.4153 311.313 68.5708 311.245 67.8897 311.204C67.304 311.163 67.0043 311.163 66.9907 311.204H66.9771Z" fill="#263238"/>
<path d="M413.494 93.8454C417.703 90.5808 419.583 84.8132 418.711 79.5625C417.826 74.3119 414.434 69.6733 410.048 66.6671C408.018 65.2796 405.498 64.1778 403.128 64.8716C400.922 65.5245 399.382 67.6601 398.933 69.9182C398.483 72.1762 398.974 74.5159 399.723 76.6924C402.311 84.1467 406.179 90.8936 413.494 93.859" fill="#455A64"/>
<path d="M420.4 106.578C428.696 99.0145 440.805 95.8587 451.743 98.3888C454.536 99.0281 457.669 100.497 458.132 103.327C458.595 106.156 456.061 108.55 453.582 109.978C443.271 115.95 429.295 114.821 420.073 107.285" fill="#455A64"/>
<path d="M460.379 47.6233C455.775 46.3582 450.735 47.5008 446.662 49.9765C442.59 52.4522 439.402 56.1794 436.855 60.2058C431.924 67.9866 430.18 78.4607 429.962 87.6698C440.206 87.2617 448.951 79.2225 453.133 74.856C459.739 67.973 467.503 51.5137 460.379 47.6097" fill="#455A64"/>
<path d="M404.913 120.48C405.512 119.391 406.493 118.63 407.473 116.63C409.394 112.644 411.982 106.958 413.235 100.212C414.488 93.451 413.644 87.0577 411.955 82.8952C411.138 80.8004 410.211 79.2089 409.476 78.2023C408.74 77.1821 408.25 76.6924 408.209 76.7196C408.032 76.8284 409.844 78.9776 411.26 83.1401C412.718 87.2617 413.426 93.4374 412.214 100.035C410.988 106.632 408.55 112.277 406.792 116.331" fill="#263238"/>
<path d="M404.817 120.602C406.193 118.834 407.977 116.521 410.157 113.733C414.638 107.924 420.863 99.9123 427.851 91.1521C434.839 82.4055 441.268 74.5567 445.941 68.898C448.175 66.1638 450.041 63.9058 451.457 62.1782C452.751 60.5867 453.432 59.6753 453.392 59.6345C453.337 59.5937 452.547 60.4099 451.158 61.9198C449.768 63.4297 447.793 65.6605 445.396 68.4355C440.574 73.9854 434.049 81.7662 427.061 90.5264C420.073 99.2866 413.93 107.38 409.598 113.311C407.433 116.276 405.689 118.684 404.531 120.384" fill="#263238"/>
<path d="M445.355 104.428C445.368 104.36 444.742 104.17 443.584 103.884C442.998 103.735 442.29 103.571 441.445 103.476C440.601 103.367 439.647 103.191 438.571 103.163C436.433 103 433.872 103.082 431.052 103.449C428.246 103.871 425.195 104.605 422.116 105.775C419.065 106.986 416.314 108.509 413.957 110.087C411.628 111.719 409.68 113.393 408.222 114.957C407.446 115.691 406.86 116.48 406.315 117.12C405.757 117.759 405.335 118.358 405.008 118.861C404.34 119.854 404.436 120.316 404.49 120.357C404.654 120.48 405.702 118.385 408.726 115.46C410.225 113.991 412.186 112.413 414.488 110.862C416.818 109.353 419.515 107.897 422.484 106.727C425.481 105.585 428.45 104.85 431.175 104.388C433.913 103.979 436.419 103.816 438.53 103.884C442.739 103.993 445.314 104.605 445.355 104.415V104.428Z" fill="#263238"/>
<path d="M365.942 551.47L183.591 550.626C161.66 550.531 143.966 532.208 144.061 509.695L146.05 40.5906C146.145 18.0781 164.016 -0.0952207 185.961 -1.36599e-06L368.312 0.84337C390.242 0.938589 407.937 19.2615 407.841 41.7741L405.853 510.879C405.757 533.391 387.886 551.578 365.942 551.47Z" fill="#263238"/>
<path d="M393.376 428.528C393.376 430.745 391.577 432.541 389.357 432.541C387.137 432.541 385.339 430.745 385.339 428.528C385.339 426.311 387.137 424.515 389.357 424.515C391.577 424.515 393.376 426.311 393.376 428.528Z" fill="#E0E0E0"/>
<path d="M389.357 437.329C389.166 437.329 389.003 435.356 389.003 432.935C389.003 430.514 389.166 428.528 389.357 428.528C389.548 428.528 389.711 430.5 389.711 432.935C389.711 435.37 389.548 437.329 389.357 437.329Z" fill="#E0E0E0"/>
<path d="M371.962 16.3369L335.498 16.1736C330.608 16.1464 326.63 20.2681 326.603 25.3827L326.576 31.9937C326.562 37.0947 322.571 41.2163 317.681 41.2027L246.604 40.8763C241.714 40.849 237.763 36.7002 237.791 31.5856L237.818 24.9746C237.845 19.8736 233.895 15.7111 229.005 15.6839L216.173 15.6295L184.258 15.4799C168.403 15.4119 155.503 28.1849 155.435 44.0185L153.487 503.642C153.419 519.462 166.21 532.344 182.051 532.426L369.769 533.296C385.625 533.364 398.524 520.591 398.592 504.758L400.54 45.1339C400.608 29.3139 387.818 16.4321 371.976 16.3641L371.962 16.3369Z" fill="#FAFAFA"/>
<path d="M165.937 379.027C167.531 377.83 246.045 343.293 246.045 343.293L154.345 297.615L154.032 371.179L165.937 379.027Z" fill="#EBEBEB"/>
<path d="M170.732 296.2L237.614 262.248L165.733 222.446L154.659 225.221L154.386 289.616L170.732 296.2Z" fill="#0073F4"/>
<path opacity="0.7" d="M170.732 296.2L237.614 262.248L165.733 222.446L154.659 225.221L154.386 289.616L170.732 296.2Z" fill="white"/>
<path d="M157.069 217.821L363.258 121.649L158.963 54.9824L157.069 217.821Z" fill="#EBEBEB"/>
<path d="M154.672 468.275L248.892 419.985L389.153 502.391L355.739 531.65H236.047L154.672 481.987V468.275Z" fill="#EBEBEB"/>
<path d="M267.444 414.775L383.963 483.755L396.944 482.286V415.945L333.1 382.197L267.444 414.775Z" fill="#EBEBEB"/>
<path d="M286.596 348.884L396.454 410.613V329.921L356.706 312.918L286.596 348.884Z" fill="#EBEBEB"/>
<path d="M169.261 382.891L233.704 418.203L311.905 377.749L249.777 346.19L169.261 382.891Z" fill="#EBEBEB"/>
<path d="M266 261.799L357.292 306.987L399.627 285.386L399.9 255.12L338.222 225.221L266 261.799Z" fill="#EBEBEB"/>
<path d="M172.625 301.206L263.93 346.394L306.266 324.793L306.538 294.513L244.86 264.628L172.625 301.206Z" fill="#EBEBEB"/>
<path d="M185.28 220.011L259.68 257.228L329.068 220.011L257.174 187.256L185.28 220.011Z" fill="#EBEBEB"/>
<path d="M329.068 457.76C329.068 457.76 328.591 457.556 327.72 457.08C326.848 456.59 325.554 455.869 323.865 454.917C320.487 452.972 315.515 450.102 309.099 446.388C296.268 438.879 277.647 427.97 254.395 414.354L253.264 413.687L254.45 413.089C274.8 402.751 299.155 390.386 326.208 376.647V378.293C309.603 369.465 291.527 359.847 272.607 349.768L270.918 348.87L272.621 347.972C295.913 335.757 321.045 322.589 347.062 308.96V310.85C344.27 309.436 341.232 307.898 338.195 306.361C275.822 274.762 218.107 245.516 171.467 221.888L169.901 221.099L171.481 220.351C208.382 202.776 238.771 188.303 259.953 178.21C270.55 173.218 278.846 169.327 284.512 166.661C287.345 165.369 289.511 164.362 290.982 163.696C291.704 163.383 292.263 163.138 292.644 162.961C293.026 162.798 293.216 162.73 293.23 162.757C293.244 162.784 293.067 162.893 292.699 163.083C292.331 163.274 291.786 163.56 291.091 163.927C289.648 164.661 287.509 165.722 284.73 167.124C279.118 169.885 270.891 173.925 260.375 179.094C239.262 189.35 208.981 204.055 172.217 221.902V220.351C218.925 243.884 276.693 272.994 339.134 304.471C342.172 306.008 345.21 307.545 348.016 308.96L349.855 309.884L348.029 310.837C321.999 324.439 296.853 337.593 273.547 349.768V347.972C292.454 358.093 310.488 367.764 327.052 376.647L328.632 377.49L327.025 378.293C299.904 391.896 275.481 404.138 255.076 414.354L255.117 413.089C278.219 426.936 296.744 438.036 309.494 445.681C315.828 449.53 320.732 452.509 324.069 454.536C325.704 455.556 326.957 456.345 327.815 456.876C328.646 457.406 329.068 457.706 329.055 457.733L329.068 457.76Z" fill="#0073F4"/>
<path d="M313.063 119.079C313.063 105.503 298.788 96.9061 284.226 103.707C280.943 105.245 278.219 107.843 276.571 111.039C272.907 118.126 274.528 126.22 277.851 132.926L289.184 161.601C290.819 165.736 296.676 165.709 298.284 161.56L309.399 132.736C313.24 123.962 313.09 119.065 313.09 119.065L313.063 119.079ZM299.387 130.886C289.607 136.572 279.677 126.07 285.043 115.705C285.752 114.331 286.855 113.175 288.149 112.413C297.929 106.727 307.86 117.229 302.493 127.594C301.784 128.968 300.681 130.124 299.387 130.886Z" fill="#0073F4"/>
<path d="M291.323 267.539L290.996 251.515L332.828 271.742V288.392L291.323 267.539Z" fill="#F5F5F5"/>
<path d="M332.828 271.742L384.78 245.965V263.907L332.828 288.392V271.742Z" fill="#E0E0E0"/>
<path d="M290.996 251.515L341.968 226.051L384.78 245.965L332.828 271.742L290.996 251.515Z" fill="#F5F5F5"/>
<path d="M296.458 258.439V266.206L300.545 268.056V260.615L296.458 258.439Z" fill="#FAFAFA"/>
<path d="M302.997 261.323V269.09L307.083 270.926V263.499L302.997 261.323Z" fill="#FAFAFA"/>
<path d="M159.712 166.443V145.577L209.226 169.531V189.228L159.712 166.443Z" fill="#E0E0E0"/>
<path d="M209.226 169.531L270.741 139.007V160.254L209.226 189.228V169.531Z" fill="#F5F5F5"/>
<path d="M159.712 145.577L220.055 115.447L270.741 139.007L209.226 169.531L159.712 145.577Z" fill="#FAFAFA"/>
<path d="M166.182 153.766V162.975L171.018 165.151V156.364L166.182 153.766Z" fill="#FAFAFA"/>
<path d="M173.919 157.18V166.389L178.755 168.565V159.764L173.919 157.18Z" fill="#FAFAFA"/>
<path d="M308.963 340.736V357.168L326.603 365.86V348.884L308.963 340.722V340.736Z" fill="#E0E0E0"/>
<path d="M349.16 338.124L326.616 348.884V365.86L349.16 353.291V338.124Z" fill="#E0E0E0"/>
<path d="M308.963 340.736L331.316 329.921L349.16 338.124L326.616 348.884L308.963 340.736Z" fill="#F5F5F5"/>
<path d="M315.242 352.529V360.296L319.329 362.146V354.719L315.242 352.529Z" fill="#FAFAFA"/>
<path d="M166.428 332.234V348.666L184.068 357.358V340.382L166.428 332.22V332.234Z" fill="#E0E0E0"/>
<path d="M206.625 329.622L184.067 340.396V357.358L206.625 344.789V329.622Z" fill="#E0E0E0"/>
<path d="M166.428 332.234L188.767 321.42L206.625 329.622L184.068 340.396L166.428 332.234Z" fill="#F5F5F5"/>
<path d="M172.694 344.027V351.795L176.78 353.645V346.217L172.694 344.027Z" fill="#FAFAFA"/>
<path d="M239.588 223.779V240.211L257.228 248.903V231.927L239.588 223.765V223.779Z" fill="#F5F5F5"/>
<path d="M279.785 221.167L257.228 231.927V248.903L279.785 236.334V221.167Z" fill="#E0E0E0"/>
<path d="M239.588 223.779L261.928 212.965L279.785 221.167L257.228 231.927L239.588 223.779Z" fill="#F5F5F5"/>
<path d="M245.854 235.573V243.34L249.941 245.19V237.749L245.854 235.573Z" fill="#E0E0E0"/>
<path d="M219.974 364.595V381.027L237.613 389.719V372.743L219.974 364.581V364.595Z" fill="#E0E0E0"/>
<path d="M260.17 361.983L237.613 372.756V389.733L260.17 377.164V361.983Z" fill="#EBEBEB"/>
<path d="M219.974 364.595L242.327 353.794L260.171 361.983L237.613 372.756L219.974 364.595Z" fill="#F5F5F5"/>
<path d="M226.24 376.402V384.169L230.326 386.006V378.578L226.24 376.402Z" fill="#FAFAFA"/>
<path d="M292.821 404.301V424.909L330.008 446.783V425.508L292.821 404.301Z" fill="#F5F5F5"/>
<path d="M358.286 410.286L330.008 425.494V446.783L358.286 431.017V410.286Z" fill="#E0E0E0"/>
<path d="M292.821 404.301L320.841 390.739L358.286 410.286L330.008 425.494L292.821 404.301Z" fill="#FAFAFA"/>
<path d="M306.865 423.359V433.098L311.987 436.186V426.542L306.865 423.359Z" fill="#FAFAFA"/>
<path d="M203.369 446.715V467.323L240.556 489.196V467.921L203.369 446.715Z" fill="#E0E0E0"/>
<path d="M284.921 443.899L240.556 467.921V489.196L285.057 464.575L284.921 443.899Z" fill="#FAFAFA"/>
<path d="M203.369 446.715L250.309 424.025L285.057 443.981L240.556 467.921L203.369 446.715Z" fill="#F5F5F5"/>
<path d="M217.413 465.772V475.525L222.535 478.6V468.955L217.413 465.772Z" fill="#FAFAFA"/>
<path d="M344.134 369.655V451.965L367.345 463.949V380.605L344.134 369.655Z" fill="#F5F5F5"/>
<path d="M361.283 361.765L344.134 369.655L367.345 380.605L382.955 371.818L361.283 361.765Z" fill="#FAFAFA"/>
<path d="M367.345 380.605V463.949L381.47 456.359L382.955 371.818L367.345 380.605Z" fill="#E0E0E0"/>
<path d="M246.045 302.988V385.298L269.256 397.282V313.938L246.045 302.988Z" fill="#F5F5F5"/>
<path d="M263.181 295.085L246.045 302.988L269.256 313.938L284.867 305.151L263.181 295.085Z" fill="#FAFAFA"/>
<path d="M269.256 313.938V397.282L283.368 390.331L284.867 305.151L269.256 313.938Z" fill="#E0E0E0"/>
<path d="M256.575 459.515V480.123L293.761 501.996V480.722L256.575 459.515Z" fill="#E0E0E0"/>
<path d="M322.039 465.514L293.761 480.722V501.996L322.039 486.244V465.514Z" fill="#FAFAFA"/>
<path d="M256.575 459.515L284.921 443.899L322.04 465.514L293.761 480.722L256.575 459.515Z" fill="#F5F5F5"/>
<path d="M270.619 478.572V488.326L275.754 491.4V481.755L270.619 478.572Z" fill="#FAFAFA"/>
<path d="M339.284 213.808L271.558 183.324L365.873 135.388L396.821 181.474L339.284 213.808Z" fill="#EBEBEB"/>
<path d="M399.56 241.803L400.036 189.024L347.525 218.868L399.56 241.803Z" fill="#0073F4"/>
<path d="M359.662 294.663C359.662 296.88 357.864 298.676 355.644 298.676C353.424 298.676 351.625 296.88 351.625 294.663C351.625 292.446 353.424 290.65 355.644 290.65C357.864 290.65 359.662 292.446 359.662 294.663Z" fill="#E0E0E0"/>
<path d="M355.644 303.464C355.453 303.464 355.29 301.492 355.29 299.07C355.29 296.649 355.453 294.663 355.644 294.663C355.834 294.663 355.998 296.635 355.998 299.07C355.998 301.505 355.834 303.464 355.644 303.464Z" fill="#E0E0E0"/>
<path d="M250.064 284.828C250.064 287.045 248.266 288.841 246.045 288.841C243.825 288.841 242.027 287.045 242.027 284.828C242.027 282.611 243.825 280.815 246.045 280.815C248.266 280.815 250.064 282.611 250.064 284.828Z" fill="#E0E0E0"/>
<path d="M246.045 293.629C245.854 293.629 245.691 291.657 245.691 289.236C245.691 286.814 245.854 284.828 246.045 284.828C246.236 284.828 246.399 286.801 246.399 289.236C246.399 291.67 246.236 293.629 246.045 293.629Z" fill="#E0E0E0"/>
<path d="M196.368 340.844C196.368 343.062 194.57 344.857 192.349 344.857C190.129 344.857 188.331 343.062 188.331 340.844C188.331 338.627 190.129 336.832 192.349 336.832C194.57 336.832 196.368 338.627 196.368 340.844Z" fill="#E0E0E0"/>
<path d="M192.349 349.645C192.159 349.645 191.995 347.673 191.995 345.252C191.995 342.83 192.159 340.844 192.349 340.844C192.54 340.844 192.703 342.817 192.703 345.252C192.703 347.687 192.54 349.645 192.349 349.645Z" fill="#E0E0E0"/>
<path d="M200.386 297.615C200.386 299.832 198.588 301.628 196.367 301.628C194.147 301.628 192.349 299.832 192.349 297.615C192.349 295.398 194.147 293.602 196.367 293.602C198.588 293.602 200.386 295.398 200.386 297.615Z" fill="#E0E0E0"/>
<path d="M196.367 306.416C196.177 306.416 196.013 304.443 196.013 302.022C196.013 299.601 196.177 297.615 196.367 297.615C196.558 297.615 196.722 299.587 196.722 302.022C196.722 304.457 196.558 306.416 196.367 306.416Z" fill="#E0E0E0"/>
<path d="M299.55 293.656C299.55 295.874 297.752 297.669 295.532 297.669C293.312 297.669 291.514 295.874 291.514 293.656C291.514 291.439 293.312 289.644 295.532 289.644C297.752 289.644 299.55 291.439 299.55 293.656Z" fill="#E0E0E0"/>
<path d="M295.532 302.457C295.341 302.457 295.178 300.485 295.178 298.064C295.178 295.642 295.341 293.67 295.532 293.67C295.723 293.67 295.886 295.642 295.886 298.064C295.886 300.485 295.723 302.457 295.532 302.457Z" fill="#E0E0E0"/>
<path d="M363 323.705C363 325.922 361.202 327.718 358.981 327.718C356.761 327.718 354.963 325.922 354.963 323.705C354.963 321.488 356.761 319.692 358.981 319.692C361.202 319.692 363 321.488 363 323.705Z" fill="#E0E0E0"/>
<path d="M358.995 332.506C358.804 332.506 358.641 330.533 358.641 328.112C358.641 325.691 358.804 323.718 358.995 323.718C359.185 323.718 359.349 325.691 359.349 328.112C359.349 330.533 359.185 332.506 358.995 332.506Z" fill="#E0E0E0"/>
<path d="M365.574 347.306C365.574 349.523 363.776 351.318 361.555 351.318C359.335 351.318 357.537 349.523 357.537 347.306C357.537 345.088 359.335 343.293 361.555 343.293C363.776 343.293 365.574 345.088 365.574 347.306Z" fill="#E0E0E0"/>
<path d="M361.555 356.107C361.365 356.107 361.201 354.134 361.201 351.713C361.201 349.292 361.365 347.306 361.555 347.306C361.746 347.306 361.909 349.278 361.909 351.713C361.909 354.148 361.746 356.107 361.555 356.107Z" fill="#E0E0E0"/>
<path d="M252.91 396.276C252.91 398.493 251.112 400.288 248.892 400.288C246.672 400.288 244.874 398.493 244.874 396.276C244.874 394.058 246.672 392.263 248.892 392.263C251.112 392.263 252.91 394.058 252.91 396.276Z" fill="#E0E0E0"/>
<path d="M248.892 405.077C248.701 405.077 248.538 403.104 248.538 400.683C248.538 398.262 248.701 396.276 248.892 396.276C249.082 396.276 249.246 398.248 249.246 400.683C249.246 403.118 249.082 405.077 248.892 405.077Z" fill="#E0E0E0"/>
<path d="M380.885 470.247C383.104 470.247 384.903 468.451 384.903 466.235C384.903 464.018 383.104 462.222 380.885 462.222C378.665 462.222 376.866 464.018 376.866 466.235C376.866 468.451 378.665 470.247 380.885 470.247Z" fill="#E0E0E0"/>
<path d="M380.884 475.036C380.694 475.036 380.53 473.063 380.53 470.642C380.53 468.221 380.694 466.235 380.884 466.235C381.075 466.235 381.239 468.207 381.239 470.642C381.239 473.077 381.075 475.036 380.884 475.036Z" fill="#E0E0E0"/>
<path d="M308.132 510.117C308.132 512.334 306.334 514.13 304.114 514.13C301.893 514.13 300.095 512.334 300.095 510.117C300.095 507.9 301.893 506.104 304.114 506.104C306.334 506.104 308.132 507.9 308.132 510.117Z" fill="#E0E0E0"/>
<path d="M304.113 518.918C303.923 518.918 303.759 516.946 303.759 514.524C303.759 512.103 303.923 510.131 304.113 510.131C304.304 510.131 304.468 512.103 304.468 514.524C304.468 516.946 304.304 518.918 304.113 518.918Z" fill="#E0E0E0"/>
<path d="M277.198 497.997C277.198 500.214 275.4 502.01 273.179 502.01C270.959 502.01 269.161 500.214 269.161 497.997C269.161 495.78 270.959 493.984 273.179 493.984C275.4 493.984 277.198 495.78 277.198 497.997Z" fill="#E0E0E0"/>
<path d="M273.179 506.798C272.989 506.798 272.825 504.826 272.825 502.404C272.825 499.983 272.989 497.997 273.179 497.997C273.37 497.997 273.534 499.969 273.534 502.404C273.534 504.839 273.37 506.798 273.179 506.798Z" fill="#E0E0E0"/>
<path d="M348.152 489.196C348.152 491.413 346.354 493.209 344.134 493.209C341.913 493.209 340.115 491.413 340.115 489.196C340.115 486.979 341.913 485.183 344.134 485.183C346.354 485.183 348.152 486.979 348.152 489.196Z" fill="#E0E0E0"/>
<path d="M344.133 497.997C343.943 497.997 343.779 496.025 343.779 493.603C343.779 491.182 343.943 489.21 344.133 489.21C344.324 489.21 344.488 491.182 344.488 493.603C344.488 496.025 344.324 497.997 344.133 497.997Z" fill="#E0E0E0"/>
<path d="M283.64 415.932C285.86 415.932 287.659 414.135 287.659 411.919C287.659 409.703 285.86 407.906 283.64 407.906C281.421 407.906 279.622 409.703 279.622 411.919C279.622 414.135 281.421 415.932 283.64 415.932Z" fill="#E0E0E0"/>
<path d="M283.64 420.72C283.45 420.72 283.286 418.747 283.286 416.326C283.286 413.905 283.45 411.919 283.64 411.919C283.831 411.919 283.994 413.891 283.994 416.326C283.994 418.761 283.831 420.72 283.64 420.72Z" fill="#E0E0E0"/>
<path d="M297.78 372.756C297.78 374.974 295.982 376.769 293.762 376.769C291.541 376.769 289.743 374.974 289.743 372.756C289.743 370.539 291.541 368.744 293.762 368.744C295.982 368.744 297.78 370.539 297.78 372.756Z" fill="#E0E0E0"/>
<path d="M293.761 381.557C293.571 381.557 293.407 379.585 293.407 377.164C293.407 374.742 293.571 372.756 293.761 372.756C293.952 372.756 294.116 374.729 294.116 377.164C294.116 379.599 293.952 381.557 293.761 381.557Z" fill="#E0E0E0"/>
<path d="M200.386 377.164C200.386 379.381 198.588 381.177 196.367 381.177C194.147 381.177 192.349 379.381 192.349 377.164C192.349 374.946 194.147 373.151 196.367 373.151C198.588 373.151 200.386 374.946 200.386 377.164Z" fill="#E0E0E0"/>
<path d="M196.367 385.965C196.177 385.965 196.013 383.992 196.013 381.571C196.013 379.15 196.177 377.177 196.367 377.177C196.558 377.177 196.722 379.15 196.722 381.571C196.722 383.992 196.558 385.965 196.367 385.965Z" fill="#E0E0E0"/>
<path d="M385.938 340.844C385.938 343.062 384.14 344.857 381.92 344.857C379.699 344.857 377.901 343.062 377.901 340.844C377.901 338.627 379.699 336.832 381.92 336.832C384.14 336.832 385.938 338.627 385.938 340.844Z" fill="#E0E0E0"/>
<path d="M381.92 349.645C381.729 349.645 381.565 347.673 381.565 345.252C381.565 342.83 381.729 340.844 381.92 340.844C382.11 340.844 382.274 342.817 382.274 345.252C382.274 347.687 382.11 349.645 381.92 349.645Z" fill="#E0E0E0"/>
<path d="M375.15 280.815C375.15 283.033 373.352 284.828 371.132 284.828C368.911 284.828 367.113 283.033 367.113 280.815C367.113 278.598 368.911 276.803 371.132 276.803C373.352 276.803 375.15 278.598 375.15 280.815Z" fill="#E0E0E0"/>
<path d="M371.131 289.616C370.941 289.616 370.777 287.644 370.777 285.223C370.777 282.801 370.941 280.815 371.131 280.815C371.322 280.815 371.486 282.788 371.486 285.223C371.486 287.658 371.322 289.616 371.131 289.616Z" fill="#E0E0E0"/>
<path d="M289.77 231.777C291.99 231.777 293.789 229.981 293.789 227.765C293.789 225.548 291.99 223.752 289.77 223.752C287.551 223.752 285.752 225.548 285.752 227.765C285.752 229.981 287.551 231.777 289.77 231.777Z" fill="#E0E0E0"/>
<path d="M289.77 236.566C289.579 236.566 289.416 234.593 289.416 232.172C289.416 229.751 289.579 227.765 289.77 227.765C289.961 227.765 290.124 229.737 290.124 232.172C290.124 234.607 289.961 236.566 289.77 236.566Z" fill="#E0E0E0"/>
<path d="M216.977 303.464C216.977 305.681 215.179 307.477 212.959 307.477C210.738 307.477 208.94 305.681 208.94 303.464C208.94 301.247 210.738 299.451 212.959 299.451C215.179 299.451 216.977 301.247 216.977 303.464Z" fill="#E0E0E0"/>
<path d="M212.959 312.265C212.768 312.265 212.604 310.293 212.604 307.871C212.604 305.45 212.768 303.478 212.959 303.478C213.149 303.478 213.313 305.45 213.313 307.871C213.313 310.293 213.149 312.265 212.959 312.265Z" fill="#E0E0E0"/>
<path d="M264.189 199.131C264.189 201.348 262.391 203.144 260.171 203.144C257.95 203.144 256.152 201.348 256.152 199.131C256.152 196.914 257.95 195.118 260.171 195.118C262.391 195.118 264.189 196.914 264.189 199.131Z" fill="#E0E0E0"/>
<path d="M260.171 207.932C259.98 207.932 259.816 205.959 259.816 203.538C259.816 201.117 259.98 199.144 260.171 199.144C260.361 199.144 260.525 201.117 260.525 203.538C260.525 205.959 260.361 207.932 260.171 207.932Z" fill="#E0E0E0"/>
<path d="M346.123 190.33C346.123 192.547 344.325 194.343 342.104 194.343C339.884 194.343 338.086 192.547 338.086 190.33C338.086 188.113 339.884 186.317 342.104 186.317C344.325 186.317 346.123 188.113 346.123 190.33Z" fill="#E0E0E0"/>
<path d="M342.104 199.131C341.913 199.131 341.75 197.158 341.75 194.737C341.75 192.316 341.913 190.343 342.104 190.343C342.295 190.343 342.458 192.316 342.458 194.737C342.458 197.158 342.295 199.131 342.104 199.131Z" fill="#E0E0E0"/>
<path d="M368.775 186.63C368.775 188.847 366.977 190.643 364.757 190.643C362.536 190.643 360.738 188.847 360.738 186.63C360.738 184.413 362.536 182.617 364.757 182.617C366.977 182.617 368.775 184.413 368.775 186.63Z" fill="#E0E0E0"/>
<path d="M364.757 195.431C364.566 195.431 364.402 193.458 364.402 191.037C364.402 188.616 364.566 186.63 364.757 186.63C364.947 186.63 365.111 188.602 365.111 191.037C365.111 193.472 364.947 195.431 364.757 195.431Z" fill="#E0E0E0"/>
<path d="M359.662 157.03C359.662 159.248 357.864 161.043 355.644 161.043C353.424 161.043 351.625 159.248 351.625 157.03C351.625 154.813 353.424 153.017 355.644 153.017C357.864 153.017 359.662 154.813 359.662 157.03Z" fill="#E0E0E0"/>
<path d="M355.644 165.831C355.453 165.831 355.29 163.859 355.29 161.438C355.29 159.016 355.453 157.044 355.644 157.044C355.834 157.044 355.998 159.016 355.998 161.438C355.998 163.859 355.834 165.831 355.644 165.831Z" fill="#E0E0E0"/>
<path d="M233.5 225.221C233.5 227.438 231.702 229.234 229.481 229.234C227.261 229.234 225.463 227.438 225.463 225.221C225.463 223.004 227.261 221.208 229.481 221.208C231.702 221.208 233.5 223.004 233.5 225.221Z" fill="#E0E0E0"/>
<path d="M229.481 234.022C229.29 234.022 229.127 232.049 229.127 229.628C229.127 227.207 229.29 225.221 229.481 225.221C229.672 225.221 229.835 227.193 229.835 229.628C229.835 232.063 229.672 234.022 229.481 234.022Z" fill="#E0E0E0"/>
<path d="M326.889 187.256C326.889 189.473 325.091 191.268 322.87 191.268C320.65 191.268 318.852 189.473 318.852 187.256C318.852 185.038 320.65 183.243 322.87 183.243C325.091 183.243 326.889 185.038 326.889 187.256Z" fill="#E0E0E0"/>
<path d="M322.87 196.057C322.68 196.057 322.516 194.084 322.516 191.663C322.516 189.242 322.68 187.256 322.87 187.256C323.061 187.256 323.224 189.228 323.224 191.663C323.224 194.098 323.061 196.057 322.87 196.057Z" fill="#E0E0E0"/>
<path d="M214.062 96.8789C214.062 99.0961 212.264 100.892 210.044 100.892C207.823 100.892 206.025 99.0961 206.025 96.8789C206.025 94.6616 207.823 92.866 210.044 92.866C212.264 92.866 214.062 94.6616 214.062 96.8789Z" fill="#E0E0E0"/>
<path d="M210.044 105.68C209.853 105.68 209.689 103.707 209.689 101.286C209.689 98.8649 209.853 96.8789 210.044 96.8789C210.234 96.8789 210.398 98.8513 210.398 101.286C210.398 103.721 210.234 105.68 210.044 105.68Z" fill="#E0E0E0"/>
<path d="M260.17 118.847C260.17 121.065 258.372 122.86 256.152 122.86C253.932 122.86 252.134 121.065 252.134 118.847C252.134 116.63 253.932 114.835 256.152 114.835C258.372 114.835 260.17 116.63 260.17 118.847Z" fill="#E0E0E0"/>
<path d="M256.152 127.648C255.961 127.648 255.798 125.676 255.798 123.255C255.798 120.833 255.961 118.861 256.152 118.861C256.343 118.861 256.506 120.833 256.506 123.255C256.506 125.676 256.343 127.648 256.152 127.648Z" fill="#E0E0E0"/>
<path d="M186.887 188.249C186.887 190.466 185.089 192.261 182.868 192.261C180.648 192.261 178.85 190.466 178.85 188.249C178.85 186.031 180.648 184.236 182.868 184.236C185.089 184.236 186.887 186.031 186.887 188.249Z" fill="#E0E0E0"/>
<path d="M182.868 197.05C182.678 197.05 182.514 195.077 182.514 192.656C182.514 190.235 182.678 188.249 182.868 188.249C183.059 188.249 183.222 190.221 183.222 192.656C183.222 195.091 183.059 197.05 182.868 197.05Z" fill="#E0E0E0"/>
<path d="M190.905 122.86C190.905 125.077 189.107 126.873 186.887 126.873C184.667 126.873 182.869 125.077 182.869 122.86C182.869 120.643 184.667 118.847 186.887 118.847C189.107 118.847 190.905 120.643 190.905 122.86Z" fill="#E0E0E0"/>
<path d="M186.887 131.661C186.696 131.661 186.533 129.689 186.533 127.267C186.533 124.846 186.696 122.86 186.887 122.86C187.078 122.86 187.241 124.833 187.241 127.267C187.241 129.702 187.078 131.661 186.887 131.661Z" fill="#E0E0E0"/>
<path d="M363.831 309.966L396.944 292.432L396.822 324.059L363.831 309.966Z" fill="#EBEBEB"/>
<path d="M226.239 422.107L153.664 459.515V389.733L161.701 386.142L226.239 422.107Z" fill="#EBEBEB"/>
<path d="M334.64 459.515C334.64 462.072 332.569 464.14 330.008 464.14C327.447 464.14 325.377 462.072 325.377 459.515C325.377 456.958 327.447 454.89 330.008 454.89C332.569 454.89 334.64 456.958 334.64 459.515Z" fill="#0073F4"/>
<path d="M377.016 129.389L400.132 136.408V172.782L377.016 129.389Z" fill="#EBEBEB"/>
<path d="M400.363 80.814L400.227 41.1211C398.334 27.1919 386.442 16.4049 371.963 16.3369L335.498 16.1737C330.608 16.1465 326.63 20.2681 326.603 25.3828L326.576 31.9937C326.562 37.0947 322.571 41.2164 317.681 41.2028L246.604 40.8763C241.714 40.8491 237.763 36.7002 237.791 31.5856L237.818 24.9747C237.845 19.8736 233.895 15.7112 229.005 15.684L216.173 15.6296L184.258 15.4799C176.766 15.4391 169.942 18.3093 164.82 22.9887C161.619 29.1371 158.132 37.8837 159.726 44.6035L400.2 122.779L400.377 80.8276L400.363 80.814Z" fill="#0073F4"/>
<path opacity="0.7" d="M400.363 80.814L400.227 41.1211C398.334 27.1919 386.442 16.4049 371.963 16.3369L335.498 16.1737C330.608 16.1465 326.63 20.2681 326.603 25.3828L326.576 31.9937C326.562 37.0947 322.571 41.2164 317.681 41.2028L246.604 40.8763C241.714 40.8491 237.763 36.7002 237.791 31.5856L237.818 24.9747C237.845 19.8736 233.895 15.7112 229.005 15.684L216.173 15.6296L184.258 15.4799C176.766 15.4391 169.942 18.3093 164.82 22.9887C161.619 29.1371 158.132 37.8837 159.726 44.6035L400.2 122.779L400.377 80.8276L400.363 80.814Z" fill="white"/>
<path d="M371.962 16.3369C371.962 16.3369 372.289 16.3369 372.943 16.3777C373.597 16.4457 374.578 16.3777 375.845 16.6226C378.392 16.9354 382.247 17.7788 386.592 20.3769C388.785 21.6284 391.005 23.4104 393.117 25.6956C395.214 27.9809 397.162 30.8511 398.538 34.2654C399.941 37.6796 400.69 41.6517 400.636 45.8957C400.636 50.1262 400.608 54.6287 400.595 59.4033C400.459 97.5862 400.268 152.827 400.023 221.086C399.75 289.344 399.437 370.621 399.083 460.875C399.042 472.152 398.988 483.578 398.947 495.127C398.947 498.011 398.919 500.908 398.906 503.819C398.865 506.73 398.661 509.723 397.775 512.538C396.944 515.368 395.759 518.116 394.084 520.591C392.422 523.053 390.406 525.284 388.09 527.175C383.418 530.889 377.575 533.242 371.527 533.514C370.015 533.609 368.516 533.596 367.018 533.582H362.523C359.526 533.555 356.516 533.541 353.492 533.528C341.423 533.473 329.245 533.419 316.945 533.364C292.358 533.255 267.336 533.133 241.945 533.024C229.25 532.97 216.459 532.902 203.587 532.847C197.144 532.82 190.688 532.793 184.217 532.752C177.72 533.051 170.991 531.324 165.583 527.529C160.148 523.774 156.143 518.102 154.291 511.818C153.296 508.689 153.119 505.356 153.133 502.132C153.147 498.908 153.16 495.685 153.174 492.474C153.228 479.62 153.283 466.833 153.337 454.155C153.446 428.786 153.555 403.798 153.664 379.245C153.882 330.125 154.087 282.747 154.291 237.627C154.495 192.493 154.686 149.603 154.863 109.475C154.958 89.411 155.04 70.027 155.135 51.3912C155.135 49.0652 155.163 46.7391 155.163 44.4402C155.19 43.284 155.272 42.1278 155.34 40.9715C155.544 39.8289 155.639 38.6726 155.939 37.5572C157.002 33.0819 159.099 28.8923 162.014 25.4508C164.956 22.0229 168.634 19.3159 172.68 17.5612C176.725 15.7656 181.152 15.1399 185.43 15.2079C193.97 15.2487 202.32 15.2895 210.439 15.3303C214.498 15.3575 218.516 15.3711 222.466 15.3983C224.442 15.3983 226.417 15.4255 228.365 15.4255C230.34 15.3303 232.383 15.888 233.99 17.0171C235.598 18.1461 236.837 19.7784 237.477 21.6148C238.199 23.4512 238.022 25.4372 238.036 27.2599C238.036 28.1985 238.036 29.1235 238.036 30.0485C238.036 30.9735 237.995 31.8985 238.118 32.7827C238.336 34.5646 239.085 36.265 240.243 37.598C241.387 38.9447 242.953 39.9241 244.629 40.3458C245.473 40.5634 246.331 40.6314 247.217 40.6178C248.102 40.6178 248.988 40.6178 249.859 40.6314C253.374 40.6451 256.82 40.6723 260.212 40.6859C273.792 40.7539 286.419 40.8219 298.052 40.8899C303.869 40.9171 309.426 40.9579 314.739 40.9851C316.06 40.9715 317.395 41.0531 318.648 40.9579C319.915 40.8219 321.127 40.3866 322.176 39.7337C324.287 38.4278 325.731 36.2514 326.235 33.9661C326.508 32.8235 326.467 31.64 326.48 30.4838C326.48 29.3276 326.48 28.1849 326.494 27.0559C326.508 25.9405 326.453 24.8114 326.657 23.7232C326.848 22.635 327.229 21.6012 327.747 20.6626C328.782 18.7854 330.471 17.3707 332.338 16.6498C334.217 15.8472 336.22 16.0921 338.031 16.0649C345.387 16.1057 351.612 16.1465 356.638 16.1873C361.665 16.2281 365.506 16.2553 368.08 16.2689C370.655 16.2961 371.976 16.3233 371.976 16.3233C371.976 16.3233 370.655 16.3369 368.08 16.3369C365.492 16.3369 361.665 16.3369 356.638 16.3233C351.612 16.3097 345.387 16.2961 338.031 16.2689C336.206 16.3097 334.245 16.0649 332.419 16.8538C330.608 17.5612 328.973 18.9486 327.965 20.785C327.461 21.6964 327.093 22.703 326.903 23.764C326.698 24.825 326.766 25.9269 326.753 27.0559C326.753 28.1849 326.753 29.3276 326.753 30.4838C326.753 31.64 326.794 32.8371 326.521 34.0205C326.017 36.3874 324.532 38.6318 322.353 39.9785C321.263 40.6587 320.01 41.1075 318.702 41.2572C317.381 41.366 316.087 41.2844 314.752 41.298C309.453 41.2844 303.882 41.2572 298.066 41.23C286.433 41.1892 273.806 41.1348 260.225 41.0803C256.834 41.0803 253.374 41.0531 249.873 41.0395C249.001 41.0395 248.116 41.0395 247.23 41.0395C246.359 41.0531 245.419 40.9851 244.533 40.7675C242.763 40.3186 241.114 39.312 239.929 37.8973C238.717 36.4962 237.927 34.7142 237.695 32.8507C237.573 31.9121 237.614 30.9735 237.614 30.0621C237.614 29.1371 237.614 28.2121 237.614 27.2735C237.6 25.41 237.763 23.5192 237.069 21.778C236.469 20.0233 235.284 18.4726 233.745 17.3979C232.192 16.3233 230.312 15.8064 228.378 15.888C226.43 15.888 224.455 15.8744 222.48 15.8608C218.516 15.8472 214.512 15.8336 210.452 15.8064C202.32 15.7792 193.984 15.7384 185.443 15.6976C181.193 15.6296 176.875 16.2553 172.898 18.0237C168.934 19.7648 165.324 22.4174 162.437 25.7772C159.576 29.1643 157.519 33.2724 156.484 37.666C156.184 38.7543 156.103 39.8969 155.898 41.0123C155.83 42.1414 155.748 43.284 155.735 44.4266C155.735 46.7255 155.721 49.0516 155.707 51.3776C155.639 70.0134 155.558 89.3838 155.476 109.461C155.312 149.603 155.149 192.479 154.972 237.613C154.781 282.747 154.591 330.125 154.4 379.231C154.304 403.784 154.196 428.786 154.087 454.142C154.032 466.82 153.978 479.606 153.923 492.461C153.923 495.671 153.896 498.895 153.882 502.119C153.882 505.329 154.032 508.539 155.013 511.6C156.824 517.721 160.72 523.257 166.033 526.93C171.345 530.617 177.815 532.317 184.272 532.018C190.756 532.045 197.212 532.072 203.642 532.113C216.514 532.167 229.304 532.235 242 532.29C267.39 532.412 292.413 532.521 317 532.643C329.286 532.698 341.478 532.752 353.546 532.82C356.557 532.834 359.567 532.847 362.577 532.861L367.072 532.888C368.571 532.888 370.069 532.915 371.54 532.82C377.452 532.562 383.159 530.249 387.723 526.631C389.984 524.781 391.959 522.604 393.58 520.197C395.214 517.789 396.372 515.096 397.189 512.334C398.061 509.559 398.252 506.676 398.306 503.792C398.306 500.881 398.334 497.997 398.347 495.1C398.402 483.551 398.443 472.125 398.497 460.848C398.906 370.594 399.274 289.317 399.587 221.058C399.927 152.8 400.2 97.559 400.391 59.3761C400.418 54.6015 400.445 50.099 400.459 45.8685C400.527 41.6517 399.791 37.7069 398.402 34.3062C397.04 30.9055 395.119 28.0625 393.035 25.7772C390.951 23.492 388.744 21.71 386.565 20.4586C382.26 17.8468 378.419 16.9762 375.885 16.6498C374.619 16.3913 373.638 16.4593 372.984 16.3777C372.33 16.3369 372.003 16.3097 372.003 16.3097L371.962 16.3369Z" fill="#263238"/>
</g>
<defs>
<clipPath id="clip0_3_5626">
<rect width="600" height="552" fill="white"/>
</clipPath>
</defs>
</svg>
