<svg width="790" height="588" viewBox="0 0 790 588" fill="none" xmlns="http://www.w3.org/2000/svg">
<g clip-path="url(#clip0_3_4616)">
<path d="M790 516.725H0V517.12H790V516.725Z" fill="#EBEBEB"/>
<path d="M273.687 526.795H237.063V527.189H273.687V526.795Z" fill="#EBEBEB"/>
<path d="M724.856 535.254H635.318V535.649H724.856V535.254Z" fill="#EBEBEB"/>
<path d="M157.036 535.254H67.4976V535.649H157.036V535.254Z" fill="#EBEBEB"/>
<path d="M374.46 446.335H69.3776C64.4006 446.335 60.3716 442.294 60.3716 437.323V8.933C60.419 3.99302 64.4322 0.0157827 69.3776 0H374.46C379.437 0 383.482 4.04037 383.482 9.01192V437.323C383.482 442.294 379.437 446.335 374.46 446.335ZM69.3776 0.315654C64.6218 0.315654 60.7666 4.18241 60.7666 8.933V437.323C60.7666 442.073 64.6218 445.924 69.3776 445.94H374.46C379.216 445.94 383.071 442.073 383.087 437.323V8.933C383.087 4.18241 379.216 0.331437 374.46 0.315654H69.3776Z" fill="#EBEBEB"/>
<path d="M716.23 446.335H411.132C406.155 446.335 402.126 442.294 402.11 437.323V8.933C402.157 3.99302 406.186 0.0157827 411.132 0H716.23C721.175 0.0157827 725.172 3.99302 725.22 8.933V437.323C725.22 442.294 721.207 446.319 716.23 446.335ZM411.132 0.315654C406.376 0.315654 402.521 4.18241 402.505 8.933V437.323C402.505 442.073 406.376 445.924 411.132 445.94H716.23C720.985 445.94 724.841 442.073 724.856 437.323V8.933C724.856 4.18241 720.985 0.331437 716.23 0.315654H411.132Z" fill="#EBEBEB"/>
<g opacity="0.3">
<path d="M497.811 391.458H461.329V517.578H497.811V391.458Z" fill="#E6E6E6"/>
<path d="M471.978 391.458H435.496V517.578H471.978V391.458Z" fill="#E6E6E6"/>
<path d="M465.057 517.578H471.978V497.881H457.773L465.057 517.578Z" fill="#F0F0F0"/>
<path d="M288.587 391.458H252.105V517.578H288.587V391.458Z" fill="#E6E6E6"/>
<path d="M471.994 391.458H282.552V507.887H471.994V391.458Z" fill="#F0F0F0"/>
<path d="M460.191 481.688H385.994C382.012 481.688 378.789 478.452 378.773 474.475V403.595C378.773 399.618 382.012 396.398 385.994 396.382H460.175C464.157 396.382 467.38 399.618 467.396 403.595V474.475C467.396 478.452 464.172 481.672 460.191 481.688ZM385.994 398.008C382.897 398.008 380.385 400.517 380.369 403.611V474.491C380.338 477.584 382.818 480.125 385.931 480.173C385.947 480.173 385.978 480.173 385.994 480.173H460.175C463.272 480.204 465.816 477.711 465.847 474.601C465.847 474.57 465.847 474.522 465.847 474.491V403.611C465.847 400.517 463.319 398.008 460.222 398.008H385.994Z" fill="#E0E0E0"/>
<path d="M368.519 481.688H294.338C290.357 481.688 287.133 478.452 287.118 474.475V403.595C287.118 399.618 290.357 396.398 294.338 396.382H368.519C372.501 396.382 375.74 399.602 375.74 403.595V474.475C375.74 478.452 372.517 481.688 368.519 481.688ZM294.338 398.008C291.241 398.008 288.729 400.517 288.729 403.611V474.491C288.729 477.584 291.241 480.094 294.338 480.094H368.519C371.616 480.094 374.128 477.584 374.144 474.491V403.611C374.144 400.517 371.616 398.008 368.519 398.008H294.338Z" fill="#E0E0E0"/>
<path d="M361.631 418.794C357.775 418.794 354.647 415.685 354.647 411.849C354.647 407.998 357.76 404.873 361.599 404.873C365.454 404.873 368.583 407.983 368.583 411.818V411.849C368.583 415.685 365.47 418.794 361.631 418.794Z" fill="#FAFAFA"/>
<path d="M392.883 418.794C389.028 418.825 385.9 415.716 385.868 411.881C385.836 408.03 388.949 404.889 392.788 404.873C396.644 404.842 399.772 407.951 399.804 411.786C399.804 411.818 399.804 411.865 399.804 411.897C399.772 415.7 396.691 418.778 392.883 418.794Z" fill="#FAFAFA"/>
<path d="M289.472 517.578H282.552V497.881H296.74L289.472 517.578Z" fill="#F0F0F0"/>
<path d="M276.974 391.458H240.492V517.578H276.974V391.458Z" fill="#E6E6E6"/>
<path d="M270.038 517.578H276.974V497.881H262.77L270.038 517.578Z" fill="#F0F0F0"/>
<path d="M276.974 391.458H87.5322V507.887H276.974V391.458Z" fill="#F0F0F0"/>
<path d="M265.171 481.688H190.975C186.993 481.688 183.754 478.468 183.738 474.475V403.595C183.738 399.618 186.977 396.382 190.975 396.382H265.156C269.137 396.382 272.36 399.618 272.376 403.595V474.475C272.376 478.452 269.153 481.672 265.171 481.688ZM190.975 398.008C187.878 398.008 185.366 400.517 185.35 403.611V474.491C185.318 477.584 187.799 480.125 190.911 480.173C190.927 480.173 190.959 480.173 190.975 480.173H265.156C268.252 480.204 270.796 477.711 270.828 474.601C270.828 474.57 270.828 474.522 270.828 474.491V403.611C270.828 400.517 268.316 398.024 265.219 398.008H190.975Z" fill="#E0E0E0"/>
<path d="M173.5 481.688H99.3192C95.3376 481.688 92.0986 478.452 92.0986 474.475V403.595C92.0986 399.618 95.3376 396.382 99.3192 396.382H173.5C177.482 396.382 180.705 399.618 180.721 403.595V474.475C180.721 478.452 177.482 481.672 173.5 481.688ZM99.335 398.008C96.2382 398.008 93.726 400.517 93.7102 403.611V474.491C93.6786 477.584 96.1592 480.125 99.2718 480.173C99.2876 480.173 99.3192 480.173 99.335 480.173H173.516C176.613 480.173 179.125 477.663 179.141 474.57V403.611C179.141 400.517 176.613 398.008 173.516 398.008H99.335Z" fill="#E0E0E0"/>
<path d="M166.627 418.794C162.772 418.794 159.644 415.685 159.644 411.849C159.644 407.998 162.756 404.873 166.596 404.873C170.451 404.873 173.579 407.983 173.579 411.818V411.849C173.579 415.685 170.467 418.794 166.627 418.794Z" fill="#FAFAFA"/>
<path d="M197.879 418.794C194.024 418.825 190.88 415.716 190.864 411.881C190.832 408.03 193.945 404.889 197.784 404.873C201.64 404.842 204.768 407.951 204.8 411.786C204.8 411.818 204.8 411.865 204.8 411.897C204.768 415.7 201.687 418.778 197.879 418.794Z" fill="#FAFAFA"/>
<path d="M94.4526 517.578H87.5322V497.881H101.721L94.4526 517.578Z" fill="#F0F0F0"/>
<path d="M422.303 41.8557H354.426V109.658H422.303V41.8557Z" fill="#EBEBEB"/>
<path d="M425.32 41.8715H422.318V109.674H425.32V41.8715Z" fill="#E0E0E0"/>
<path d="M413.123 51.057H363.637V100.488H413.123V51.057Z" fill="white"/>
<path d="M396.659 84.0271C392.093 88.5883 384.667 88.5883 380.1 84.0271C375.534 79.4659 375.534 72.048 380.1 67.4868C384.667 62.9256 392.093 62.9256 396.659 67.4868C401.225 72.048 401.225 79.4659 396.659 84.0271Z" fill="#F5F5F5"/>
<path d="M355.816 129.039H276.231V208.537H355.816V129.039Z" fill="#EBEBEB"/>
<path d="M359.339 129.055H355.816V208.553H359.339V129.055Z" fill="#E0E0E0"/>
<path d="M345.041 139.819H287.023V197.773H345.041V139.819Z" fill="white"/>
<path d="M328.387 156.422H303.645V181.138H328.387V156.422Z" fill="#F5F5F5"/>
<path d="M711.79 103.471H668.704V113.525H711.79V103.471Z" fill="#E6E6E6"/>
<path d="M668.703 103.471H490.353V113.525H668.703V103.471Z" fill="#F5F5F5"/>
<path d="M591.694 50.0943H541.482V103.487H591.694V50.0943Z" fill="#E0E0E0"/>
<path d="M541.482 50.0943H528.621V103.487H541.482V50.0943Z" fill="#F0F0F0"/>
<path d="M604.856 41.8557H567.141V103.471H604.856V41.8557Z" fill="#E6E6E6"/>
<path d="M567.157 41.8557H556.255V103.471H567.157V41.8557Z" fill="#F0F0F0"/>
<path d="M610.07 50.0943H578.264V103.487H610.07V50.0943Z" fill="#F0F0F0"/>
<path d="M578.264 50.0943H570.996V103.487H578.264V50.0943Z" fill="#FAFAFA"/>
<path d="M645.999 59.1219H604.287V103.471H645.999V59.1219Z" fill="#E6E6E6"/>
<path d="M604.287 59.1219H593.606V103.471H604.287V59.1219Z" fill="#FAFAFA"/>
<path d="M656.932 52.2881H625.601V103.487H656.932V52.2881Z" fill="#E6E6E6"/>
<path d="M625.601 52.2881H616.548V103.487H625.601V52.2881Z" fill="#F0F0F0"/>
<path d="M665.259 59.1219H634.828V103.471H665.259V59.1219Z" fill="#F0F0F0"/>
<path d="M634.828 59.1219H628.792V103.471H634.828V59.1219Z" fill="#FAFAFA"/>
<path d="M643.202 401.543C656.696 383.914 688.817 377.364 699.924 366.269C714.46 351.702 714.381 329.843 702.01 321.951C691.266 315.101 655.621 361.439 651.608 366.616C637.783 384.419 633.801 397.645 631.194 410.445C631.479 399.57 631.779 389.564 632.016 381.862C632.774 356.705 633.707 348.624 634.133 346.146C635.666 344.915 637.388 343.51 638.399 342.753C647.026 336.329 666.144 328.675 675.719 319.347C689.67 305.711 687.427 289.391 677.631 283.315C667.408 276.97 649.301 291.98 639.695 306.863C630.088 321.746 634.196 335.998 631.51 348.277C630.942 350.707 630.357 359.909 629.82 372.677C627.545 360.098 620.593 348.845 610.338 341.19C597.098 330.632 585.675 317.8 574.773 319.457C563.871 321.115 569.796 338.113 578.359 350.044C586.038 360.666 623.942 371.272 629.52 379.81C628.856 397.108 628.271 419.031 627.861 439.453C624.859 428.91 626.928 428.027 614.683 411.849C607.4 402.254 577.553 390.369 574.014 396.998C570.475 403.627 575.863 416.063 587.128 424.791C596.213 431.83 616.295 431.814 621.051 436.186C622.141 437.196 625.728 441.111 627.797 443.367C627.308 468.273 627.086 490.274 627.339 497.77L629.283 497.849C629.188 495.924 629.425 483.25 629.804 466.473C634.702 457.54 667.677 452.332 677.852 443.052C688.501 433.345 696.148 422.013 691.598 414.422C687.79 408.093 657.817 416.695 645.525 427.19C637.404 434.166 632.443 441.631 630.167 451.638C630.436 440.211 630.768 427.948 631.068 416.363C633.517 413.507 639.142 406.846 643.202 401.575V401.543Z" fill="#E6E6E6"/>
<path d="M646.078 517.246H611.855C609.975 517.246 608.364 514.816 608 511.438L605.567 489.327H652.351L649.918 511.438C649.538 514.831 647.943 517.246 646.062 517.246H646.078Z" fill="#F0F0F0"/>
<path d="M653.33 497.881H604.571C603.402 497.881 602.423 496.271 602.296 494.125L601.301 477.774C601.143 475.264 602.201 473.07 603.576 473.07H654.326C655.684 473.07 656.759 475.264 656.601 477.774L655.605 494.125C655.479 496.271 654.499 497.881 653.33 497.881Z" fill="#F0F0F0"/>
</g>
<path opacity="0.3" d="M395 588C564.19 588 701.346 580.001 701.346 570.134C701.346 560.267 564.19 552.268 395 552.268C225.81 552.268 88.6538 560.267 88.6538 570.134C88.6538 580.001 225.81 588 395 588Z" fill="#F5F5F5"/>
<path d="M338.894 158.9C335.402 167.375 314.847 166.807 293.295 157.922C271.744 149.036 257.113 134.974 260.621 126.514C261.427 124.557 263.686 117.218 266.119 116.192C274.146 112.815 289.424 120.422 305.967 127.24C321.372 133.585 338.973 137.672 341.707 146.021C343.366 151.088 339.89 156.47 338.894 158.884V158.9Z" fill="#0073F4"/>
<path opacity="0.2" d="M341.722 146.037C343.034 152.682 340.142 155.87 338.894 158.9C337.599 162.025 333.996 163.919 328.893 164.614C328.277 164.708 327.629 164.771 326.965 164.819C323.537 165.071 319.571 164.866 315.242 164.203C314.689 164.14 314.136 164.03 313.567 163.935C309.332 163.209 304.814 162.041 300.153 160.494C299.647 160.321 299.141 160.147 298.636 159.958C296.866 159.342 295.065 158.663 293.28 157.922C291.494 157.196 289.756 156.407 288.066 155.602C287.576 155.381 287.102 155.144 286.628 154.907C282.378 152.808 278.538 150.52 275.141 148.184C274.699 147.884 274.272 147.568 273.846 147.284C270.306 144.712 267.336 142.076 265.092 139.472C264.697 139.03 264.35 138.604 264.002 138.162C260.605 133.853 259.262 129.765 260.605 126.498C261.474 124.383 263.386 117.202 266.088 116.176C268.79 115.166 272.281 115.308 276.326 116.161C276.848 116.271 277.385 116.397 277.922 116.539C285.901 118.56 295.776 123.058 305.935 127.24C317.928 132.18 332.1 137.309 339.036 143.228C339.463 143.591 339.858 143.954 340.221 144.333C340.79 144.901 341.264 145.453 341.691 146.022L341.722 146.037Z" fill="black"/>
<g opacity="0.2">
<path d="M278.68 115.229L277.953 116.555L265.124 139.487C264.729 139.046 264.381 138.619 264.034 138.177L276.358 116.176L277.306 114.472L278.68 115.229Z" fill="black"/>
</g>
<g opacity="0.2">
<path d="M288.382 124.573L275.157 148.199C274.715 147.9 274.288 147.584 273.861 147.3L287.007 123.799L288.382 124.589V124.573Z" fill="black"/>
</g>
<g opacity="0.2">
<path d="M312.698 138.146L300.184 160.51C299.679 160.336 299.173 160.163 298.667 159.973L311.323 137.373L312.714 138.146H312.698Z" fill="black"/>
</g>
<g opacity="0.2">
<path d="M301.385 131.833L288.081 155.617C287.592 155.396 287.118 155.16 286.644 154.923L299.995 131.06L301.385 131.833Z" fill="black"/>
</g>
<g opacity="0.2">
<path d="M327.439 142.47L315.257 164.219C314.704 164.156 314.151 164.045 313.583 163.951L326.049 141.681L327.439 142.455V142.47Z" fill="black"/>
</g>
<path d="M341.628 151.451C338.136 159.926 317.833 159.595 296.282 150.709C274.73 141.839 260.1 127.761 263.607 119.301C267.099 110.826 287.402 111.158 308.953 120.043C330.504 128.913 345.135 142.991 341.628 151.451Z" fill="#0073F4"/>
<path opacity="0.2" d="M334.297 148.436C331.832 154.418 316 153.581 298.952 146.558C281.904 139.535 270.085 128.992 272.55 122.995C275.015 117.013 290.847 117.849 307.895 124.873C324.943 131.896 336.761 142.439 334.297 148.436Z" fill="white"/>
<path d="M447.788 82.291C453.397 89.5352 442.685 107.054 424.262 121.322C405.839 135.573 386.342 141.255 380.733 134.011C379.437 132.338 374.192 126.719 374.508 124.115C375.566 115.482 389.771 106.028 403.927 95.0749C417.105 84.8793 429.397 71.6534 438.024 73.4369C443.254 74.5259 446.192 80.2076 447.788 82.2752V82.291Z" fill="#0073F4"/>
<path opacity="0.2" d="M438.024 73.4526C444.439 75.6306 445.782 79.7026 447.788 82.2909C449.858 84.9582 449.716 89.0302 447.788 93.7965C447.567 94.3805 447.298 94.9644 447.014 95.5642C445.529 98.6576 443.38 102.004 440.662 105.413C440.33 105.855 439.967 106.281 439.604 106.723C436.87 110.021 433.6 113.367 429.934 116.634C429.539 116.981 429.128 117.344 428.717 117.692C427.295 118.907 425.826 120.138 424.278 121.322C422.761 122.505 421.212 123.626 419.68 124.683C419.237 124.999 418.795 125.283 418.369 125.583C414.434 128.219 410.532 130.428 406.803 132.196C406.313 132.433 405.839 132.638 405.365 132.859C401.383 134.642 397.592 135.905 394.242 136.568C393.673 136.694 393.12 136.789 392.567 136.867C387.132 137.672 382.913 136.804 380.749 134.011C379.342 132.212 374.065 126.988 374.508 124.131C374.966 121.274 376.83 118.323 379.58 115.261C379.943 114.866 380.306 114.456 380.701 114.061C386.421 108.159 395.237 101.83 403.927 95.1065C414.181 87.1836 425.684 77.4457 434.279 74.368C434.8 74.1786 435.322 74.0208 435.827 73.8788C436.602 73.6736 437.313 73.5316 438.024 73.4526Z" fill="black"/>
<g opacity="0.2">
<path d="M379.911 112.752L380.685 114.046L394.21 136.568C393.641 136.694 393.088 136.789 392.535 136.868L379.563 115.245L378.552 113.572L379.895 112.752H379.911Z" fill="black"/>
</g>
<g opacity="0.2">
<path d="M392.852 108.995L406.787 132.196C406.297 132.433 405.823 132.638 405.349 132.859L391.477 109.784L392.836 108.979L392.852 108.995Z" fill="black"/>
</g>
<g opacity="0.2">
<path d="M416.725 94.6804L429.918 116.65C429.523 116.997 429.113 117.36 428.702 117.707L415.367 95.5011L416.725 94.6804Z" fill="black"/>
</g>
<g opacity="0.2">
<path d="M405.634 101.341L419.664 124.699C419.222 125.015 418.779 125.299 418.353 125.599L404.275 102.161L405.634 101.341Z" fill="black"/>
</g>
<g opacity="0.2">
<path d="M427.817 84.0428L440.646 105.428C440.315 105.87 439.951 106.296 439.588 106.738L426.458 84.8635L427.817 84.0428Z" fill="black"/>
</g>
<path d="M419.479 115.124C437.906 100.868 448.29 83.4389 442.674 76.1963C437.059 68.9537 417.568 74.6399 399.142 88.8966C380.715 103.153 370.33 120.582 375.946 127.825C381.562 135.067 401.053 129.381 419.479 115.124Z" fill="#0073F4"/>
<path opacity="0.2" d="M436.412 81.0757C440.378 86.1893 431.782 99.4941 417.199 110.763C402.616 122.048 387.574 127.035 383.608 121.921C379.642 116.808 388.238 103.503 402.821 92.2341C417.404 80.9494 432.446 75.9621 436.412 81.0757Z" fill="white"/>
<path d="M371.521 48.3582C369.673 58.7432 346.415 63.1466 319.982 58.4591C293.564 53.7559 273.64 41.5243 275.489 31.1393C275.916 28.7245 276.658 19.9335 279.139 18.1817C287.339 12.4052 306.394 17.2189 326.697 20.8332C345.594 24.1949 366.402 24.4632 371.537 33.191C374.65 38.494 372.059 45.391 371.537 48.3582H371.521Z" fill="#0073F4"/>
<path opacity="0.2" d="M371.521 33.191C374.634 40.3406 372.169 44.6334 371.506 48.3582C370.826 52.1934 367.24 55.2079 361.662 57.2438C360.998 57.5121 360.288 57.7331 359.545 57.954C355.753 59.0746 351.234 59.8322 346.21 60.1478C345.562 60.211 344.93 60.2267 344.266 60.2583C339.337 60.4793 333.965 60.2583 328.34 59.6744C327.74 59.6112 327.108 59.5323 326.491 59.4534C324.358 59.1851 322.162 58.8694 319.966 58.4749C317.786 58.0961 315.637 57.6384 313.535 57.1491C312.935 57.0229 312.335 56.865 311.75 56.723C306.457 55.3972 301.559 53.7874 297.167 51.9724C296.582 51.7357 296.045 51.4989 295.492 51.278C290.894 49.2578 286.881 47.0009 283.721 44.6492C283.168 44.2547 282.662 43.8601 282.172 43.4497C277.29 39.4409 274.778 35.1638 275.489 31.1708C275.947 28.5824 276.326 20.0282 279.123 18.2132C281.92 16.3982 285.885 15.7038 290.625 15.688C291.242 15.688 291.874 15.688 292.521 15.7196C301.986 16.0352 314.215 18.6709 326.665 20.8805C341.359 23.5004 358.565 25.7731 367.84 30.7289C368.409 31.0288 368.946 31.3444 369.452 31.6759C370.226 32.1651 370.905 32.6702 371.521 33.2226V33.191Z" fill="black"/>
<g opacity="0.2">
<path d="M293.027 14.015L292.521 15.6722L283.721 44.6177C283.168 44.2231 282.662 43.8285 282.172 43.4182L290.625 15.6406L291.273 13.4942L293.011 14.015H293.027Z" fill="black"/>
</g>
<g opacity="0.2">
<path d="M306.236 22.1431L297.166 51.9566C296.582 51.7199 296.045 51.4831 295.492 51.2622L304.498 21.6065L306.236 22.1431Z" fill="black"/>
</g>
<g opacity="0.2">
<path d="M336.935 31.4391L328.355 59.6743C327.755 59.6112 327.123 59.5323 326.507 59.4534L335.181 30.9183L336.935 31.4549V31.4391Z" fill="black"/>
</g>
<g opacity="0.2">
<path d="M322.668 27.1147L313.551 57.1334C312.951 57.0071 312.35 56.8493 311.766 56.7072L320.914 26.5781L322.668 27.1147Z" fill="black"/>
</g>
<g opacity="0.2">
<path d="M354.584 32.6702L346.226 60.132C345.578 60.1952 344.946 60.211 344.282 60.2425L352.83 32.1335L354.584 32.6702Z" fill="black"/>
</g>
<path d="M372.753 39.2977C374.603 28.9138 354.679 16.6881 328.253 11.9907C301.827 7.29339 278.904 11.9033 277.054 22.2872C275.205 32.671 295.128 44.8968 321.554 49.5942C347.981 54.2915 370.903 49.6816 372.753 39.2977Z" fill="#0073F4"/>
<path opacity="0.2" d="M363.763 37.7048C362.452 45.0438 344.44 47.9794 323.537 44.2547C302.633 40.53 286.738 31.5812 288.05 24.2264C289.361 16.8717 307.373 13.9519 328.277 17.6766C349.18 21.4013 365.075 30.3659 363.763 37.7048Z" fill="white"/>
<path d="M509.455 313.492L346.858 322.946C341.091 323.277 335.434 324.666 330.173 327.017L153.56 405.994C147.146 408.866 143.606 415.732 145.044 422.503L174.258 560.349C176.265 569.803 186.819 574.79 195.588 570.418L369.91 483.487L530.864 478.058C539.317 477.774 545.637 470.214 544.294 461.991L522.743 329.985C521.637 323.166 516.455 313.302 509.44 313.507L509.455 313.492Z" fill="#0073F4"/>
<path opacity="0.1" d="M509.455 313.492L346.858 322.946C341.091 323.277 335.434 324.666 330.173 327.017L153.56 405.994C147.146 408.866 143.606 415.732 145.044 422.503L174.258 560.349C176.265 569.803 186.819 574.79 195.588 570.418L369.91 483.487L530.864 478.058C539.317 477.774 545.637 470.214 544.294 461.991L522.743 329.985C521.637 323.166 516.455 313.302 509.44 313.507L509.455 313.492Z" fill="black"/>
<path d="M183.077 223.727L97.748 302.297L250.874 468.231L336.203 389.66L183.077 223.727Z" fill="#0073F4"/>
<path opacity="0.5" d="M336.193 389.675L250.857 468.241L97.7549 302.318L153.75 250.756L183.091 223.736L187.973 229.039L336.193 389.675Z" fill="#FAFAFA"/>
<path d="M183.641 233.871L108.349 303.199L251.58 458.41L326.871 389.082L183.641 233.871Z" stroke="#407BFF" stroke-miterlimit="10"/>
<path d="M234.536 364.516C243.172 356.564 242.08 341.348 232.096 330.529C222.113 319.711 207.019 317.387 198.383 325.339C189.747 333.291 190.839 348.508 200.823 359.326C210.806 370.144 225.9 372.468 234.536 364.516Z" fill="#0073F4"/>
<path opacity="0.1" d="M249.956 400.896L219.636 411.36L153.75 250.755L183.091 223.735L187.973 229.038L249.956 400.896Z" fill="black"/>
<path d="M255.851 158.725L146.75 198.24L223.762 410.401L332.862 370.886L255.851 158.725Z" fill="#0073F4"/>
<path opacity="0.5" d="M255.851 158.725L146.75 198.24L223.762 410.401L332.862 370.886L255.851 158.725Z" fill="#FAFAFA"/>
<path d="M252.438 168.292L156.171 203.159L228.206 401.61L324.473 366.743L252.438 168.292Z" stroke="#407BFF" stroke-miterlimit="10"/>
<path d="M248.855 308.427C259.897 304.428 264.778 289.973 259.757 276.14C254.736 262.308 241.715 254.337 230.673 258.336C219.631 262.335 214.75 276.791 219.771 290.623C224.792 304.455 237.813 312.427 248.855 308.427Z" fill="#0073F4"/>
<path d="M510.514 319.094L350.144 328.122C344.456 328.438 338.878 329.811 333.696 332.147L159.675 410.618C153.355 413.475 149.879 420.325 151.316 427.095L180.499 564.957C182.506 574.411 192.934 579.414 201.576 575.074L373.322 488.632L532.096 483.613C540.439 483.345 546.648 475.817 545.305 467.594L523.707 335.603C522.585 328.785 517.466 318.905 510.545 319.094H510.514Z" fill="#0073F4"/>
<path opacity="0.2" d="M356.669 352.27L494.272 343.81" stroke="black" stroke-width="2" stroke-linecap="round" stroke-linejoin="round"/>
<path opacity="0.2" d="M340.19 355.821L365.328 471.161" stroke="black" stroke-width="2" stroke-linecap="round" stroke-linejoin="round"/>
<path opacity="0.2" d="M172.583 459.955L190.311 548.685C190.311 548.685 203.899 513.474 172.583 459.955Z" fill="#FAFAFA"/>
<path opacity="0.2" d="M174.906 460.997C175.507 462.622 332.353 395.341 332.353 395.341C332.353 395.341 336.319 443.699 289.124 470.151C241.93 496.602 174.906 460.997 174.906 460.997Z" fill="#FAFAFA"/>
<path d="M279.091 463.617C282.844 463.617 285.885 460.578 285.885 456.83C285.885 453.082 282.844 450.043 279.091 450.043C275.339 450.043 272.297 453.082 272.297 456.83C272.297 460.578 275.339 463.617 279.091 463.617Z" fill="#0073F4"/>
<path opacity="0.2" d="M332.448 395.341C332.448 395.341 351.898 424.57 347.189 474.396L332.448 395.341Z" fill="black"/>
<g opacity="0.2">
<path d="M165.079 425.107L168.697 423.513" stroke="#FAFAFA" stroke-linecap="round" stroke-linejoin="round"/>
<path d="M176.202 420.198L322.668 355.521" stroke="#FAFAFA" stroke-linecap="round" stroke-linejoin="round" stroke-dasharray="5.2 5.2"/>
<path d="M326.428 353.864L330.031 352.27" stroke="#FAFAFA" stroke-linecap="round" stroke-linejoin="round"/>
</g>
<path opacity="0.2" d="M361.283 378.201L498.885 369.725" stroke="black" stroke-width="2" stroke-linecap="round" stroke-linejoin="round"/>
<path opacity="0.2" d="M367.476 410.539L505.078 402.064" stroke="black" stroke-width="2" stroke-linecap="round" stroke-linejoin="round"/>
<path d="M474.916 180.807C474.916 180.807 471.456 217.628 457.757 220.8C444.059 223.972 432.493 218.275 432.493 218.275L421.354 209.72L415.919 228.644C415.919 228.644 421.86 236.709 434.263 231.122C434.263 231.122 456.367 240.86 468.612 231.122C480.857 221.384 484.76 194.727 484.76 194.727L474.916 180.807Z" fill="#B97964"/>
<path d="M485.929 162.972C485.929 162.972 476.37 146.7 480.715 117.202C485.06 87.7044 509.819 84.0113 519.378 86.1735C528.937 88.3357 536.758 97.4897 543.267 114.93C549.777 132.385 552.178 136.931 563.033 133.9C573.888 130.87 602.77 121.322 610.812 129.781C618.854 138.241 616.247 147.789 616.247 147.789C616.247 147.789 656.427 138.02 652.951 173.815C649.475 209.61 591.489 243.022 536.331 207.653C481.173 172.3 485.945 162.956 485.945 162.956L485.929 162.972Z" fill="#263238"/>
<path d="M485.486 249.603C485.486 249.603 474.568 343.4 474.932 387.402C475.295 431.388 490.953 535.017 490.953 535.017H510.245C510.245 535.017 507.701 452.127 508.064 423.765C508.428 395.404 513.531 348.513 513.531 348.513C513.531 348.513 519.725 390.685 526.993 405.599C534.261 420.514 574.677 473.228 602.706 489.579L615.805 477.584C615.805 477.584 586.685 441.584 575.767 423.781C564.85 405.962 555.022 400.88 551.025 367.784C547.027 334.704 553.932 281.611 542.287 249.619H485.502L485.486 249.603Z" fill="#263238"/>
<path opacity="0.2" d="M513.516 348.498L505.126 289.044C505.126 289.044 498.506 324.792 511.556 368.431L513.516 348.498Z" fill="black"/>
<path d="M494.903 540.289L495.551 558.707L508.491 559.781L509.139 558.06V538.995L494.903 540.289Z" fill="#B97964"/>
<path d="M488.757 533.281L489.942 540.179L512.157 540.715L513.563 532.429L488.757 533.281Z" fill="#0073F4"/>
<path d="M596.592 490.842L617.179 471.666L621.714 478.894L604.034 495.056L596.592 490.842Z" fill="#0073F4"/>
<path d="M606.514 490.842L620.102 502.268L628.824 492.025L617.669 480.504L606.514 490.842Z" fill="#B97964"/>
<path d="M631.463 491.236L639.679 496.287C641.274 497.265 641.606 499.443 640.358 500.848C634.401 507.556 619.186 524.632 617.669 525.848C615.789 527.363 613.514 524.775 612.977 522.407C612.977 522.407 617.29 516.694 617.669 513.032C617.954 510.333 617.811 506.419 617.732 504.541C617.701 503.831 617.938 503.136 618.396 502.6L627.576 491.852C628.54 490.715 630.183 490.463 631.463 491.236Z" fill="#263238"/>
<path d="M511.651 560.254L513.358 569.739C513.69 571.586 512.283 573.275 510.403 573.291C501.413 573.322 478.535 573.401 476.623 573.07C474.237 572.675 474.664 569.266 476.07 567.277C476.07 567.277 483.211 566.678 486.182 564.515C488.378 562.921 491.206 560.207 492.565 558.897C493.071 558.392 493.75 558.123 494.461 558.092L508.602 557.76C510.087 557.729 511.383 558.77 511.651 560.238V560.254Z" fill="#263238"/>
<path d="M544.342 197.584L564.06 183.758C564.06 183.758 558.814 162.798 551.057 161.757C543.299 160.715 504.699 153.376 480.162 161.757C480.162 161.757 471.346 164.266 468.628 188.998L479.119 192.344C479.119 192.344 482.895 238.65 485.202 245.784H541.213C541.213 245.784 541.845 205.964 544.357 197.584H544.342Z" fill="#0073F4"/>
<path d="M548.592 194.601C548.592 194.601 556.049 215.907 557.392 227.365C557.392 227.365 539.633 220.311 535.035 217.059L531.575 204.591L519.757 198.925L516.328 208.268L526.061 220.484C526.061 220.484 552.794 245.484 566.367 239.755C579.939 234.026 560.995 185.889 560.995 185.889L548.592 194.585V194.601Z" fill="#B97964"/>
<path d="M498.427 101.309C498.427 101.309 491.601 114.961 492.17 126.041C492.739 137.12 498.285 141.681 508.965 143.244C508.965 143.244 513.516 157.464 501.571 158.884C500.67 158.995 500.339 162.609 500.418 163.193C500.734 165.497 503.009 166.76 505.079 167.297C507.291 167.881 509.645 167.975 511.936 168.054C517.055 168.228 521.274 166.16 524.671 162.388C524.939 162.104 527.325 159.026 527.325 159.026C527.325 159.026 521.637 156.201 523.628 137.704C523.628 137.704 527.467 135.573 529.6 130.318C529.6 130.318 533.297 128.471 534.151 124.778C535.004 121.085 531.733 115.971 525.761 121.085C525.761 121.085 514.527 115.403 510.245 95.5011C510.245 95.5011 505.837 100.473 498.443 101.325L498.427 101.309Z" fill="#B97964"/>
<path d="M501.634 123.01L502.613 115.719L497.447 121.432C497.447 121.432 499.09 123.31 501.65 123.01H501.634Z" fill="#A24E3F"/>
<path d="M504.636 128.345C504.636 128.345 510.087 129.181 512.71 125.678" stroke="#222221" stroke-width="0.75" stroke-linecap="round" stroke-linejoin="round"/>
<path d="M510.087 105.507C510.087 105.507 513.563 104.166 517.15 107.385" stroke="#222221" stroke-linecap="round" stroke-linejoin="round"/>
<path d="M500.655 103.929C500.655 103.929 497.558 103.44 496.088 105.239" stroke="#222221" stroke-linecap="round" stroke-linejoin="round"/>
<path d="M512.283 115.103C512.141 116.208 511.43 117.013 510.703 116.918C509.976 116.824 509.486 115.861 509.629 114.756C509.771 113.651 510.482 112.846 511.209 112.941C511.935 113.036 512.425 113.998 512.283 115.103Z" fill="#222221"/>
<path d="M499.706 112.688C499.564 113.793 498.853 114.598 498.126 114.503C497.4 114.409 496.91 113.446 497.052 112.341C497.194 111.236 497.905 110.431 498.632 110.526C499.359 110.621 499.849 111.584 499.706 112.688Z" fill="#222221"/>
<path d="M511.224 112.941L508.728 111.852C508.728 111.852 509.234 114.093 511.224 112.941Z" fill="#222221"/>
<path d="M498.837 110.605L496.341 109.516C496.341 109.516 496.846 111.757 498.837 110.605Z" fill="#222221"/>
<path d="M483.227 243.322V249.903L543.899 250.408L542.272 242.58L483.227 243.322Z" fill="#0073F4"/>
<path opacity="0.4" d="M483.227 243.322V249.903L543.899 250.408L542.272 242.58L483.227 243.322Z" fill="white"/>
<path d="M483.97 211.378L450.616 327.333C448.262 335.524 441.183 341.08 433.204 341.869C430.724 342.106 428.148 341.9 425.589 341.174L361.741 322.851C351.013 319.757 344.803 308.567 347.884 297.851L381.254 181.88C383.039 175.677 387.542 170.99 393.12 168.733C397.165 167.091 401.762 166.744 406.281 168.054L470.113 186.362C480.841 189.455 487.051 200.645 483.97 211.378Z" fill="#0073F4"/>
<path opacity="0.2" d="M483.97 211.378L450.616 327.333C448.262 335.524 441.183 341.08 433.204 341.869C430.724 342.106 428.148 341.9 425.589 341.174L361.741 322.851C351.013 319.757 344.803 308.567 347.884 297.851L381.254 181.88C383.039 175.677 387.542 170.99 393.12 168.733C397.165 167.091 401.762 166.744 406.281 168.054L470.113 186.362C480.841 189.455 487.051 200.645 483.97 211.378Z" fill="black"/>
<path d="M478.424 212.751L445.07 328.706C443.285 334.925 438.766 339.628 433.204 341.869C430.724 342.106 428.148 341.9 425.589 341.174L361.741 322.851C351.013 319.757 344.803 308.567 347.884 297.851L381.254 181.88C383.039 175.677 387.542 170.99 393.12 168.733C395.6 168.496 398.176 168.701 400.735 169.427L464.567 187.735C475.296 190.829 481.505 202.018 478.424 212.751Z" fill="#0073F4"/>
<path opacity="0.5" d="M478.424 212.751L445.07 328.706C443.285 334.925 438.766 339.628 433.204 341.869C430.724 342.106 428.148 341.9 425.589 341.174L361.741 322.851C351.013 319.757 344.803 308.567 347.884 297.851L381.254 181.88C383.039 175.677 387.542 170.99 393.12 168.733C395.6 168.496 398.176 168.701 400.735 169.427L464.567 187.735C475.296 190.829 481.505 202.018 478.424 212.751Z" fill="#FAFAFA"/>
<path d="M388.713 222.615L381.885 220.692L357.308 307.797L364.136 309.719L388.713 222.615Z" fill="#FAFAFA"/>
<path d="M373.938 312.482L367.113 310.509L391.682 223.436L398.492 225.393L373.938 312.482Z" fill="#FAFAFA"/>
<path d="M383.861 315.322L377.035 313.365L401.604 226.276L408.43 228.249L383.861 315.322Z" fill="#FAFAFA"/>
<path opacity="0.5" d="M448.163 239.664L441.335 237.742L416.758 324.846L423.587 326.769L448.163 239.664Z" fill="black"/>
<path d="M447.298 215.039L443.901 226.86L439.856 225.724C435.78 224.572 433.41 220.342 434.547 216.27L436.759 208.426L444.928 210.762C446.761 211.299 447.819 213.208 447.298 215.039Z" fill="#FAFAFA"/>
<path d="M445.355 209.247L437.186 206.911L439.635 198.262C440.773 194.19 445.023 191.823 449.099 192.959L453.302 194.143L449.636 206.88C449.115 208.726 447.203 209.784 445.355 209.247Z" fill="#FAFAFA"/>
<path d="M453.096 213.114L461.312 215.465L459.132 223.183C457.994 227.255 453.76 229.638 449.683 228.486L445.417 227.287L448.814 215.481C449.336 213.65 451.248 212.593 453.096 213.114Z" fill="#FAFAFA"/>
<path d="M464.22 205.175L461.739 213.95L453.523 211.599C451.69 211.062 450.632 209.152 451.153 207.321L454.818 194.585L458.911 195.737C462.987 196.873 465.357 201.103 464.22 205.175Z" fill="#FAFAFA"/>
</g>
<defs>
<clipPath id="clip0_3_4616">
<rect width="790" height="588" fill="white"/>
</clipPath>
</defs>
</svg>
