<svg width="742" height="499" viewBox="0 0 742 499" fill="none" xmlns="http://www.w3.org/2000/svg">
<g clip-path="url(#clip0_3_2591)">
<path d="M728.315 297.71C725.565 198.363 638.188 121.034 550.79 79.5114C502.838 56.7285 447.532 40.5218 393.516 47.577C365.143 51.2801 339.968 64.7945 315.262 77.7449C288.872 91.5785 261.768 101.379 233.673 111.254C193.662 125.311 153.277 138.794 114.79 156.437C84.009 170.547 52.7908 187.371 30.9412 213.048C-6.76791 257.38 -9.08076 330.389 18.9826 379.765C34.4371 406.953 62.1594 424.107 91.7149 435.057C146.445 455.339 206.121 461.649 264.497 461.479C317.224 461.33 366.902 449.848 418.861 444.081C444.676 441.218 470.469 442.165 495.964 447.028C570.657 461.287 665.718 440.611 707.616 374.849C722.911 350.831 729.072 324.345 728.326 297.71H728.315Z" fill="#0073F4"/>
<path opacity="0.33" d="M728.315 297.71C725.565 198.363 638.188 121.034 550.79 79.5114C502.838 56.7285 447.532 40.5218 393.516 47.577C365.143 51.2801 339.968 64.7945 315.262 77.7449C288.872 91.5786 261.768 101.379 233.673 111.254C193.662 125.311 153.277 138.794 114.79 156.437C84.009 170.547 52.7908 187.371 30.9412 213.048C-6.76791 257.38 -9.08076 330.389 18.9826 379.765C34.4371 406.953 62.1594 424.107 91.7149 435.057C146.445 455.339 206.121 461.649 264.497 461.479C317.224 461.33 366.902 449.848 418.861 444.081C444.676 441.218 470.469 442.165 495.964 447.028C570.657 461.287 665.719 440.612 707.616 374.849C722.911 350.831 729.072 324.345 728.326 297.71H728.315Z" fill="white"/>
<path d="M13.6746 494.978H741.467" stroke="#263238" stroke-linecap="round" stroke-linejoin="round"/>
<path d="M615.113 440.441C616.946 441.239 621.444 441.144 621.444 441.144C621.486 441.144 620.474 438.207 620.389 438.026C619.408 435.972 616.285 432.567 613.749 432.907C611.926 433.152 610.903 434.982 611.318 436.696C611.745 438.451 613.546 439.75 615.102 440.431L615.113 440.441Z" fill="#263238"/>
<path d="M616.669 453.434C618.577 453.711 622.584 452.551 622.904 452.455C623.533 454.7 624.364 456.946 625.334 459.17C625.888 460.447 626.485 461.713 627.093 462.969C626.73 462.437 626.4 461.958 626.347 461.894C624.855 460.17 620.943 457.712 618.587 458.712C616.893 459.436 616.392 461.458 617.244 463.011C618.118 464.597 620.197 465.374 621.891 465.618C623.607 465.863 627.039 464.948 627.945 464.693C628.191 465.171 628.414 465.661 628.66 466.14C629.821 468.449 630.994 470.747 632.07 473.035C632.454 473.844 632.795 474.653 633.147 475.462C632.816 474.983 632.539 474.589 632.497 474.536C631.004 472.812 627.093 470.354 624.737 471.354C623.043 472.078 622.542 474.099 623.394 475.653C624.268 477.239 626.347 478.015 628.041 478.26C629.672 478.494 632.859 477.675 633.935 477.377C634.266 478.218 634.596 479.048 634.884 479.878C635.065 480.442 635.278 480.984 635.428 481.559C635.587 482.134 635.747 482.698 635.907 483.262C636.174 484.358 636.451 485.475 636.675 486.55C636.834 487.295 636.984 488.008 637.133 488.721C636.76 487.912 636.014 486.348 635.929 486.22C634.714 484.283 631.228 481.272 628.745 481.9C626.954 482.357 626.155 484.283 626.762 485.943C627.381 487.635 629.32 488.721 630.951 489.221C632.752 489.774 636.728 489.263 637.218 489.199C637.453 490.391 637.676 491.541 637.868 492.637C638.007 493.445 638.145 494.222 638.263 494.978H639.851C639.702 494.148 639.531 493.275 639.35 492.36C639.115 491.157 638.838 489.87 638.54 488.55C638.838 488.433 640.533 487.742 642.036 486.912C643.347 488.327 646.704 489.987 647.141 490.2C646.683 491.317 646.224 492.402 645.787 493.424C645.553 493.967 645.329 494.477 645.095 494.978H646.779C646.917 494.658 647.045 494.35 647.184 494.009C647.653 492.871 648.132 491.647 648.612 490.391C649.092 490.487 653.035 491.285 654.868 490.881C656.531 490.508 658.545 489.561 659.292 487.922C660.016 486.316 659.366 484.326 657.618 483.74C655.188 482.932 651.49 485.677 650.136 487.518C650.051 487.625 649.315 488.901 648.868 489.71C649.06 489.189 649.251 488.699 649.443 488.157C649.827 487.103 650.189 486.039 650.573 484.9C650.744 484.347 650.914 483.783 651.085 483.208C651.266 482.644 651.383 482.027 651.543 481.442C651.873 480.059 652.14 478.643 652.374 477.207C653.302 477.547 656.606 478.686 658.311 478.569C660.016 478.452 662.148 477.824 663.139 476.313C664.109 474.834 663.757 472.769 662.127 471.929C659.856 470.758 655.774 472.918 654.154 474.525C654.058 474.621 653.024 475.909 652.47 476.632C652.609 475.77 652.747 474.908 652.854 474.036C653.174 471.503 653.408 468.928 653.664 466.363C653.739 465.576 653.824 464.799 653.909 464.012C654.24 464.139 658.13 465.586 660.048 465.448C661.754 465.331 663.885 464.703 664.877 463.192C665.846 461.713 665.495 459.649 663.864 458.808C661.594 457.637 657.512 459.798 655.892 461.404C655.774 461.522 654.282 463.373 653.93 463.863C654.112 462.139 654.314 460.415 654.581 458.734C654.943 456.403 655.423 454.147 656.051 451.987C656.201 452.04 660.261 453.573 662.223 453.434C663.928 453.317 666.06 452.689 667.051 451.178C668.021 449.699 667.669 447.635 666.038 446.794C663.768 445.624 659.686 447.784 658.066 449.391C657.938 449.518 656.35 451.508 656.083 451.891C656.126 451.764 656.147 451.625 656.19 451.497C656.893 449.199 657.863 447.071 658.865 445.113C659.451 443.974 660.07 442.921 660.698 441.91C661.423 442.272 664.759 443.889 666.539 443.963C668.245 444.027 670.44 443.644 671.581 442.25C672.7 440.888 672.582 438.802 671.048 437.781C668.916 436.366 664.631 438.068 662.841 439.484C662.745 439.558 661.839 440.452 661.199 441.122C661.487 440.665 661.775 440.196 662.063 439.771C663.129 438.164 664.216 436.749 665.175 435.514C665.729 434.812 666.241 434.195 666.731 433.62C667.626 433.61 671.25 433.493 672.838 432.748C674.384 432.024 676.153 430.673 676.526 428.906C676.888 427.182 675.823 425.384 673.989 425.182C671.442 424.905 668.426 428.385 667.488 430.47C667.403 430.651 666.475 433.61 666.518 433.61C666.518 433.61 666.561 433.61 666.571 433.61C666.092 434.152 665.58 434.748 665.036 435.408C664.045 436.632 662.926 438.015 661.818 439.611C660.709 441.197 659.537 442.953 658.482 444.921C657.416 446.89 656.403 449.007 655.636 451.327C655.636 451.349 655.625 451.38 655.614 451.412C655.625 450.667 655.593 448.571 655.572 448.412C655.273 446.145 653.376 441.952 650.861 441.484C649.049 441.154 647.514 442.569 647.365 444.325C647.216 446.124 648.527 447.922 649.795 449.061C651.234 450.338 655.22 451.583 655.529 451.678C654.815 453.892 654.272 456.233 653.845 458.616C653.6 459.979 653.397 461.373 653.216 462.756C653.216 462.107 653.195 461.532 653.184 461.447C652.886 459.18 650.989 454.988 648.473 454.52C646.661 454.19 645.127 455.605 644.977 457.361C644.828 459.159 646.139 460.958 647.408 462.096C648.697 463.245 652.076 464.373 652.971 464.661C652.907 465.193 652.833 465.725 652.769 466.257C652.46 468.821 652.172 471.375 651.799 473.887C651.671 474.77 651.511 475.632 651.351 476.494C651.351 475.919 651.33 475.43 651.319 475.366C651.021 473.099 649.124 468.907 646.608 468.438C644.796 468.108 643.261 469.524 643.112 471.28C642.963 473.078 644.274 474.876 645.542 476.015C646.779 477.111 649.88 478.186 650.946 478.526C650.754 479.409 650.573 480.293 650.349 481.133C650.189 481.708 650.072 482.272 649.87 482.836C649.688 483.4 649.507 483.964 649.326 484.517C648.942 485.571 648.548 486.667 648.154 487.678C647.876 488.391 647.61 489.061 647.333 489.742C647.471 488.87 647.706 487.146 647.706 486.997C647.738 485.486 647.205 483.017 646.129 481.282C646.129 481.059 646.129 480.835 646.086 480.612C645.809 478.867 644.167 477.569 642.387 478.047C639.915 478.707 638.348 483.038 638.231 485.315C638.231 485.454 638.316 486.912 638.38 487.837C638.252 487.305 638.145 486.773 638.007 486.23C637.751 485.134 637.453 484.06 637.144 482.889C636.973 482.336 636.803 481.772 636.632 481.197C636.472 480.633 636.238 480.048 636.035 479.473C635.545 478.143 634.991 476.813 634.394 475.483C635.353 475.249 638.742 474.387 640.096 473.355C641.45 472.322 642.888 470.62 642.878 468.821C642.867 467.055 641.439 465.523 639.606 465.725C637.058 466.001 634.852 470.045 634.394 472.28C634.362 472.418 634.213 474.057 634.149 474.961C633.786 474.163 633.424 473.376 633.029 472.578C631.889 470.29 630.674 468.013 629.459 465.735C629.086 465.033 628.723 464.341 628.361 463.639C628.702 463.565 632.752 462.628 634.276 461.458C635.63 460.425 637.069 458.723 637.058 456.925C637.048 455.158 635.619 453.626 633.786 453.828C631.239 454.105 629.033 458.148 628.574 460.383C628.542 460.553 628.329 462.916 628.297 463.511C627.498 461.968 626.709 460.425 626.006 458.883C625.025 456.744 624.172 454.594 623.512 452.445C623.671 452.413 627.903 451.444 629.459 450.252C630.813 449.22 632.251 447.518 632.241 445.719C632.23 443.953 630.802 442.421 628.969 442.623C626.421 442.899 624.215 446.943 623.757 449.178C623.725 449.348 623.49 451.891 623.48 452.359C623.437 452.232 623.384 452.104 623.352 451.976C622.67 449.678 622.297 447.358 622.062 445.177C621.924 443.91 621.86 442.687 621.817 441.495C622.627 441.399 626.304 440.909 627.828 439.984C629.288 439.1 630.898 437.568 631.09 435.78C631.271 434.025 630.024 432.343 628.18 432.343C625.622 432.343 622.979 436.121 622.275 438.292C622.233 438.409 621.977 439.654 621.806 440.558C621.806 440.026 621.774 439.462 621.785 438.951C621.785 437.015 621.913 435.248 622.03 433.684C622.105 432.79 622.19 431.992 622.286 431.237C623.021 430.726 625.984 428.64 626.901 427.15C627.786 425.692 628.521 423.596 627.85 421.915C627.199 420.276 625.323 419.361 623.682 420.202C621.412 421.372 620.815 425.948 621.188 428.193C621.22 428.385 622.083 431.375 622.115 431.343C622.115 431.343 622.147 431.322 622.158 431.311C622.062 432.035 621.955 432.801 621.87 433.652C621.71 435.216 621.55 436.993 621.508 438.93C621.455 440.867 621.455 442.974 621.657 445.198C621.86 447.422 622.179 449.752 622.819 452.115C622.819 452.147 622.84 452.168 622.84 452.2C622.435 451.572 621.252 449.837 621.145 449.72C619.653 447.997 615.742 445.538 613.386 446.539C611.692 447.262 611.191 449.284 612.043 450.838C612.917 452.423 614.996 453.2 616.68 453.445L616.669 453.434Z" fill="#263238"/>
<path d="M660.549 441.431C660.549 441.431 661.37 438.451 661.391 438.26C661.711 436.004 660.986 431.449 658.684 430.343C657.021 429.545 655.167 430.502 654.559 432.162C653.941 433.854 654.719 435.94 655.657 437.366C656.744 439.047 660.549 441.431 660.549 441.441V441.431Z" fill="#263238"/>
<path d="M54.5813 440.441C56.4145 441.239 60.9123 441.144 60.9123 441.144C60.9549 441.144 59.9424 438.207 59.8571 438.026C58.8766 435.972 55.7537 432.567 53.217 432.907C51.3944 433.152 50.3712 434.982 50.7869 436.696C51.2132 438.451 53.0145 439.75 54.5706 440.431L54.5813 440.441Z" fill="#263238"/>
<path d="M56.1374 453.434C58.0452 453.711 62.0527 452.551 62.3725 452.455C63.0013 454.7 63.8327 456.946 64.8026 459.17C65.3568 460.447 65.9537 461.713 66.5612 462.969C66.1988 462.437 65.8684 461.958 65.8151 461.894C64.3229 460.17 60.4113 457.712 58.0559 458.712C56.3612 459.436 55.8602 461.458 56.7129 463.011C57.5869 464.597 59.6653 465.374 61.3599 465.618C63.0759 465.863 66.5079 464.948 67.4139 464.693C67.659 465.171 67.8935 465.661 68.128 466.14C69.2897 468.449 70.4515 470.747 71.5386 473.035C71.9223 473.844 72.2634 474.653 72.6151 475.462C72.2847 474.983 72.0076 474.589 71.965 474.536C70.4728 472.812 66.5612 470.354 64.2057 471.354C62.511 472.078 62.0101 474.099 62.8628 475.653C63.7367 477.239 65.8151 478.015 67.5098 478.26C69.1405 478.494 72.3273 477.675 73.4038 477.377C73.7342 478.218 74.0646 479.048 74.3524 479.878C74.5336 480.442 74.7468 480.984 74.896 481.559C75.0559 482.134 75.2157 482.698 75.3756 483.262C75.6421 484.358 75.9192 485.475 76.143 486.55C76.3029 487.295 76.4521 488.008 76.6013 488.721C76.2283 487.912 75.4822 486.348 75.3969 486.22C74.1819 484.283 70.6966 481.272 68.2132 481.9C66.4226 482.357 65.6233 484.283 66.2308 485.943C66.849 487.635 68.7888 488.721 70.4195 489.221C72.2208 489.774 76.1963 489.263 76.6866 489.199C76.9211 490.391 77.1449 491.541 77.3367 492.637C77.4753 493.445 77.6139 494.222 77.7311 494.978H79.3299C79.1806 494.148 79.0101 493.275 78.8289 492.36C78.5944 491.157 78.3173 489.87 78.0189 488.55C78.3173 488.433 80.012 487.742 81.5148 486.912C82.8258 488.327 86.1832 489.987 86.6095 490.2C86.1512 491.317 85.6929 492.402 85.2559 493.424C85.0214 493.967 84.7976 494.477 84.5631 494.978H86.2471C86.3857 494.658 86.5136 494.35 86.6521 494.009C87.1211 492.871 87.6007 491.647 88.0803 490.391C88.56 490.487 92.5035 491.285 94.3368 490.881C95.9995 490.508 98.0139 489.561 98.76 487.922C99.4847 486.316 98.8346 484.326 97.0866 483.74C94.6565 482.932 90.9581 485.677 89.6045 487.518C89.5192 487.625 88.7838 488.901 88.3361 489.71C88.528 489.189 88.7198 488.699 88.9117 488.157C89.2954 487.103 89.6578 486.039 90.0415 484.9C90.212 484.347 90.3825 483.783 90.5531 483.208C90.7343 482.644 90.8515 482.027 91.0114 481.442C91.3418 480.059 91.6082 478.643 91.8427 477.207C92.77 477.547 96.0741 478.686 97.7794 478.569C99.4847 478.452 101.616 477.824 102.608 476.313C103.578 474.834 103.226 472.769 101.595 471.929C99.3249 470.758 95.2427 472.918 93.6227 474.525C93.5267 474.621 92.4929 475.909 91.9386 476.632C92.0772 475.77 92.2158 474.908 92.3223 474.036C92.6421 471.503 92.8766 468.928 93.1324 466.363C93.207 465.576 93.2923 464.799 93.3775 464.012C93.7079 464.139 97.5982 465.586 99.5167 465.448C101.222 465.331 103.354 464.703 104.345 463.192C105.315 461.713 104.963 459.649 103.332 458.808C101.062 457.637 96.98 459.798 95.36 461.404C95.2427 461.522 93.7506 463.373 93.3988 463.863C93.58 462.139 93.7825 460.415 94.049 458.734C94.4114 456.403 94.891 454.147 95.5198 451.987C95.6691 452.04 99.7299 453.573 101.691 453.434C103.396 453.317 105.528 452.689 106.519 451.178C107.489 449.699 107.137 447.635 105.507 446.794C103.236 445.624 99.1543 447.784 97.5343 449.391C97.4064 449.518 95.8183 451.508 95.5518 451.891C95.5944 451.764 95.6158 451.625 95.6584 451.497C96.3618 449.199 97.3318 447.071 98.3336 445.113C98.9198 443.974 99.538 442.921 100.167 441.91C100.892 442.272 104.228 443.889 106.008 443.963C107.713 444.027 109.909 443.644 111.049 442.25C112.168 440.888 112.051 438.802 110.516 437.781C108.384 436.366 104.1 438.068 102.309 439.484C102.213 439.558 101.307 440.452 100.668 441.122C100.956 440.665 101.243 440.196 101.531 439.771C102.597 438.164 103.684 436.749 104.643 435.514C105.198 434.812 105.709 434.195 106.199 433.62C107.095 433.61 110.719 433.493 112.307 432.748C113.852 432.024 115.621 430.673 115.994 428.906C116.357 427.182 115.291 425.384 113.458 425.182C110.91 424.905 107.894 428.385 106.956 430.47C106.871 430.651 105.944 433.61 105.986 433.61C105.986 433.61 106.029 433.61 106.04 433.61C105.56 434.152 105.048 434.748 104.505 435.408C103.514 436.632 102.394 438.015 101.286 439.611C100.178 441.197 99.0051 442.953 97.9499 444.921C96.8841 446.89 95.8716 449.007 95.1042 451.327C95.1042 451.349 95.0935 451.38 95.0828 451.412C95.0935 450.667 95.0615 448.571 95.0402 448.412C94.7418 446.145 92.8446 441.952 90.3292 441.484C88.5173 441.154 86.9825 442.569 86.8333 444.325C86.6841 446.124 87.9951 447.922 89.2634 449.061C90.7023 450.338 94.6885 451.583 94.9976 451.678C94.2835 453.892 93.7399 456.233 93.3136 458.616C93.0684 459.979 92.8659 461.373 92.6741 462.756C92.6741 462.107 92.6527 461.532 92.6421 461.447C92.3437 459.18 90.4465 454.988 87.9311 454.52C86.1192 454.19 84.5844 455.605 84.4352 457.361C84.286 459.159 85.5969 460.958 86.8653 462.096C88.1549 463.245 91.5336 464.373 92.4289 464.661C92.365 465.193 92.2904 465.725 92.2264 466.257C91.9173 468.821 91.6296 471.375 91.2565 473.887C91.1286 474.77 90.9687 475.632 90.8089 476.494C90.8089 475.919 90.7875 475.43 90.7769 475.366C90.4785 473.099 88.5813 468.907 86.0659 468.438C84.254 468.108 82.7192 469.524 82.57 471.28C82.4208 473.078 83.7317 474.876 85.0001 476.015C86.2364 477.111 89.338 478.186 90.4038 478.526C90.212 479.409 90.0308 480.293 89.807 481.133C89.6471 481.708 89.5299 482.272 89.3274 482.836C89.1462 483.4 88.965 483.964 88.7838 484.517C88.4001 485.571 88.0057 486.667 87.6114 487.678C87.3342 488.391 87.0678 489.061 86.7907 489.742C86.9292 488.87 87.1637 487.146 87.1637 486.997C87.1957 485.486 86.6628 483.017 85.5863 481.282C85.5863 481.059 85.5863 480.835 85.5437 480.612C85.2665 478.867 83.6252 477.569 81.8452 478.047C79.3725 478.707 77.8057 483.038 77.6885 485.315C77.6885 485.454 77.7737 486.912 77.8377 487.837C77.7098 487.305 77.6032 486.773 77.4647 486.23C77.2089 485.134 76.9104 484.06 76.6013 482.889C76.4308 482.336 76.2603 481.772 76.0897 481.197C75.9299 480.633 75.6954 480.048 75.4929 479.473C75.0026 478.143 74.4483 476.813 73.8515 475.483C74.8107 475.249 78.2001 474.387 79.5537 473.355C80.9073 472.322 82.3462 470.62 82.3355 468.821C82.3248 467.055 80.8966 465.523 79.0634 465.725C76.5161 466.001 74.3098 470.045 73.8515 472.28C73.8195 472.418 73.6703 474.057 73.6063 474.961C73.244 474.163 72.8816 473.376 72.4872 472.578C71.3468 470.29 70.1317 468.013 68.9167 465.735C68.5436 465.033 68.1813 464.341 67.8189 463.639C68.1599 463.565 72.2101 462.628 73.7342 461.458C75.0878 460.425 76.5267 458.723 76.5161 456.925C76.5054 455.158 75.0772 453.626 73.244 453.828C70.6966 454.105 68.4903 458.148 68.032 460.383C68.0001 460.553 67.7869 462.916 67.7549 463.511C66.9555 461.968 66.1668 460.425 65.4634 458.883C64.4828 456.744 63.6302 454.594 62.9693 452.445C63.1292 452.413 67.3606 451.444 68.9167 450.252C70.2703 449.22 71.7092 447.518 71.6985 445.719C71.6878 443.953 70.2596 442.421 68.4264 442.623C65.8791 442.899 63.6728 446.943 63.2145 449.178C63.1825 449.348 62.948 451.891 62.9374 452.359C62.8947 452.232 62.8414 452.104 62.8095 451.976C62.1273 449.678 61.7543 447.358 61.5198 445.177C61.3813 443.91 61.3173 442.687 61.2747 441.495C62.0847 441.399 65.7618 440.909 67.286 439.984C68.7461 439.1 70.3556 437.568 70.5474 435.78C70.7286 434.025 69.4816 432.343 67.6377 432.343C65.0797 432.343 62.4364 436.121 61.733 438.292C61.6903 438.409 61.4345 439.654 61.264 440.558C61.264 440.026 61.232 439.462 61.2427 438.951C61.2427 437.015 61.3706 435.248 61.4878 433.684C61.5624 432.79 61.6477 431.992 61.7436 431.237C62.4791 430.726 65.4421 428.64 66.3587 427.15C67.2433 425.692 67.9788 423.596 67.3073 421.915C66.6571 420.276 64.7813 419.361 63.1399 420.202C60.8697 421.372 60.2728 425.948 60.6458 428.193C60.6778 428.385 61.5411 431.375 61.5731 431.343C61.5731 431.343 61.6051 431.322 61.6157 431.311C61.5198 432.035 61.4132 432.801 61.328 433.652C61.1681 435.216 61.0082 436.993 60.9656 438.93C60.9123 440.867 60.9123 442.974 61.1148 445.198C61.3173 447.422 61.6371 449.752 62.2765 452.115C62.2765 452.147 62.2979 452.168 62.2979 452.2C61.8929 451.572 60.7098 449.837 60.6032 449.72C59.111 447.997 55.1994 445.538 52.8439 446.539C51.1493 447.262 50.6483 449.284 51.501 450.838C52.375 452.423 54.4533 453.2 56.1374 453.445V453.434Z" fill="#263238"/>
<path d="M100.018 441.431C100.018 441.431 100.838 438.451 100.86 438.26C101.18 436.004 100.455 431.449 98.1526 430.343C96.4899 429.545 94.6353 430.502 94.0278 432.162C93.4096 433.854 94.1983 435.94 95.1256 437.366C96.2127 439.047 100.018 441.431 100.018 441.441V441.431Z" fill="#263238"/>
<path d="M728.922 391.279V444.102H641.481V340.509H728.922V383.276" stroke="#263238" stroke-linecap="round" stroke-linejoin="round"/>
<path d="M728.912 340.509H641.481V353.087H728.912V340.509Z" stroke="#263238" stroke-linecap="round" stroke-linejoin="round"/>
<path d="M659.888 368.858H648.953V379.775H659.888V368.858Z" stroke="#263238" stroke-linecap="round" stroke-linejoin="round"/>
<path d="M659.888 390.693H648.953V401.611H659.888V390.693Z" stroke="#263238" stroke-linecap="round" stroke-linejoin="round"/>
<path d="M659.888 412.529H648.953V423.447H659.888V412.529Z" stroke="#263238" stroke-linecap="round" stroke-linejoin="round"/>
<path d="M666.667 373.54H717.177" stroke="#263238" stroke-linecap="round" stroke-linejoin="round"/>
<path d="M666.667 396.929H717.177" stroke="#263238" stroke-linecap="round" stroke-linejoin="round"/>
<path d="M666.667 418.244H717.177" stroke="#263238" stroke-linecap="round" stroke-linejoin="round"/>
<path d="M396.543 403.91H332.699V457.148V472.11L357.373 457.148H464.021V403.91H407.222" stroke="#263238" stroke-linecap="round" stroke-linejoin="round"/>
<path d="M365.921 425.607C365.921 429.417 364.099 432.79 361.274 434.929C359.313 436.408 356.862 437.291 354.208 437.291C351.554 437.291 349.113 436.408 347.152 434.929C344.328 432.79 342.505 429.417 342.505 425.607C342.505 419.148 347.749 413.913 354.208 413.913C360.667 413.913 365.921 419.148 365.921 425.607Z" stroke="#263238" stroke-linecap="round" stroke-linejoin="round"/>
<path d="M354.208 425.458C356.262 425.458 357.928 423.796 357.928 421.745C357.928 419.693 356.262 418.031 354.208 418.031C352.154 418.031 350.488 419.693 350.488 421.745C350.488 423.796 352.154 425.458 354.208 425.458Z" stroke="#263238" stroke-linecap="round" stroke-linejoin="round"/>
<path d="M361.541 432.982C361.541 433.652 361.445 434.312 361.274 434.929C359.313 436.408 356.862 437.291 354.208 437.291C351.554 437.291 349.113 436.408 347.152 434.929C346.982 434.312 346.886 433.652 346.886 432.982C346.886 428.938 350.168 425.661 354.208 425.661C358.248 425.661 361.541 428.938 361.541 432.982Z" stroke="#263238" stroke-linecap="round" stroke-linejoin="round"/>
<path d="M378.136 419.276H417.774" stroke="#263238" stroke-linecap="round" stroke-linejoin="round"/>
<path d="M378.136 427.512H455.974" stroke="#263238" stroke-linecap="round" stroke-linejoin="round"/>
<path d="M378.136 436.993H455.974" stroke="#263238" stroke-linecap="round" stroke-linejoin="round"/>
<path d="M378.136 446.688H455.974" stroke="#263238" stroke-linecap="round" stroke-linejoin="round"/>
<path d="M504.33 157.725V191.159L492.468 183.806L466.333 219.678V157.725H504.33Z" stroke="#263238" stroke-linecap="round" stroke-linejoin="round"/>
<path d="M504.33 132.122V194.075L505.791 192.064L530.465 158.214L537.563 162.62L541.453 165.024L549.404 169.951L579.45 132.122H504.33ZM520.009 156.118C515.756 156.118 512.313 152.681 512.313 148.424C512.313 144.168 515.756 140.741 520.009 140.741C524.261 140.741 527.715 144.178 527.715 148.424C527.715 152.67 524.261 156.118 520.009 156.118Z" stroke="#263238" stroke-linecap="round" stroke-linejoin="round"/>
<path d="M541.453 194.075V219.678H466.333L492.468 183.806L504.33 191.159V194.075H541.453Z" stroke="#263238" stroke-linecap="round" stroke-linejoin="round"/>
<path d="M482.012 181.71C486.262 181.71 489.707 178.27 489.707 174.027C489.707 169.784 486.262 166.344 482.012 166.344C477.762 166.344 474.317 169.784 474.317 174.027C474.317 178.27 477.762 181.71 482.012 181.71Z" stroke="#263238" stroke-linecap="round" stroke-linejoin="round"/>
<path d="M527.715 148.424C527.715 152.681 524.261 156.118 520.009 156.118C515.756 156.118 512.313 152.681 512.313 148.424C512.313 144.168 515.756 140.741 520.009 140.741C524.261 140.741 527.715 144.178 527.715 148.424Z" stroke="#263238" stroke-linecap="round" stroke-linejoin="round"/>
<path d="M579.45 175.272V194.075H504.33L505.791 192.064L530.465 158.214L537.563 162.62L541.453 165.024L549.404 169.951L579.45 132.122V166.387" stroke="#263238" stroke-linecap="round" stroke-linejoin="round"/>
<path d="M527.715 148.424C527.715 152.681 524.261 156.118 520.009 156.118C515.756 156.118 512.313 152.681 512.313 148.424C512.313 144.168 515.756 140.741 520.009 140.741C524.261 140.741 527.715 144.178 527.715 148.424Z" stroke="#263238" stroke-linecap="round" stroke-linejoin="round"/>
<path d="M385.042 0.532043H346.971C344.275 0.532043 342.089 2.71407 342.089 5.40574V85.4918C342.089 88.1834 344.275 90.3655 346.971 90.3655H385.042C387.738 90.3655 389.924 88.1834 389.924 85.4918V5.40574C389.924 2.71407 387.738 0.532043 385.042 0.532043Z" stroke="#263238" stroke-linecap="round" stroke-linejoin="round"/>
<path d="M386.044 31.2746V7.82129H377.582V10.7157H354.442V7.82129H345.98V83.0655H386.044V40.16" stroke="#263238" stroke-linecap="round" stroke-linejoin="round"/>
<path d="M68.7462 336.391C76.3809 336.391 82.57 330.212 82.57 322.589C82.57 314.967 76.3809 308.788 68.7462 308.788C61.1115 308.788 54.9224 314.967 54.9224 322.589C54.9224 330.212 61.1115 336.391 68.7462 336.391Z" stroke="#263238" stroke-linecap="round" stroke-linejoin="round"/>
<path d="M105.112 368.613C112.747 368.613 118.936 362.434 118.936 354.811C118.936 347.189 112.747 341.009 105.112 341.009C97.4777 341.009 91.2886 347.189 91.2886 354.811C91.2886 362.434 97.4777 368.613 105.112 368.613Z" stroke="#263238" stroke-linecap="round" stroke-linejoin="round"/>
<path d="M68.7462 400.803C76.3809 400.803 82.57 394.623 82.57 387.001C82.57 379.378 76.3809 373.199 68.7462 373.199C61.1115 373.199 54.9224 379.378 54.9224 387.001C54.9224 394.623 61.1115 400.803 68.7462 400.803Z" stroke="#263238" stroke-linecap="round" stroke-linejoin="round"/>
<path d="M79.3938 331.624L93.4841 345.245" stroke="#263238" stroke-linecap="round" stroke-linejoin="round"/>
<path d="M94.8484 364.761L80.2998 378.828" stroke="#263238" stroke-linecap="round" stroke-linejoin="round"/>
<path d="M262.568 221.466L263.378 233.256L235.464 214.804L204.416 227.297L213.369 195.086L191.882 169.462L225.328 168.015L243.095 139.688L254.809 170.994L287.284 179.114L261.076 199.917L261.939 212.442" stroke="#263238" stroke-linecap="round" stroke-linejoin="round"/>
<path d="M730.521 127.269L712.103 127.493L701.84 142.763L695.945 125.333L678.221 120.31L692.993 109.328L692.311 90.9507L707.339 101.581L724.627 95.2498L719.149 112.808L730.521 127.269Z" stroke="#263238" stroke-linecap="round" stroke-linejoin="round"/>
<path d="M194.664 155.65L176.235 155.862L165.971 171.143L160.077 153.713L142.353 148.69L157.136 137.708L156.443 119.32L171.471 129.962L188.77 123.63L183.28 141.188L194.664 155.65Z" stroke="#263238" stroke-linecap="round" stroke-linejoin="round"/>
<path d="M298.966 467.161L286.794 467.31L280.005 477.409L276.114 465.884L264.401 462.564L274.164 455.307L273.706 443.155L283.639 450.178L295.076 445.996L291.452 457.606L298.966 467.161Z" stroke="#263238" stroke-linecap="round" stroke-linejoin="round"/>
<path d="M42.9636 56.4199L45.4897 64.188H53.6753L47.0564 68.9872L49.5825 76.7553L42.9636 71.9561L36.3448 76.7553L38.8815 68.9872L32.2627 64.188H40.4376L42.9636 56.4199Z" fill="#0073F4" stroke="#263238" stroke-linecap="round" stroke-linejoin="round"/>
<path d="M69.3537 56.4199L71.8797 64.188H80.0653L73.4465 68.9872L75.9725 76.7553L69.3537 71.9561L62.7349 76.7553L65.2609 68.9872L58.6421 64.188H66.8277L69.3537 56.4199Z" fill="#0073F4" stroke="#263238" stroke-linecap="round" stroke-linejoin="round"/>
<path d="M95.7436 56.4199L98.2696 64.188H106.455L99.8364 68.9872L102.362 76.7553L95.7436 71.9561L89.1248 76.7553L91.6508 68.9872L85.032 64.188H93.2176L95.7436 56.4199Z" fill="#0073F4" stroke="#263238" stroke-linecap="round" stroke-linejoin="round"/>
<path d="M122.134 56.4199L124.66 64.188H132.835L126.216 68.9872L128.753 76.7553L122.134 71.9561L115.515 76.7553L118.041 68.9872L111.422 64.188H119.597L122.134 56.4199Z" fill="#263238" stroke="#263238" stroke-linecap="round" stroke-linejoin="round"/>
<path d="M148.513 56.4199L151.05 64.188H159.225L152.606 68.9872L155.132 76.7553L148.513 71.9561L141.894 76.7553L144.431 68.9872L137.812 64.188H145.987L148.513 56.4199Z" fill="#263238" stroke="#263238" stroke-linecap="round" stroke-linejoin="round"/>
<path d="M39.2014 252.751L41.7274 260.519H49.913L43.2941 265.329L45.8202 273.086L39.2014 268.287L32.5825 273.086L35.1086 265.329L28.4897 260.519H36.6753L39.2014 252.751Z" fill="#0073F4" stroke="#263238" stroke-linecap="round" stroke-linejoin="round"/>
<path d="M65.5912 252.751L68.1173 260.519H76.2922L69.684 265.329L72.2101 273.086L65.5912 268.287L58.9724 273.086L61.4985 265.329L54.8796 260.519H63.0652L65.5912 252.751Z" fill="#0073F4" stroke="#263238" stroke-linecap="round" stroke-linejoin="round"/>
<path d="M91.9814 252.751L94.5074 260.519H102.682L96.0635 265.329L98.5895 273.086L91.9814 268.287L85.3626 273.086L87.8886 265.329L81.2698 260.519H89.4447L91.9814 252.751Z" fill="#263238" stroke="#263238" stroke-linecap="round" stroke-linejoin="round"/>
<path d="M118.361 252.751L120.887 260.519H129.072L122.453 265.329L124.979 273.086L118.361 268.287L111.742 273.086L114.278 265.329L107.66 260.519H115.835L118.361 252.751Z" fill="#263238" stroke="#263238" stroke-linecap="round" stroke-linejoin="round"/>
<path d="M144.751 252.751L147.277 260.519H155.462L148.843 265.329L151.369 273.086L144.751 268.287L138.132 273.086L140.658 265.329L134.039 260.519H142.225L144.751 252.751Z" fill="#263238" stroke="#263238" stroke-linecap="round" stroke-linejoin="round"/>
<path d="M580.697 56.4199L583.234 64.188H591.409L584.79 68.9872L587.316 76.7553L580.697 71.9561L574.078 76.7553L576.615 68.9872L569.996 64.188H578.171L580.697 56.4199Z" fill="#0073F4" stroke="#263238" stroke-linecap="round" stroke-linejoin="round"/>
<path d="M607.087 56.4199L609.613 64.188H617.799L611.18 68.9872L613.706 76.7553L607.087 71.9561L600.468 76.7553L602.994 68.9872L596.386 64.188H604.561L607.087 56.4199Z" fill="#0073F4" stroke="#263238" stroke-linecap="round" stroke-linejoin="round"/>
<path d="M633.477 56.4199L636.003 64.188H644.189L637.57 68.9872L640.096 76.7553L633.477 71.9561L626.858 76.7553L629.384 68.9872L622.765 64.188H630.951L633.477 56.4199Z" fill="#0073F4" stroke="#263238" stroke-linecap="round" stroke-linejoin="round"/>
<path d="M659.867 56.4199L662.393 64.188H670.568L663.949 68.9872L666.486 76.7553L659.867 71.9561L653.248 76.7553L655.774 68.9872L649.156 64.188H657.341L659.867 56.4199Z" fill="#0073F4" stroke="#263238" stroke-linecap="round" stroke-linejoin="round"/>
<path d="M686.257 56.4199L688.783 64.188H696.958L690.339 68.9872L692.865 76.7553L686.257 71.9561L679.638 76.7553L682.164 68.9872L675.545 64.188H683.72L686.257 56.4199Z" fill="#0073F4" stroke="#263238" stroke-linecap="round" stroke-linejoin="round"/>
<path d="M606.565 293.273L609.091 301.041H617.277L610.658 305.84L613.184 313.608L606.565 308.809L599.946 313.608L602.472 305.84L595.853 301.041H604.039L606.565 293.273Z" fill="#0073F4" stroke="#263238" stroke-linecap="round" stroke-linejoin="round"/>
<path d="M632.955 293.273L635.481 301.041H643.656L637.048 305.84L639.574 313.608L632.955 308.809L626.336 313.608L628.862 305.84L622.243 301.041H630.429L632.955 293.273Z" fill="#0073F4" stroke="#263238" stroke-linecap="round" stroke-linejoin="round"/>
<path d="M659.345 293.273L661.871 301.041H670.046L663.427 305.84L665.953 313.608L659.345 308.809L652.726 313.608L655.252 305.84L648.633 301.041H656.808L659.345 293.273Z" fill="#263238" stroke="#263238" stroke-linecap="round" stroke-linejoin="round"/>
<path d="M685.724 293.273L688.25 301.041H696.436L689.817 305.84L692.343 313.608L685.724 308.809L679.105 313.608L681.642 305.84L675.023 301.041H683.198L685.724 293.273Z" fill="#263238" stroke="#263238" stroke-linecap="round" stroke-linejoin="round"/>
<path d="M712.114 293.273L714.64 301.041H722.826L716.207 305.84L718.733 313.608L712.114 308.809L705.495 313.608L708.021 305.84L701.403 301.041H709.588L712.114 293.273Z" fill="#263238" stroke="#263238" stroke-linecap="round" stroke-linejoin="round"/>
<path d="M315.668 106.466L318.204 114.234H326.379L319.76 119.033L322.286 126.801L315.668 122.002L309.059 126.801L311.585 119.033L304.967 114.234H313.141L315.668 106.466Z" fill="#0073F4" stroke="#263238" stroke-linecap="round" stroke-linejoin="round"/>
<path d="M342.057 106.466L344.583 114.234H352.769L346.15 119.033L348.676 126.801L342.057 122.002L335.439 126.801L337.965 119.033L331.356 114.234H339.531L342.057 106.466Z" fill="#0073F4" stroke="#263238" stroke-linecap="round" stroke-linejoin="round"/>
<path d="M368.447 106.466L370.973 114.234H379.159L372.54 119.033L375.066 126.801L368.447 122.002L361.829 126.801L364.355 119.033L357.736 114.234H365.921L368.447 106.466Z" fill="#0073F4" stroke="#263238" stroke-linecap="round" stroke-linejoin="round"/>
<path d="M394.838 106.466L397.364 114.234H405.539L398.92 119.033L401.456 126.801L394.838 122.002L388.219 126.801L390.745 119.033L384.126 114.234H392.312L394.838 106.466Z" fill="#0073F4" stroke="#263238" stroke-linecap="round" stroke-linejoin="round"/>
<path d="M421.227 106.466L423.753 114.234H431.928L425.31 119.033L427.836 126.801L421.227 122.002L414.609 126.801L417.135 119.033L410.516 114.234H418.691L421.227 106.466Z" fill="#263238" stroke="#263238" stroke-linecap="round" stroke-linejoin="round"/>
<path d="M372.878 285.029C411.688 281.809 440.536 247.787 437.312 209.038C434.087 170.289 400.01 141.487 361.199 144.707C322.388 147.927 293.54 181.949 296.765 220.698C299.99 259.446 334.067 288.248 372.878 285.029Z" fill="#263238" stroke="#263238" stroke-linejoin="round"/>
<path d="M430.714 217.768C432.316 182.666 405.114 152.912 369.955 151.312C334.797 149.712 304.996 176.871 303.394 211.973C301.791 247.075 328.993 276.828 364.152 278.428C399.31 280.029 429.111 252.87 430.714 217.768Z" fill="#0073F4" stroke="#263238" stroke-linecap="round" stroke-linejoin="round"/>
<path d="M333.275 218.295C331.484 233.48 340.842 248.186 356.041 252.591C371.24 257.007 387.035 249.612 393.686 235.831L333.275 218.284V218.295Z" fill="white" stroke="#263238" stroke-width="3" stroke-linecap="round" stroke-linejoin="round"/>
<path d="M356.009 200.811C354.272 206.791 349.145 210.558 344.562 209.228C339.979 207.898 337.677 201.971 339.414 195.99C341.151 190.01 346.278 186.243 350.861 187.573C355.444 188.903 357.746 194.831 356.009 200.811Z" fill="#263238" stroke="#263238" stroke-linecap="round" stroke-linejoin="round"/>
<path d="M400.486 213.729C398.749 219.71 393.622 223.477 389.039 222.147C384.456 220.817 382.154 214.889 383.891 208.909C385.629 202.929 390.755 199.162 395.338 200.492C399.921 201.822 402.224 207.749 400.486 213.729Z" fill="#263238" stroke="#263238" stroke-linecap="round" stroke-linejoin="round"/>
<path d="M549.55 89.4222C563.887 60.1265 551.722 24.774 522.379 10.4602C493.037 -3.85364 457.627 8.29162 443.291 37.5873C428.954 66.8831 441.119 102.236 470.461 116.549C499.804 130.863 535.213 118.718 549.55 89.4222Z" fill="#263238" stroke="#263238" stroke-linecap="round" stroke-linejoin="round"/>
<path d="M527.288 107.104C551.433 90.0551 557.163 56.692 540.087 32.5858C523.01 8.47955 489.594 2.75869 465.449 19.8079C441.304 36.8571 435.574 70.2203 452.65 94.3265C469.727 118.433 503.144 124.154 527.288 107.104Z" fill="#0073F4" stroke="#263238" stroke-linecap="round" stroke-linejoin="round"/>
<path d="M469.147 65.5927C468.977 78.4473 478.089 89.9079 491.178 92.2809C504.266 94.6433 516.822 87.088 521.17 74.9889L469.147 65.5927Z" fill="white" stroke="#263238" stroke-width="3" stroke-linecap="round" stroke-linejoin="round"/>
<path d="M472.142 40.0324L483.301 50.7694L469.051 55.558" stroke="#263238" stroke-width="4" stroke-linecap="round" stroke-linejoin="round"/>
<path d="M526.894 49.9181L512.665 56.0794L524.336 65.5501" stroke="#263238" stroke-width="4" stroke-linecap="round" stroke-linejoin="round"/>
<path d="M142.245 206.412C154.758 176.206 140.376 141.592 110.122 129.098C79.8669 116.605 45.1966 130.964 32.6833 161.17C20.1699 191.376 34.5521 225.991 64.8068 238.485C95.0614 250.978 129.732 236.619 142.245 206.412Z" fill="#263238" stroke="#263238" stroke-linecap="round" stroke-linejoin="round"/>
<path d="M139.832 194.901C145.986 166.021 127.525 137.629 98.5991 131.485C69.673 125.341 41.2352 143.772 35.0815 172.652C28.9278 201.532 47.3884 229.924 76.3145 236.068C105.241 242.212 133.678 223.781 139.832 194.901Z" fill="#0073F4" stroke="#263238" stroke-linecap="round" stroke-linejoin="round"/>
<path d="M75.7166 224.381C72.8176 211.857 79.2765 198.715 91.5549 193.628C103.833 188.542 117.721 193.256 124.542 204.152" stroke="#263238" stroke-width="3" stroke-linecap="round" stroke-linejoin="round"/>
<path d="M72.8282 180.359C74.832 185.19 73.4571 190.351 69.7586 191.883C66.0495 193.415 61.4238 190.744 59.4094 185.913C57.4056 181.082 58.7806 175.921 62.479 174.389C66.1881 172.856 70.8138 175.527 72.8282 180.359Z" fill="#263238" stroke="#263238" stroke-linecap="round" stroke-linejoin="round"/>
<path d="M108.789 165.461C110.793 170.292 109.418 175.453 105.72 176.996C102.011 178.528 97.385 175.857 95.3706 171.026C93.3668 166.195 94.7417 161.034 98.4402 159.502C102.149 157.969 106.775 160.64 108.789 165.471V165.461Z" fill="#263238" stroke="#263238" stroke-linecap="round" stroke-linejoin="round"/>
<path d="M276.558 114.082C300.392 90.2871 300.392 51.7073 276.558 27.9119C252.725 4.11658 214.083 4.11657 190.249 27.9119C166.416 51.7073 166.416 90.2871 190.249 114.082C214.083 137.878 252.725 137.878 276.558 114.082Z" fill="#263238" stroke="#263238" stroke-linecap="round" stroke-linejoin="round"/>
<path d="M233.407 124.46C262.98 124.46 286.954 100.524 286.954 70.9984C286.954 41.4724 262.98 17.5368 233.407 17.5368C203.833 17.5368 179.859 41.4724 179.859 70.9984C179.859 100.524 203.833 124.46 233.407 124.46Z" fill="white" stroke="#263238" stroke-linecap="round" stroke-linejoin="round"/>
<path d="M221.906 61.3362C221.501 66.5504 217.931 70.5302 213.934 70.2216C209.937 69.913 207.017 65.433 207.422 60.2188C207.827 55.0046 211.397 51.0248 215.394 51.3334C219.391 51.642 222.311 56.1219 221.906 61.3362Z" fill="#263238" stroke="#263238" stroke-linecap="round" stroke-linejoin="round"/>
<path d="M260.724 64.3157C260.319 69.5299 256.748 73.5098 252.751 73.2012C248.755 72.8926 245.834 68.4126 246.239 63.1984C246.644 57.9842 250.215 54.0043 254.212 54.3129C258.208 54.6215 261.129 59.1015 260.724 64.3157Z" fill="#263238" stroke="#263238" stroke-linecap="round" stroke-linejoin="round"/>
<path d="M207.752 85.9175L259.541 89.9079" stroke="#263238" stroke-width="3" stroke-linecap="round" stroke-linejoin="round"/>
<path d="M656.137 284.834C694.269 284.834 725.181 253.971 725.181 215.9C725.181 177.829 694.269 146.966 656.137 146.966C618.004 146.966 587.092 177.829 587.092 215.9C587.092 253.971 618.004 284.834 656.137 284.834Z" fill="#263238" stroke="#263238" stroke-linecap="round" stroke-linejoin="round"/>
<path d="M656.137 278.045C690.513 278.045 718.381 250.222 718.381 215.9C718.381 181.579 690.513 153.755 656.137 153.755C621.76 153.755 593.892 181.579 593.892 215.9C593.892 250.222 621.76 278.045 656.137 278.045Z" fill="#0073F4" stroke="#263238" stroke-linecap="round" stroke-linejoin="round"/>
<path d="M625.409 254.283C627.881 239.545 640.682 228.308 656.137 228.308C671.591 228.308 684.392 239.545 686.865 254.283" stroke="#263238" stroke-width="3" stroke-linecap="round" stroke-linejoin="round"/>
<path d="M633.509 216.73C638.171 216.73 641.95 211.799 641.95 205.717C641.95 199.634 638.171 194.703 633.509 194.703C628.847 194.703 625.068 199.634 625.068 205.717C625.068 211.799 628.847 216.73 633.509 216.73Z" fill="#263238" stroke="#263238" stroke-linecap="round" stroke-linejoin="round"/>
<path d="M678.764 216.73C683.426 216.73 687.206 211.799 687.206 205.717C687.206 199.634 683.426 194.703 678.764 194.703C674.102 194.703 670.323 199.634 670.323 205.717C670.323 211.799 674.102 216.73 678.764 216.73Z" fill="#263238" stroke="#263238" stroke-linecap="round" stroke-linejoin="round"/>
<path d="M621.891 192.575L648.153 206.483H665.303L692.631 193.107" fill="#0073F4"/>
<path d="M597.857 471.365C597.857 471.365 598.955 487.688 597.676 490.987C596.386 494.286 591.803 499.426 589.043 498.319C586.293 497.223 587.018 490.806 587.018 486.401C587.018 481.995 585.92 475.398 585.92 474.302C585.92 473.206 597.857 471.365 597.857 471.365Z" fill="white" stroke="#263238" stroke-linejoin="round"/>
<path d="M513.198 482.357C513.198 482.357 513.56 493.541 511.546 494.275C509.532 495.01 497.957 493.722 495.931 494.094C493.906 494.456 487.479 494.829 485.092 494.094C482.705 493.36 479.582 492.073 480.498 490.242C481.415 488.412 493.171 483.453 495.74 481.804C498.308 480.154 502.902 477.036 502.902 477.036L513.187 482.357H513.198Z" fill="white" stroke="#263238" stroke-linejoin="round"/>
<path d="M573.62 346.309C573.62 346.309 574.537 352.725 574.91 363.909C575.283 375.093 571.424 398.376 571.424 398.376L576.199 425.511L594.564 467.321C594.564 467.321 598.976 468.417 597.868 471.354C596.77 474.291 592.912 477.409 590.705 477.409C588.499 477.409 585.568 476.494 584.641 475.025C583.724 473.557 583.351 469.896 583.351 469.896C583.351 469.896 551.397 427.352 550.843 425.895C550.289 424.426 545.152 401.877 545.152 401.877L531.925 419.659L513.56 474.483C513.56 474.483 514.85 476.132 514.115 478.516C513.379 480.899 512.09 484.198 512.09 484.198C512.09 484.198 510.256 484.198 507.133 483.102C504.011 482.006 500.888 479.25 500.888 479.25C500.888 479.25 500.152 477.781 500.525 475.951C500.888 474.121 501.996 473.386 501.815 471.918C501.634 470.449 508.242 418.19 509.34 414.711C510.438 411.231 535.783 358.791 535.783 358.791L537.616 345.404C537.616 345.404 553.966 352.002 573.609 346.319L573.62 346.309Z" fill="#263238" stroke="#263238" stroke-linejoin="round"/>
<path d="M547.901 232.128C547.901 232.128 555.149 229.308 561.022 230.809C566.895 232.309 576.007 240.343 575.336 245.057C574.675 249.782 563.91 260.104 563.91 260.104L564.326 269.532L545.546 277.63L542.871 265.584C542.871 265.584 535.975 263.828 536.231 262.807C536.486 261.785 538.074 252.41 538.074 252.41C538.074 252.41 535.975 251.059 537.392 248.707C538.81 246.355 541.858 243.003 541.858 243.003C541.858 243.003 540.91 239.098 547.891 232.139L547.901 232.128Z" fill="white" stroke="#263238" stroke-linecap="round" stroke-linejoin="round"/>
<path d="M542.871 265.584C542.871 265.584 547.283 265.606 548.008 265.457C548.733 265.308 553.231 262.7 553.231 262.7L545.098 274.438L542.86 265.574L542.871 265.584Z" fill="#263238" stroke="#263238" stroke-linecap="round" stroke-linejoin="round"/>
<path d="M542.956 245.408C542.498 246.132 542.359 246.877 542.658 247.058C542.956 247.249 543.574 246.813 544.033 246.089C544.491 245.366 544.629 244.621 544.331 244.44C544.033 244.248 543.414 244.685 542.956 245.408Z" fill="#263238"/>
<path d="M543.553 242.024C543.553 242.024 545.237 241.546 546.143 243.418" stroke="#263238" stroke-linecap="round" stroke-linejoin="round"/>
<path d="M539.14 255.188C539.14 255.188 540.888 255.752 542.807 254.666" stroke="#263238" stroke-linecap="round" stroke-linejoin="round"/>
<path d="M546.655 233.788L554.339 237.8C554.339 237.8 551.387 239.769 552.016 241.556L552.645 243.344L552.485 250.367L554.467 251.144C554.467 251.144 560.436 246.962 561.885 250.867C563.335 254.773 558.272 257.55 558.272 257.55C558.272 257.55 560.361 262.158 562.269 263.19C564.187 264.222 563.111 260.955 566.895 260.019C570.678 259.082 577.809 252.474 577.958 248.707C578.107 244.94 576.231 236.31 569.858 232.511C563.484 228.712 559.071 227.861 555.49 228.031C551.909 228.201 548.36 226.148 547.198 228.563C546.036 230.979 546.676 233.788 546.676 233.788H546.655Z" fill="#263238" stroke="#263238" stroke-linecap="round" stroke-linejoin="round"/>
<path d="M518.538 284.717L510.768 285.345L475.894 270.873L474.839 266.467L470.213 258.071C470.213 258.071 467.9 257.859 468.326 259.125C468.742 260.381 469.424 265.244 469.424 265.244L465.95 273.352C465.95 273.352 467.069 275.066 467.911 275.278C468.753 275.491 472.537 275.906 472.537 275.906L510.565 297.721L520.435 298.774L518.548 284.717H518.538Z" fill="white" stroke="#263238" stroke-linejoin="round"/>
<path d="M549.426 280.525L518.538 284.717L520.435 298.774L546.91 306.532L549.426 280.525Z" fill="white" stroke="#263238" stroke-linejoin="round"/>
<path d="M522.748 283.249L524.634 301.286L518.335 300.03L516.022 283.036L522.748 283.249Z" fill="white" stroke="#263238" stroke-linejoin="round"/>
<path d="M565.722 269.479C565.722 269.479 572.703 278.833 575.453 290.378C578.203 301.935 578.757 315.683 576.37 322.653C573.982 329.623 574.345 341.903 574.345 341.903C574.345 341.903 576.178 345.383 574.164 347.586C572.139 349.788 559.285 353.821 548.083 352.172C536.881 350.523 536.508 347.767 535.964 345.936C535.41 344.106 535.602 319.163 537.989 307.979C540.377 296.795 543.127 287.08 544.789 282.121C546.441 277.173 565.722 269.468 565.722 269.468V269.479Z" fill="white" stroke="#263238" stroke-linejoin="round"/>
<path d="M565.477 263.328L542.21 278.652L542.583 286.899L567.928 269.851L565.477 263.328Z" fill="white" stroke="#263238" stroke-linejoin="round"/>
<path d="M513.56 365.846L475.35 340.584L432.845 357.684L445.113 313.597L415.685 278.524L461.473 276.545L485.795 237.768L501.826 280.62L546.281 291.74L510.406 320.206L513.56 365.846Z" fill="#0073F4" stroke="#263238" stroke-linecap="round" stroke-linejoin="round"/>
<path d="M544.597 329.623L504.746 349.427C504.746 349.427 501.623 346.862 500.152 345.021C498.681 343.191 497.402 342.638 495.74 342.457C494.088 342.276 492.99 343.01 490.965 341.361C488.94 339.711 488.577 340.073 489.313 341.914C490.048 343.744 490.229 344.478 491.881 344.659C493.533 344.84 494.631 345.575 494.631 345.575C494.631 345.575 489.856 348.511 488.758 349.054C487.661 349.608 486.733 350.523 487.106 351.076C487.469 351.629 487.106 352.545 488.204 352.545H490.592C490.592 352.545 492.063 353.832 493.533 355.662C495.004 357.493 496.475 358.408 498.127 358.599C499.779 358.78 504.192 358.599 508.039 357.503C511.898 356.407 543.851 346.5 548.072 344.851C552.293 343.202 557.622 339.349 557.622 339.349L544.587 329.634L544.597 329.623Z" fill="white" stroke="#263238" stroke-linejoin="round"/>
<path d="M569.389 284.696C569.389 284.696 574.718 288.91 574.164 294.411C573.609 299.913 563.516 336.955 563.516 336.955L545.333 325.771C545.333 325.771 551.024 294.784 554.328 289.463C557.632 284.143 561.491 283.227 561.491 283.227" fill="white"/>
<path d="M569.389 284.696C569.389 284.696 574.718 288.91 574.164 294.411C573.609 299.913 563.516 336.955 563.516 336.955L545.333 325.771C545.333 325.771 551.024 294.784 554.328 289.463C557.632 284.143 561.491 283.227 561.491 283.227" stroke="#263238" stroke-linejoin="round"/>
<path d="M545.333 320.642L566.82 334.029C566.82 334.029 564.614 341.733 562.962 343.01L561.31 344.298C561.31 344.298 543.681 332.198 542.572 330.549C541.474 328.9 544.779 321.568 545.322 320.653L545.333 320.642Z" fill="white" stroke="#263238" stroke-linejoin="round"/>
<path d="M464.725 261.38L464.652 261.546C464.327 262.289 464.667 263.155 465.412 263.48L469.28 265.166C470.024 265.491 470.891 265.151 471.216 264.408L471.289 264.242C471.614 263.499 471.274 262.633 470.529 262.309L466.661 260.622C465.917 260.298 465.05 260.637 464.725 261.38Z" fill="white" stroke="#263238" stroke-linejoin="round"/>
<path d="M463.4 264.693L463.473 264.527C463.798 263.786 464.668 263.446 465.41 263.77L468.271 265.019C469.013 265.343 469.354 266.212 469.029 266.953L468.957 267.119C468.632 267.86 467.762 268.2 467.02 267.876L464.159 266.627C463.416 266.303 463.076 265.434 463.4 264.693Z" fill="white" stroke="#263238" stroke-linejoin="round"/>
<path d="M461.863 267.646L461.791 267.812C461.465 268.555 461.805 269.421 462.55 269.746L465.412 270.993C466.156 271.318 467.023 270.978 467.348 270.235L467.421 270.069C467.746 269.326 467.406 268.46 466.661 268.136L463.8 266.888C463.055 266.564 462.188 266.903 461.863 267.646Z" fill="white" stroke="#263238" stroke-linejoin="round"/>
<path d="M461.196 270.896L461.123 271.062C460.798 271.805 461.138 272.671 461.882 272.995L464.051 273.941C464.795 274.266 465.662 273.926 465.987 273.183L466.06 273.018C466.385 272.274 466.045 271.409 465.301 271.084L463.133 270.138C462.388 269.813 461.521 270.153 461.196 270.896Z" fill="white" stroke="#263238" stroke-linejoin="round"/>
<path d="M227.15 260.147C227.15 260.147 229.26 257.954 230.252 254.102C231.243 250.25 228.578 246.536 222.993 245.036C217.408 243.546 200.28 242.578 192.702 248.388C185.114 254.198 193.939 268 192.852 271.288C191.764 274.576 182.513 277.364 183.952 289.421C185.391 301.466 196.294 305.84 205.364 302.733C214.435 299.626 224.208 291.368 227.853 286.686C231.499 281.993 227.161 260.157 227.161 260.157L227.15 260.147Z" fill="#263238" stroke="#263238" stroke-linecap="round" stroke-linejoin="round"/>
<path d="M185.241 410.295L187.735 425.969L152.691 457.159L155.622 463.107C155.622 463.107 207.528 440.207 208.914 438.547C210.299 436.887 209.105 412.338 209.105 412.338L185.241 410.284V410.295Z" fill="#0073F4" stroke="#263238" stroke-linecap="round" stroke-linejoin="round"/>
<path d="M152.68 457.169C152.68 457.169 145.006 461.82 145.475 464.139C145.944 466.459 151.391 469.481 152.382 471.003C153.384 472.525 152.861 476.76 156.848 479.399C160.834 482.038 162.55 482.027 162.017 479.388C161.484 476.739 155.611 463.128 155.611 463.128L152.68 457.18V457.169Z" fill="#263238" stroke="#263238" stroke-linecap="round" stroke-linejoin="round"/>
<path d="M188.897 329.038C188.897 329.038 169.787 340.871 167.122 359.738C164.458 378.605 176.885 398.685 181.18 407.07C185.476 415.456 197.648 432.439 197.648 432.439L200.962 486.209L205.727 483.208C205.727 483.208 214.093 438.558 214.136 427.81C214.179 417.062 209.905 404.229 209.905 404.229C209.905 404.229 213.113 378.03 211.994 370.667C210.875 363.303 211.557 352.981 211.557 352.981L188.897 329.049V329.038Z" fill="#0073F4" stroke="#263238" stroke-linecap="round" stroke-linejoin="round"/>
<path d="M208.945 403.112C208.945 403.112 198.777 371.284 194.407 362.537" stroke="#283469" stroke-miterlimit="10" stroke-linecap="round"/>
<path d="M200.962 486.209C200.962 486.209 200.344 495.041 201.879 495.286C203.414 495.531 217.461 485.283 218.858 483.889C220.254 482.495 219.177 481.793 217.707 481.899C216.236 482.006 205.737 483.208 205.737 483.208L200.973 486.209H200.962Z" fill="#263238" stroke="#263238" stroke-linecap="round" stroke-linejoin="round"/>
<path d="M302.845 333.177L294.766 331.666C296.109 331.496 297.452 331.336 298.806 331.219C299.275 331.177 300.682 331.571 300.948 331.017C301.758 329.261 297.633 329.304 297.175 329.24C296.333 329.123 295.491 329.006 294.649 328.889L289.085 327.271C289.085 327.271 292.944 326.101 293.807 325.047C294.67 323.994 293.551 322.44 292.027 323.334C290.503 324.228 287.892 324.196 286.336 324.473C284.779 324.76 281.433 328.538 281.433 328.538L279.781 329.581L252.399 319.078L247.529 311.586L238.448 316.364L245.344 328.804L276.796 336.019L276.839 335.923C278.075 336.114 280.452 336.466 282.126 336.487C283.127 336.497 287.604 337.466 289.32 337.53C291.068 338.285 296.461 340.541 296.845 340.488C297.324 340.435 297.804 340.126 297.676 339.871C297.58 339.669 293.754 337.476 292.912 336.742L294.777 337.04C295.885 337.455 299.126 338.647 299.829 338.562C301.279 338.392 300.042 337.232 300.042 337.232L293.242 334.114L294.724 334.188C295.853 334.263 302.355 334.699 302.931 334.369C303.559 333.997 302.824 333.167 302.824 333.167L302.845 333.177Z" fill="white" stroke="#263238" stroke-miterlimit="10" stroke-linecap="round"/>
<path d="M289.085 327.282L287.668 328.506C287.668 328.506 287.369 331.73 285.973 332.645C284.577 333.56 283.149 332.273 283.149 332.273" fill="white"/>
<path d="M289.085 327.282L287.668 328.506C287.668 328.506 287.369 331.73 285.973 332.645C284.577 333.56 283.149 332.273 283.149 332.273" stroke="#263238" stroke-miterlimit="10" stroke-linecap="round"/>
<path d="M223.068 285.153C223.068 285.153 234.899 289.197 240.1 295.635C245.301 302.084 251.323 315.3 251.323 315.3L237.222 319.823C237.222 319.823 233.641 300.828 229.037 294.55C224.421 288.261 223.068 285.153 223.068 285.153Z" fill="white" stroke="#263238" stroke-miterlimit="10" stroke-linecap="round"/>
<path d="M210.608 286.739C210.608 286.739 200.408 292.283 197.413 301.158C194.418 310.033 181.671 335.242 181.671 335.242C181.671 335.242 185.551 343.595 195.783 348.926C206.014 354.258 211.962 355.662 211.962 355.662C211.962 355.662 227.246 336.466 228.077 334.125C228.909 331.783 239.78 321.621 240.59 312.746C241.4 303.882 231.413 293.283 228.472 289.527C225.53 285.771 214.552 284.643 210.619 286.75L210.608 286.739Z" fill="white" stroke="#263238" stroke-miterlimit="10" stroke-linecap="round"/>
<path d="M214.978 284.579C214.978 284.579 210.054 289.357 209.702 292.209C209.351 295.06 215.703 310.81 217.515 309.703C219.327 308.596 220.627 301.296 220.627 301.296C220.627 301.296 228.631 306.904 230.22 301.945C231.808 296.997 224.933 285.983 222.578 284.419C220.222 282.855 215.799 283.94 215.799 283.94" fill="white"/>
<path d="M214.978 284.579C214.978 284.579 210.054 289.357 209.702 292.209C209.351 295.06 215.703 310.81 217.515 309.703C219.327 308.596 220.627 301.296 220.627 301.296C220.627 301.296 228.631 306.904 230.22 301.945C231.808 296.997 224.933 285.983 222.578 284.419C220.222 282.855 215.799 283.94 215.799 283.94" stroke="#263238" stroke-miterlimit="10" stroke-linecap="round"/>
<path d="M208.573 282.546C208.573 282.546 211.525 291.687 213.742 294.209C215.959 296.721 221.235 302.935 222.247 301.764C223.26 300.594 223.078 285.164 223.078 285.164L208.583 282.546H208.573Z" fill="white" stroke="#263238" stroke-miterlimit="10" stroke-linecap="round"/>
<path d="M220.744 287.505L211.354 289.176L208.573 282.546L220.744 287.505Z" fill="#263238" stroke="#263238" stroke-linecap="round" stroke-linejoin="round"/>
<path d="M209.361 256.443L203.552 276.811C203.552 276.811 201.314 273.491 199.95 276.3C198.596 279.109 201.74 282.568 204.128 283.536C206.526 284.504 208.562 282.557 208.562 282.557C208.562 282.557 214.36 287.452 218.719 288.58C223.078 289.708 225.903 289.197 227.843 286.686C229.782 284.174 232.095 276.694 230.731 270.82C229.367 264.946 227.15 260.157 227.15 260.157L209.35 256.454L209.361 256.443Z" fill="white" stroke="#263238" stroke-miterlimit="10" stroke-linecap="round"/>
<path d="M222.993 262.009C222.993 262.009 221.341 263.53 223.302 267.84C225.253 272.15 228.482 275.768 227.693 276.204C226.905 276.64 223.963 276.587 223.963 276.587" stroke="#283469" stroke-linecap="round" stroke-linejoin="round"/>
<path d="M223.302 280.684C223.302 280.684 220.893 281.589 217.344 278.151" stroke="#283469" stroke-linecap="round" stroke-linejoin="round"/>
<path d="M211.578 267.649C211.578 267.649 211.855 264.392 215.5 263.839" stroke="#283469" stroke-linecap="round" stroke-linejoin="round"/>
<path d="M217.184 270.681C217.6 271.426 217.536 272.246 217.056 272.512C216.577 272.778 215.852 272.384 215.436 271.639C215.021 270.894 215.085 270.075 215.564 269.809C216.044 269.543 216.769 269.936 217.184 270.681Z" fill="#263238"/>
<path d="M226.798 265.722C227.214 266.467 227.15 267.287 226.67 267.553C226.19 267.819 225.466 267.425 225.05 266.68C224.634 265.935 224.698 265.116 225.178 264.85C225.658 264.584 226.382 264.978 226.798 265.722Z" fill="#263238"/>
<path d="M318.193 401.888L275.475 378.435L231.914 400.27L241.048 352.459L206.782 317.833L255.149 311.746L277.543 268.51L298.294 312.555L346.406 320.45L310.86 353.768L318.193 401.888Z" fill="#0073F4" stroke="#263238" stroke-linecap="round" stroke-linejoin="round"/>
<path d="M289.267 348.799L279.184 347.49C280.879 347.256 282.573 347.032 284.279 346.862C284.875 346.798 286.623 347.171 286.975 346.564C288.062 344.649 282.882 344.861 282.307 344.819C281.252 344.723 280.207 344.638 279.152 344.542L272.235 343.031C272.235 343.031 277.127 341.627 278.257 340.467C279.386 339.296 278.043 337.689 276.093 338.711C274.143 339.732 270.87 339.786 268.909 340.158C266.948 340.52 262.6 344.691 262.6 344.691L260.489 345.872L226.521 335.71L220.702 327.878L209.105 333.348L217.28 346.394L256.492 352.885L256.546 352.789C258.08 352.949 261.054 353.226 263.164 353.183C264.422 353.162 269.996 354.024 272.16 354.013C274.324 354.747 281.006 356.95 281.497 356.886C282.104 356.812 282.712 356.46 282.573 356.184C282.467 355.971 277.745 353.768 276.711 353.023L279.045 353.279C280.42 353.683 284.438 354.832 285.334 354.715C287.167 354.481 285.643 353.289 285.643 353.289L277.233 350.214L279.088 350.235C280.495 350.278 288.648 350.491 289.395 350.108C290.205 349.682 289.299 348.82 289.299 348.82L289.267 348.799Z" fill="white" stroke="#263238" stroke-miterlimit="10" stroke-linecap="round"/>
<path d="M199.023 302.956C199.023 302.956 196.593 304.489 198.362 311.735C200.131 318.982 208.892 336.221 208.892 336.221L223.729 329.006C223.729 329.006 216.993 310.15 217.227 305.404C217.504 299.604 206.793 293.911 203.488 296.901" fill="white"/>
<path d="M199.023 302.956C199.023 302.956 196.593 304.489 198.362 311.735C200.131 318.982 208.892 336.221 208.892 336.221L223.729 329.006C223.729 329.006 216.993 310.15 217.227 305.404C217.504 299.604 206.793 293.911 203.488 296.901" stroke="#263238" stroke-miterlimit="10" stroke-linecap="round"/>
</g>
<defs>
<clipPath id="clip0_3_2591">
<rect width="742" height="499" fill="white"/>
</clipPath>
</defs>
</svg>
