<?xml version="1.0" standalone="no"?>
<!DOCTYPE svg PUBLIC "-//W3C//DTD SVG 20010904//EN"
 "http://www.w3.org/TR/2001/REC-SVG-20010904/DTD/svg10.dtd">
<svg version="1.0" xmlns="http://www.w3.org/2000/svg"
 width="32.000000pt" height="32.000000pt" viewBox="0 0 32.000000 32.000000"
 preserveAspectRatio="xMidYMid meet">

<g transform="translate(0.000000,32.000000) scale(0.100000,-0.100000)"
fill="#000000" stroke="none">
<path d="M71 236 c-13 -14 -33 -26 -45 -28 -13 -2 -22 -12 -24 -26 -4 -25 15
-55 29 -46 5 3 12 -2 15 -10 7 -18 50 -22 56 -5 2 7 28 12 63 12 35 0 61 -5
63 -12 6 -19 40 -12 67 13 36 34 29 58 -21 71 -22 5 -53 20 -68 33 -40 31
-105 30 -135 -2z m39 -11 c0 -9 -9 -15 -21 -15 -18 0 -19 2 -9 15 7 8 16 15
21 15 5 0 9 -7 9 -15z m90 0 c11 -13 7 -15 -29 -15 -30 0 -41 4 -41 15 0 20
53 20 70 0z m-100 -55 c24 -15 7 -18 -20 -3 -14 7 -18 13 -10 13 8 0 22 -4 30
-10z m180 0 c24 -15 7 -18 -20 -3 -14 7 -18 13 -10 13 8 0 22 -4 30 -10z
m-190 -30 c0 -5 -7 -10 -15 -10 -8 0 -15 5 -15 10 0 6 7 10 15 10 8 0 15 -4
15 -10z m180 0 c0 -5 -7 -10 -15 -10 -8 0 -15 5 -15 10 0 6 7 10 15 10 8 0 15
-4 15 -10z"/>
</g>
</svg>
