<svg width="807" height="456" viewBox="0 0 807 456" fill="none" xmlns="http://www.w3.org/2000/svg">
<g clip-path="url(#clip0_3_2059)">
<path d="M555.089 422.173H650.555V18.3489H555.089V422.173Z" fill="#EBEBEB"/>
<path d="M603.74 102.584H632.761V46.6529L603.74 46.6529V102.584Z" fill="white"/>
<path d="M617.436 102.595C617.654 102.595 617.826 90.0793 617.826 74.6355C617.826 59.1917 617.654 46.6644 617.436 46.6644C617.218 46.6644 617.045 59.1802 617.045 74.6355C617.045 90.0908 617.218 102.595 617.436 102.595Z" fill="#E0E0E0"/>
<path d="M603.74 66.0926C603.74 66.3108 610.238 66.483 618.251 66.483C626.263 66.483 632.761 66.3108 632.761 66.0926C632.761 65.8744 626.263 65.7022 618.251 65.7022C610.238 65.7022 603.74 65.8744 603.74 66.0926Z" fill="#E0E0E0"/>
<path d="M603.591 86.0949C603.591 86.3131 610.146 86.4853 618.216 86.4853C626.286 86.4853 632.841 86.3131 632.841 86.0949C632.841 85.8768 626.298 85.7045 618.216 85.7045C610.135 85.7045 603.591 85.8768 603.591 86.0949Z" fill="#E0E0E0"/>
<path d="M603.74 175.646H632.761V119.715H603.74V175.646Z" fill="white"/>
<path d="M617.436 175.646C617.654 175.646 617.826 163.13 617.826 147.686C617.826 132.243 617.654 119.715 617.436 119.715C617.218 119.715 617.045 132.231 617.045 147.686C617.045 163.142 617.218 175.646 617.436 175.646Z" fill="#E0E0E0"/>
<path d="M603.74 139.144C603.74 139.362 610.238 139.534 618.251 139.534C626.263 139.534 632.761 139.362 632.761 139.144C632.761 138.925 626.263 138.753 618.251 138.753C610.238 138.753 603.74 138.925 603.74 139.144Z" fill="#E0E0E0"/>
<path d="M603.591 159.146C603.591 159.364 610.146 159.536 618.216 159.536C626.286 159.536 632.841 159.364 632.841 159.146C632.841 158.928 626.298 158.755 618.216 158.755C610.135 158.755 603.591 158.928 603.591 159.146Z" fill="#E0E0E0"/>
<path d="M603.74 248.708H632.761V192.778H603.74V248.708Z" fill="white"/>
<path d="M617.436 248.697C617.654 248.697 617.826 236.181 617.826 220.737C617.826 205.294 617.654 192.766 617.436 192.766C617.218 192.766 617.045 205.282 617.045 220.737C617.045 236.193 617.218 248.697 617.436 248.697Z" fill="#E0E0E0"/>
<path d="M603.74 212.206C603.74 212.424 610.238 212.596 618.251 212.596C626.263 212.596 632.761 212.424 632.761 212.206C632.761 211.988 626.263 211.816 618.251 211.816C610.238 211.816 603.74 211.988 603.74 212.206Z" fill="#E0E0E0"/>
<path d="M603.591 232.208C603.591 232.426 610.146 232.599 618.216 232.599C626.286 232.599 632.841 232.426 632.841 232.208C632.841 231.99 626.298 231.818 618.216 231.818C610.135 231.818 603.591 231.99 603.591 232.208Z" fill="#E0E0E0"/>
<path d="M603.74 321.759H632.761V265.829H603.74V321.759Z" fill="white"/>
<path d="M617.436 321.759C617.654 321.759 617.826 309.244 617.826 293.8C617.826 278.356 617.654 265.829 617.436 265.829C617.218 265.829 617.045 278.345 617.045 293.8C617.045 309.255 617.218 321.759 617.436 321.759Z" fill="#E0E0E0"/>
<path d="M603.74 285.257C603.74 285.475 610.238 285.647 618.251 285.647C626.263 285.647 632.761 285.475 632.761 285.257C632.761 285.039 626.263 284.867 618.251 284.867C610.238 284.867 603.74 285.039 603.74 285.257Z" fill="#E0E0E0"/>
<path d="M603.591 305.259C603.591 305.477 610.146 305.65 618.216 305.65C626.286 305.65 632.841 305.477 632.841 305.259C632.841 305.041 626.298 304.869 618.216 304.869C610.135 304.869 603.591 305.041 603.591 305.259Z" fill="#E0E0E0"/>
<path d="M514.486 422.173H584.041V18.3489H514.486V422.173Z" fill="#E0E0E0"/>
<path d="M533.416 102.584H562.436V46.6529L533.416 46.6529V102.584Z" fill="white"/>
<path d="M547.111 102.595C547.329 102.595 547.501 90.0793 547.501 74.6355C547.501 59.1917 547.329 46.6644 547.111 46.6644C546.893 46.6644 546.721 59.1802 546.721 74.6355C546.721 90.0908 546.893 102.595 547.111 102.595Z" fill="#E0E0E0"/>
<path d="M533.427 66.0926C533.427 66.3108 539.925 66.483 547.938 66.483C555.95 66.483 562.448 66.3108 562.448 66.0926C562.448 65.8744 555.95 65.7022 547.938 65.7022C539.925 65.7022 533.427 65.8744 533.427 66.0926Z" fill="#E0E0E0"/>
<path d="M533.266 86.0949C533.266 86.3131 539.821 86.4853 547.892 86.4853C555.962 86.4853 562.517 86.3131 562.517 86.0949C562.517 85.8768 555.973 85.7045 547.892 85.7045C539.81 85.7045 533.266 85.8768 533.266 86.0949Z" fill="#E0E0E0"/>
<path d="M533.416 176.255H562.436V120.324H533.416V176.255Z" fill="white"/>
<path d="M547.111 176.243C547.329 176.243 547.501 163.727 547.501 148.284C547.501 132.84 547.329 120.312 547.111 120.312C546.893 120.312 546.721 132.828 546.721 148.284C546.721 163.739 546.893 176.243 547.111 176.243Z" fill="#E0E0E0"/>
<path d="M533.427 139.752C533.427 139.97 539.925 140.143 547.938 140.143C555.95 140.143 562.448 139.97 562.448 139.752C562.448 139.534 555.95 139.362 547.938 139.362C539.925 139.362 533.427 139.534 533.427 139.752Z" fill="#E0E0E0"/>
<path d="M533.266 159.754C533.266 159.973 539.821 160.145 547.892 160.145C555.962 160.145 562.517 159.973 562.517 159.754C562.517 159.536 555.973 159.364 547.892 159.364C539.81 159.364 533.266 159.536 533.266 159.754Z" fill="#E0E0E0"/>
<path d="M533.416 249.903H562.436V193.972H533.416V249.903Z" fill="white"/>
<path d="M547.111 249.903C547.329 249.903 547.501 237.387 547.501 221.943C547.501 206.499 547.329 193.972 547.111 193.972C546.893 193.972 546.721 206.488 546.721 221.943C546.721 237.398 546.893 249.903 547.111 249.903Z" fill="#E0E0E0"/>
<path d="M533.427 213.4C533.427 213.618 539.925 213.791 547.938 213.791C555.95 213.791 562.448 213.618 562.448 213.4C562.448 213.182 555.95 213.01 547.938 213.01C539.925 213.01 533.427 213.182 533.427 213.4Z" fill="#E0E0E0"/>
<path d="M533.266 233.402C533.266 233.621 539.821 233.793 547.892 233.793C555.962 233.793 562.517 233.621 562.517 233.402C562.517 233.184 555.973 233.012 547.892 233.012C539.81 233.012 533.266 233.184 533.266 233.402Z" fill="#E0E0E0"/>
<path d="M533.416 323.562H562.436V267.631H533.416V323.562Z" fill="white"/>
<path d="M547.111 323.551C547.329 323.551 547.501 311.035 547.501 295.591C547.501 280.147 547.329 267.62 547.111 267.62C546.893 267.62 546.721 280.136 546.721 295.591C546.721 311.046 546.893 323.551 547.111 323.551Z" fill="#E0E0E0"/>
<path d="M533.427 287.06C533.427 287.278 539.925 287.45 547.938 287.45C555.95 287.45 562.448 287.278 562.448 287.06C562.448 286.841 555.95 286.669 547.938 286.669C539.925 286.669 533.427 286.841 533.427 287.06Z" fill="#E0E0E0"/>
<path d="M533.266 307.062C533.266 307.28 539.821 307.452 547.892 307.452C555.962 307.452 562.517 307.28 562.517 307.062C562.517 306.844 555.973 306.672 547.892 306.672C539.81 306.672 533.266 306.844 533.266 307.062Z" fill="#E0E0E0"/>
<path d="M603.74 394.81H632.761V338.88H603.74V394.81Z" fill="white"/>
<path d="M617.436 394.81C617.654 394.81 617.826 382.295 617.826 366.851C617.826 351.407 617.654 338.88 617.436 338.88C617.218 338.88 617.045 351.395 617.045 366.851C617.045 382.306 617.218 394.81 617.436 394.81Z" fill="#E0E0E0"/>
<path d="M603.74 358.319C603.74 358.537 610.238 358.71 618.251 358.71C626.263 358.71 632.761 358.537 632.761 358.319C632.761 358.101 626.263 357.929 618.251 357.929C610.238 357.929 603.74 358.101 603.74 358.319Z" fill="#E0E0E0"/>
<path d="M603.591 378.322C603.591 378.54 610.146 378.712 618.216 378.712C626.286 378.712 632.841 378.54 632.841 378.322C632.841 378.103 626.298 377.931 618.216 377.931C610.135 377.931 603.591 378.103 603.591 378.322Z" fill="#E0E0E0"/>
<path d="M533.416 397.21H562.436V341.279H533.416V397.21Z" fill="white"/>
<path d="M547.111 397.21C547.329 397.21 547.501 384.694 547.501 369.251C547.501 353.807 547.329 341.279 547.111 341.279C546.893 341.279 546.721 353.795 546.721 369.251C546.721 384.706 546.893 397.21 547.111 397.21Z" fill="#E0E0E0"/>
<path d="M533.427 360.708C533.427 360.926 539.925 361.098 547.938 361.098C555.95 361.098 562.448 360.926 562.448 360.708C562.448 360.49 555.95 360.317 547.938 360.317C539.925 360.317 533.427 360.49 533.427 360.708Z" fill="#E0E0E0"/>
<path d="M533.266 380.71C533.266 380.928 539.821 381.1 547.892 381.1C555.962 381.1 562.517 380.928 562.517 380.71C562.517 380.492 555.973 380.32 547.892 380.32C539.81 380.32 533.266 380.492 533.266 380.71Z" fill="#E0E0E0"/>
<path d="M678.152 422.173H743.047V147.675H678.152V422.173Z" fill="#EBEBEB"/>
<path d="M711.225 204.938H730.947V166.919H711.225V204.938Z" fill="white"/>
<path d="M720.535 204.938C720.684 204.938 720.799 196.429 720.799 185.934C720.799 175.439 720.684 166.919 720.535 166.919C720.386 166.919 720.271 175.428 720.271 185.934C720.271 196.441 720.386 204.938 720.535 204.938Z" fill="#E0E0E0"/>
<path d="M711.225 180.136C711.225 180.285 715.645 180.4 721.086 180.4C726.527 180.4 730.947 180.285 730.947 180.136C730.947 179.986 726.527 179.872 721.086 179.872C715.645 179.872 711.225 179.986 711.225 180.136Z" fill="#E0E0E0"/>
<path d="M711.122 193.731C711.122 193.88 715.576 193.995 721.063 193.995C726.55 193.995 731.004 193.88 731.004 193.731C731.004 193.582 726.55 193.467 721.063 193.467C715.576 193.467 711.122 193.582 711.122 193.731Z" fill="#E0E0E0"/>
<path d="M711.225 254.599H730.947V216.581H711.225V254.599Z" fill="white"/>
<path d="M720.535 254.599C720.684 254.599 720.799 246.09 720.799 235.596C720.799 225.101 720.684 216.581 720.535 216.581C720.386 216.581 720.271 225.089 720.271 235.596C720.271 246.102 720.386 254.599 720.535 254.599Z" fill="#E0E0E0"/>
<path d="M711.225 229.785C711.225 229.935 715.645 230.05 721.086 230.05C726.527 230.05 730.947 229.935 730.947 229.785C730.947 229.636 726.527 229.521 721.086 229.521C715.645 229.521 711.225 229.636 711.225 229.785Z" fill="#E0E0E0"/>
<path d="M711.122 243.381C711.122 243.53 715.576 243.645 721.063 243.645C726.55 243.645 731.004 243.53 731.004 243.381C731.004 243.231 726.55 243.117 721.063 243.117C715.576 243.117 711.122 243.231 711.122 243.381Z" fill="#E0E0E0"/>
<path d="M711.225 304.26H730.947V266.242H711.225V304.26Z" fill="white"/>
<path d="M720.535 304.26C720.684 304.26 720.799 295.752 720.799 285.257C720.799 274.762 720.684 266.242 720.535 266.242C720.386 266.242 720.271 274.751 720.271 285.257C720.271 295.763 720.386 304.26 720.535 304.26Z" fill="#E0E0E0"/>
<path d="M711.225 279.447C711.225 279.596 715.645 279.711 721.086 279.711C726.527 279.711 730.947 279.596 730.947 279.447C730.947 279.298 726.527 279.183 721.086 279.183C715.645 279.183 711.225 279.298 711.225 279.447Z" fill="#E0E0E0"/>
<path d="M711.122 293.042C711.122 293.191 715.576 293.306 721.063 293.306C726.55 293.306 731.004 293.191 731.004 293.042C731.004 292.893 726.55 292.778 721.063 292.778C715.576 292.778 711.122 292.893 711.122 293.042Z" fill="#E0E0E0"/>
<path d="M711.225 353.91H730.947V315.892H711.225V353.91Z" fill="white"/>
<path d="M720.535 353.922C720.684 353.922 720.799 345.413 720.799 334.918C720.799 324.423 720.684 315.903 720.535 315.903C720.386 315.903 720.271 324.412 720.271 334.918C720.271 345.425 720.386 353.922 720.535 353.922Z" fill="#E0E0E0"/>
<path d="M711.225 329.108C711.225 329.257 715.645 329.372 721.086 329.372C726.527 329.372 730.947 329.257 730.947 329.108C730.947 328.959 726.527 328.844 721.086 328.844C715.645 328.844 711.225 328.959 711.225 329.108Z" fill="#E0E0E0"/>
<path d="M711.122 342.703C711.122 342.853 715.576 342.967 721.063 342.967C726.55 342.967 731.004 342.853 731.004 342.703C731.004 342.554 726.55 342.439 721.063 342.439C715.576 342.439 711.122 342.554 711.122 342.703Z" fill="#E0E0E0"/>
<path d="M650.543 422.173H697.828V147.675H650.543V422.173Z" fill="#E0E0E0"/>
<path d="M663.435 204.938H683.157V166.919H663.435V204.938Z" fill="white"/>
<path d="M672.733 204.938C672.883 204.938 672.997 196.429 672.997 185.934C672.997 175.439 672.883 166.919 672.733 166.919C672.584 166.919 672.469 175.428 672.469 185.934C672.469 196.441 672.584 204.938 672.733 204.938Z" fill="#E0E0E0"/>
<path d="M663.423 180.136C663.423 180.285 667.843 180.4 673.284 180.4C678.726 180.4 683.146 180.285 683.146 180.136C683.146 179.986 678.726 179.872 673.284 179.872C667.843 179.872 663.423 179.986 663.423 180.136Z" fill="#E0E0E0"/>
<path d="M663.32 193.731C663.32 193.88 667.774 193.995 673.261 193.995C678.749 193.995 683.203 193.88 683.203 193.731C683.203 193.582 678.749 193.467 673.261 193.467C667.774 193.467 663.32 193.582 663.32 193.731Z" fill="#E0E0E0"/>
<path d="M663.435 255.012H683.157V216.994H663.435V255.012Z" fill="white"/>
<path d="M672.733 255.001C672.883 255.001 672.997 246.492 672.997 235.997C672.997 225.503 672.883 216.983 672.733 216.983C672.584 216.983 672.469 225.491 672.469 235.997C672.469 246.504 672.584 255.001 672.733 255.001Z" fill="#E0E0E0"/>
<path d="M663.423 230.199C663.423 230.348 667.843 230.463 673.284 230.463C678.726 230.463 683.146 230.348 683.146 230.199C683.146 230.05 678.726 229.935 673.284 229.935C667.843 229.935 663.423 230.05 663.423 230.199Z" fill="#E0E0E0"/>
<path d="M663.32 243.794C663.32 243.943 667.774 244.058 673.261 244.058C678.749 244.058 683.203 243.943 683.203 243.794C683.203 243.645 678.749 243.53 673.261 243.53C667.774 243.53 663.32 243.645 663.32 243.794Z" fill="#E0E0E0"/>
<path d="M663.435 305.064H683.157V267.046H663.435V305.064Z" fill="white"/>
<path d="M672.733 305.076C672.883 305.076 672.997 296.567 672.997 286.072C672.997 275.577 672.883 267.057 672.733 267.057C672.584 267.057 672.469 275.566 672.469 286.072C672.469 296.579 672.584 305.076 672.733 305.076Z" fill="#E0E0E0"/>
<path d="M663.423 280.262C663.423 280.411 667.843 280.526 673.284 280.526C678.726 280.526 683.146 280.411 683.146 280.262C683.146 280.113 678.726 279.998 673.284 279.998C667.843 279.998 663.423 280.113 663.423 280.262Z" fill="#E0E0E0"/>
<path d="M663.32 293.857C663.32 294.007 667.774 294.121 673.261 294.121C678.749 294.121 683.203 294.007 683.203 293.857C683.203 293.708 678.749 293.593 673.261 293.593C667.774 293.593 663.32 293.708 663.32 293.857Z" fill="#E0E0E0"/>
<path d="M663.435 355.139H683.157V317.121H663.435V355.139Z" fill="white"/>
<path d="M672.733 355.139C672.883 355.139 672.997 346.63 672.997 336.135C672.997 325.64 672.883 317.121 672.733 317.121C672.584 317.121 672.469 325.629 672.469 336.135C672.469 346.642 672.584 355.139 672.733 355.139Z" fill="#E0E0E0"/>
<path d="M663.423 330.325C663.423 330.475 667.843 330.589 673.284 330.589C678.726 330.589 683.146 330.475 683.146 330.325C683.146 330.176 678.726 330.061 673.284 330.061C667.843 330.061 663.423 330.176 663.423 330.325Z" fill="#E0E0E0"/>
<path d="M663.32 343.92C663.32 344.07 667.774 344.185 673.261 344.185C678.749 344.185 683.203 344.07 683.203 343.92C683.203 343.771 678.749 343.656 673.261 343.656C667.774 343.656 663.32 343.771 663.32 343.92Z" fill="#E0E0E0"/>
<path d="M711.225 403.583H730.947V365.565H711.225V403.583Z" fill="white"/>
<path d="M720.535 403.571C720.684 403.571 720.799 395.063 720.799 384.568C720.799 374.073 720.684 365.553 720.535 365.553C720.386 365.553 720.271 374.062 720.271 384.568C720.271 395.074 720.386 403.571 720.535 403.571Z" fill="#E0E0E0"/>
<path d="M711.225 378.769C711.225 378.919 715.645 379.034 721.086 379.034C726.527 379.034 730.947 378.919 730.947 378.769C730.947 378.62 726.527 378.505 721.086 378.505C715.645 378.505 711.225 378.62 711.225 378.769Z" fill="#E0E0E0"/>
<path d="M711.122 392.365C711.122 392.514 715.576 392.629 721.063 392.629C726.55 392.629 731.004 392.514 731.004 392.365C731.004 392.215 726.55 392.101 721.063 392.101C715.576 392.101 711.122 392.215 711.122 392.365Z" fill="#E0E0E0"/>
<path d="M663.435 405.213H683.157V367.195H663.435V405.213Z" fill="white"/>
<path d="M672.733 405.202C672.883 405.202 672.997 396.693 672.997 386.199C672.997 375.704 672.883 367.184 672.733 367.184C672.584 367.184 672.469 375.692 672.469 386.199C672.469 396.705 672.584 405.202 672.733 405.202Z" fill="#E0E0E0"/>
<path d="M663.423 380.4C663.423 380.549 667.843 380.664 673.284 380.664C678.726 380.664 683.146 380.549 683.146 380.4C683.146 380.251 678.726 380.136 673.284 380.136C667.843 380.136 663.423 380.251 663.423 380.4Z" fill="#E0E0E0"/>
<path d="M663.32 393.995C663.32 394.144 667.774 394.259 673.261 394.259C678.749 394.259 683.203 394.144 683.203 393.995C683.203 393.846 678.749 393.731 673.261 393.731C667.774 393.731 663.32 393.846 663.32 393.995Z" fill="#E0E0E0"/>
<path d="M292.457 446.963H442.095L418.779 455.483H265.411L292.457 446.963Z" fill="#E0E0E0"/>
<path d="M82.1717 446.963H231.798L208.494 455.483H55.1255L82.1717 446.963Z" fill="#E0E0E0"/>
<path d="M488.588 455.839L508.757 447.331H659.761L638.225 456L488.588 455.839Z" fill="#E0E0E0"/>
<path d="M294.787 59.628C295.373 55.3566 289.346 51.843 284.811 51.4755C282.653 51.3033 280.403 51.6363 278.36 50.9129C273.929 49.3628 272.149 43.6331 267.833 41.8074C264.596 40.441 260.876 41.6581 257.742 43.2312C254.608 44.8043 251.509 46.7907 248.007 47.0204C244.965 47.2156 241.648 46.0903 238.984 47.5715C236.998 48.6853 235.954 50.9703 234.128 52.3252C232.338 53.6457 229.996 53.9213 227.78 54.0476C225.553 54.1739 223.257 54.1854 221.237 55.1155C219.216 56.0455 217.54 58.1813 217.953 60.3744L294.799 59.6165L294.787 59.628Z" fill="#F5F5F5"/>
<path d="M449.419 18.4063C450.004 14.1348 443.977 10.6212 439.443 10.2538C437.285 10.0815 435.035 10.4145 432.991 9.69113C428.56 8.14101 426.781 2.4113 422.464 0.585601C419.227 -0.780803 415.508 0.43633 412.374 2.00942C409.24 3.5825 406.14 5.56896 402.639 5.7986C399.597 5.9938 396.279 4.86853 393.616 6.34976C391.63 7.46355 390.585 9.74854 388.76 11.1035C386.969 12.4239 384.627 12.6995 382.412 12.8258C380.185 12.9521 377.889 12.9636 375.868 13.8937C373.848 14.8238 372.172 16.9595 372.585 19.1526L449.43 18.3948L449.419 18.4063Z" fill="#F5F5F5"/>
<path d="M791.56 100.815C792.34 95.166 784.373 90.5271 778.381 90.0449C775.523 89.8152 772.561 90.2515 769.852 89.31C763.997 87.2661 761.655 79.6992 755.938 77.2879C751.668 75.4852 746.743 77.0927 742.599 79.171C738.455 81.2608 734.356 83.8788 729.73 84.1774C725.701 84.43 721.327 82.9373 717.803 84.9122C715.174 86.382 713.808 89.4018 711.386 91.1931C709.021 92.9384 705.933 93.3059 702.994 93.4666C700.055 93.6274 697.013 93.6503 694.338 94.8789C691.663 96.1076 689.448 98.9322 690.01 101.826L791.56 100.827V100.815Z" fill="#EBEBEB"/>
<path d="M156.996 35.5954C157.857 29.349 149.041 24.2049 142.417 23.6767C139.26 23.4241 135.977 23.9063 132.981 22.8614C126.495 20.5994 123.912 12.2173 117.575 9.55334C112.845 7.55541 107.404 9.33518 102.812 11.6431C98.2318 13.9511 93.6973 16.8561 88.5659 17.1891C84.1117 17.4762 79.2673 15.8227 75.3757 18.0044C72.4713 19.6234 70.9445 22.9763 68.2697 24.9512C65.6524 26.8803 62.2314 27.2936 58.9827 27.4659C55.7339 27.6381 52.3704 27.6726 49.4086 29.0275C46.4468 30.3824 44.0017 33.5171 44.6101 36.7092L156.985 35.5954H156.996Z" fill="#EBEBEB"/>
<path d="M807 422.173C807 422.334 626.332 422.471 403.523 422.471C180.713 422.471 0 422.334 0 422.173C0 422.012 180.633 421.874 403.523 421.874C626.413 421.874 807 422.012 807 422.173Z" fill="#263238"/>
<path d="M491.963 89.1607H71.2775C53.3414 89.1607 38.8014 103.704 38.8014 121.644V389.689C38.8014 407.629 53.3414 422.173 71.2775 422.173H491.963C509.899 422.173 524.439 407.629 524.439 389.689V121.644C524.439 103.704 509.899 89.1607 491.963 89.1607Z" fill="#455A64"/>
<path d="M489.965 104.363H72.1384C60.758 104.363 51.5323 113.591 51.5323 124.974V386.933C51.5323 398.317 60.758 407.544 72.1384 407.544H489.965C501.345 407.544 510.571 398.317 510.571 386.933V124.974C510.571 113.591 501.345 104.363 489.965 104.363Z" fill="#263238"/>
<path d="M484.753 123.332H77.3502V378.31H484.753V123.332Z" fill="white"/>
<path d="M484.765 266.598C483.548 265.588 77.3617 265.794 77.3617 265.794V283.982L484.765 284.786V266.598Z" fill="#E0E0E0"/>
<path d="M163.046 123.332L108.782 198.14H87.062L145.321 123.332H163.046Z" fill="#E0E0E0"/>
<path d="M213.04 123.332L158.064 236.79H279.542L484.765 206.235V221.151L281.884 254.863L281.299 249.248H77.3502V234.918H132.832L192.503 123.332H213.04Z" fill="#E0E0E0"/>
<path d="M300.194 123.332L299.494 378.31H254.31L280.242 123.332H300.194Z" fill="#E0E0E0"/>
<path d="M274.824 192.215H77.3502V209.622H274.824V192.215Z" fill="#E0E0E0"/>
<path d="M77.3502 195.224H295.384L292.445 378.31H266.042L276.902 205.328H77.3502V195.224Z" fill="#0073F4"/>
<path d="M352.829 123.332L366.317 171.363L353.471 173.751L348.191 155.299H295.384L299.494 147.641H346.434L341.154 123.332H352.829Z" fill="#E0E0E0"/>
<path d="M484.765 169.147L299.494 192.215L295.384 180.526L484.765 155.299V169.147Z" fill="#E0E0E0"/>
<path d="M431.396 175.795L484.765 193.191V201.918L412.535 178.138L431.396 175.795Z" fill="#E0E0E0"/>
<path d="M382.056 181.594L468.521 208.991L449.981 213.526L363.011 183.89L382.056 181.594Z" fill="#E0E0E0"/>
<path d="M382.079 238.42L416.38 378.31H390.482L364.24 238.42H382.079Z" fill="#E0E0E0"/>
<path d="M484.765 341.578L295.384 307.602V336.399L484.765 368.78V341.578Z" fill="#E0E0E0"/>
<path d="M204.362 282.857L175.1 377.415H149.902L182.412 284.786L204.362 282.857Z" fill="#E0E0E0"/>
<path d="M269.015 394.466H272.046V400.276C270.473 401.459 268.304 402.09 266.26 402.09C261.76 402.09 258.454 399.001 258.454 394.684C258.454 390.367 261.76 387.278 266.329 387.278C268.843 387.278 270.932 388.139 272.321 389.747L270.198 391.71C269.153 390.608 267.948 390.091 266.501 390.091C263.723 390.091 261.818 391.951 261.818 394.673C261.818 397.394 263.723 399.254 266.455 399.254C267.351 399.254 268.189 399.093 269.027 398.645V394.454L269.015 394.466Z" fill="white"/>
<path d="M287.521 392.721C287.521 395.913 285.133 397.899 281.31 397.899H278.429V401.849H275.123V387.542H281.322C285.144 387.542 287.532 389.528 287.532 392.732L287.521 392.721ZM284.169 392.721C284.169 391.147 283.147 390.229 281.126 390.229H278.429V395.201H281.126C283.147 395.201 284.169 394.282 284.169 392.721Z" fill="white"/>
<path d="M288.944 400.437L290.069 397.945C291.274 398.829 293.077 399.438 294.787 399.438C296.75 399.438 297.542 398.783 297.542 397.911C297.542 395.235 289.22 397.072 289.22 391.756C289.22 389.322 291.183 387.301 295.246 387.301C297.049 387.301 298.886 387.726 300.217 388.564L299.195 391.079C297.864 390.321 296.498 389.953 295.235 389.953C293.272 389.953 292.514 390.688 292.514 391.584C292.514 394.225 300.837 392.399 300.837 397.658C300.837 400.046 298.851 402.09 294.764 402.09C292.491 402.09 290.207 401.413 288.933 400.437H288.944Z" fill="white"/>
<path d="M281.574 244.517L321.845 306.04L281.815 299.989L242.715 306.04L281.574 244.517Z" fill="#455A64"/>
<g opacity="0.3">
<path d="M242.715 306.04L281.62 295.028L321.845 306.04L281.62 300.023L242.715 306.04Z" fill="black"/>
</g>
<path d="M281.574 244.517C281.735 244.517 281.884 255.828 281.896 269.767C281.896 283.718 281.781 295.028 281.62 295.028C281.459 295.028 281.31 283.718 281.299 269.767C281.299 255.816 281.413 244.517 281.574 244.517Z" fill="#263238"/>
<path d="M311.536 170.651H260.233C250.694 170.651 242.956 162.912 242.956 153.37C242.956 143.828 250.694 136.089 260.233 136.089H311.536C321.076 136.089 328.813 143.828 328.813 153.37C328.813 162.912 321.076 170.651 311.536 170.651Z" fill="#455A64"/>
<path d="M266.283 155.805V157.653H258.89V156.183L262.667 152.612C263.528 151.786 263.689 151.28 263.689 150.81C263.689 150.04 263.161 149.593 262.127 149.593C261.289 149.593 260.578 149.914 260.096 150.569L258.443 149.501C259.2 148.398 260.566 147.686 262.334 147.686C264.515 147.686 265.973 148.8 265.973 150.58C265.973 151.533 265.709 152.394 264.343 153.669L262.093 155.793H266.295L266.283 155.805Z" fill="white"/>
<path d="M270.003 156.39C270.003 156.758 269.945 157.022 269.624 157.791L268.832 159.8H267.443L268.062 157.573C267.603 157.389 267.305 156.953 267.305 156.39C267.305 155.575 267.89 155.047 268.659 155.047C269.429 155.047 270.003 155.586 270.003 156.39Z" fill="white"/>
<path d="M278.417 154.576C278.417 156.31 277.143 157.814 274.353 157.814C272.999 157.814 271.575 157.435 270.622 156.769L271.518 155.035C272.264 155.598 273.274 155.919 274.296 155.919C275.432 155.919 276.133 155.449 276.133 154.645C276.133 153.841 275.628 153.37 273.86 153.37H271.357L271.862 147.859H277.832V149.673H273.745L273.596 151.533H274.388C277.281 151.533 278.429 152.831 278.429 154.564L278.417 154.576Z" fill="white"/>
<path d="M281.746 155.621L281.092 156.229V157.091H280.518V152.681H281.092V155.506L282.814 153.933H283.503L282.183 155.23L283.641 157.079H282.94L281.758 155.609L281.746 155.621Z" fill="white"/>
<path d="M289.369 155.276V157.091H288.795V155.345C288.795 154.725 288.496 154.427 287.98 154.427C287.406 154.427 287.039 154.794 287.039 155.471V157.091H286.465V155.345C286.465 154.725 286.166 154.427 285.649 154.427C285.075 154.427 284.708 154.794 284.708 155.471V157.091H284.134V153.944H284.685V154.415C284.915 154.094 285.294 153.921 285.776 153.921C286.258 153.921 286.66 154.117 286.866 154.507C287.107 154.151 287.544 153.921 288.083 153.921C288.852 153.921 289.369 154.358 289.369 155.288V155.276Z" fill="white"/>
<path d="M305.039 143.495L295.384 150.339L305.039 156.149V143.495Z" fill="white"/>
<path d="M316.645 159.938H312.053V154.76C312.053 153.301 310.87 152.13 309.412 152.13H302.387V147.537H309.412C313.396 147.537 316.645 150.775 316.645 154.76V159.938Z" fill="white"/>
<path d="M95.9932 231.336C100.918 231.336 104.924 235.343 104.924 240.269V291.285C104.924 296.211 100.918 300.218 95.9932 300.218C91.0684 300.218 87.062 296.211 87.062 291.285V240.269C87.062 235.343 91.0684 231.336 95.9932 231.336Z" fill="#0073F4"/>
<g opacity="0.3">
<path d="M103.788 240.832C103.788 245.137 100.298 248.628 95.9932 248.628C91.6883 248.628 88.1985 245.137 88.1985 240.832C88.1985 236.526 91.6883 233.035 95.9932 233.035C100.298 233.035 103.788 236.526 103.788 240.832Z" fill="white"/>
</g>
<path d="M92.1935 244.781L95.9933 236.882L99.793 244.747L95.9359 242.462L92.1935 244.781Z" fill="white"/>
<path d="M96.7394 260.133H94.9716V266.621H96.7394V260.133Z" fill="white"/>
<path d="M92.756 262.499V264.267H99.242V262.499H92.756Z" fill="white"/>
<path d="M92.756 288.541V290.309H99.242V288.541H92.756Z" fill="white"/>
<path d="M317.092 360.535H246.148C235.07 360.535 226.093 351.556 226.093 340.476C226.093 329.395 235.07 320.416 246.148 320.416H317.092C328.17 320.416 337.147 329.395 337.147 340.476C337.147 351.556 328.17 360.535 317.092 360.535Z" fill="#EBEBEB"/>
<path d="M317.092 361.11H246.148C234.771 361.11 225.519 351.855 225.519 340.476C225.519 329.097 234.771 319.842 246.148 319.842H317.092C328.469 319.842 337.721 329.097 337.721 340.476C337.721 351.855 328.469 361.11 317.092 361.11ZM246.148 320.99C235.403 320.99 226.667 329.728 226.667 340.476C226.667 351.223 235.403 359.961 246.148 359.961H317.092C327.837 359.961 336.573 351.223 336.573 340.476C336.573 329.728 327.837 320.99 317.092 320.99H246.148Z" fill="#263238"/>
<path d="M248.317 352.773C255.108 352.773 260.612 347.268 260.612 340.476C260.612 333.684 255.108 328.178 248.317 328.178C241.527 328.178 236.023 333.684 236.023 340.476C236.023 347.268 241.527 352.773 248.317 352.773Z" fill="white"/>
<path d="M248.317 353.347C241.223 353.347 235.449 347.572 235.449 340.476C235.449 333.38 241.223 327.604 248.317 327.604C255.412 327.604 261.186 333.38 261.186 340.476C261.186 347.572 255.412 353.347 248.317 353.347ZM248.317 328.752C241.854 328.752 236.597 334.011 236.597 340.476C236.597 346.94 241.854 352.199 248.317 352.199C254.781 352.199 260.038 346.94 260.038 340.476C260.038 334.011 254.781 328.752 248.317 328.752Z" fill="#0073F4"/>
<path d="M243.221 336.882V343.519H241.682V338.11H240.351V336.882H243.209H243.221Z" fill="#263238"/>
<path d="M244.38 340.2C244.38 338.007 245.597 336.767 247.227 336.767C248.857 336.767 250.074 338.007 250.074 340.2C250.074 342.393 248.869 343.633 247.227 343.633C245.585 343.633 244.38 342.393 244.38 340.2ZM248.524 340.2C248.524 338.696 247.996 338.064 247.227 338.064C246.458 338.064 245.941 338.696 245.941 340.2C245.941 341.704 246.469 342.336 247.227 342.336C247.985 342.336 248.524 341.716 248.524 340.2Z" fill="#263238"/>
<path d="M250.82 340.2C250.82 338.007 252.037 336.767 253.667 336.767C255.297 336.767 256.514 338.007 256.514 340.2C256.514 342.393 255.309 343.633 253.667 343.633C252.025 343.633 250.82 342.393 250.82 340.2ZM254.964 340.2C254.964 338.696 254.436 338.064 253.667 338.064C252.898 338.064 252.381 338.696 252.381 340.2C252.381 341.704 252.909 342.336 253.667 342.336C254.425 342.336 254.964 341.716 254.964 340.2Z" fill="#263238"/>
<path d="M280.748 339.224C280.748 344.437 277.809 347.227 273.527 347.227C272.092 347.227 270.714 346.94 269.727 346.332L270.554 344.632C271.357 345.161 272.39 345.356 273.492 345.356C276.592 345.356 278.555 343.415 278.555 339.592V339.052C277.659 340.384 276.052 341.061 274.147 341.061C271.116 341.061 268.935 339.247 268.935 336.434C268.935 333.621 271.288 331.611 274.319 331.611C278.417 331.611 280.736 334.356 280.736 339.224H280.748ZM278.073 336.319C278.073 334.746 276.81 333.38 274.434 333.38C272.448 333.38 271.07 334.539 271.07 336.342C271.07 338.145 272.402 339.282 274.537 339.282C276.672 339.282 278.073 337.996 278.073 336.319Z" fill="#263238"/>
<path d="M294.672 342.405C294.672 345.356 292.296 347.227 289.265 347.227C285.167 347.227 282.848 344.483 282.848 339.615C282.848 334.402 285.787 331.611 290.069 331.611C291.504 331.611 292.882 331.898 293.869 332.507L293.042 334.206C292.262 333.678 291.205 333.483 290.115 333.483C287.015 333.483 285.029 335.423 285.029 339.247C285.029 339.419 285.029 339.592 285.052 339.787C285.925 338.478 287.543 337.777 289.438 337.777C292.468 337.777 294.672 339.592 294.672 342.405ZM292.56 342.497C292.56 340.705 291.205 339.557 289.07 339.557C286.935 339.557 285.557 340.843 285.557 342.52C285.557 344.093 286.82 345.459 289.174 345.459C291.16 345.459 292.549 344.299 292.549 342.497H292.56Z" fill="#263238"/>
<path d="M301.227 343.679L300.389 344.46V345.562H299.655V339.925H300.389V343.542L302.582 341.532H303.466L301.767 343.197L303.627 345.562H302.731L301.216 343.679H301.227Z" fill="#263238"/>
<path d="M310.985 343.243V345.562H310.25V343.323C310.25 342.531 309.872 342.141 309.206 342.141C308.471 342.141 308 342.6 308 343.484V345.562H307.266V343.323C307.266 342.531 306.887 342.141 306.221 342.141C305.486 342.141 305.016 342.6 305.016 343.484V345.562H304.281V341.532H304.981V342.129C305.268 341.716 305.762 341.486 306.37 341.486C306.979 341.486 307.507 341.727 307.771 342.233C308.081 341.773 308.632 341.486 309.321 341.486C310.296 341.486 310.974 342.049 310.974 343.232L310.985 343.243Z" fill="#263238"/>
<path d="M313.935 339.155H314.601L312.087 346.32H311.421L313.935 339.155Z" fill="#263238"/>
<path d="M318.837 343.243V345.562H318.103V343.323C318.103 342.531 317.712 342.141 317.012 342.141C316.231 342.141 315.738 342.6 315.738 343.484V345.562H315.003V339.925H315.738V342.106C316.048 341.716 316.541 341.498 317.161 341.498C318.137 341.498 318.837 342.06 318.837 343.243Z" fill="#263238"/>
<path d="M337.515 91.8591C337.515 92.0198 291.206 92.1576 234.094 92.1576C176.983 92.1576 130.662 92.0198 130.662 91.8591C130.662 91.6983 176.96 91.5605 234.094 91.5605C291.229 91.5605 337.515 91.6983 337.515 91.8591Z" fill="white"/>
<path d="M93.858 93.6848C93.858 93.8455 88.0263 94.0522 80.8285 94.1211C73.6308 94.2015 67.7991 94.1211 67.7991 93.9604C67.7991 93.7996 73.6308 93.5929 80.8285 93.524C88.0263 93.4437 93.858 93.524 93.858 93.6848Z" fill="white"/>
<path d="M761.839 348.066H350.854V408.383H761.839V348.066Z" fill="#0073F4"/>
<g opacity="0.5">
<path d="M761.839 348.066H350.854V408.383H761.839V348.066Z" fill="black"/>
</g>
<path d="M366.455 407.418C366.145 429.303 383.629 447.308 405.509 447.629C427.389 447.939 445.389 430.452 445.711 408.566C446.021 386.681 428.537 368.676 406.657 368.355C384.777 368.033 366.776 385.533 366.455 407.418Z" fill="#263238"/>
<path d="M366.455 407.315C366.455 407.315 366.455 407.384 366.455 407.418C366.145 429.303 383.629 447.308 405.509 447.629C427.389 447.939 445.389 430.452 445.711 408.566C445.711 408.532 445.711 408.497 445.711 408.463L366.466 407.315H366.455Z" fill="#263238"/>
<path d="M378.256 407.59C378.038 422.954 390.31 435.596 405.67 435.814C421.03 436.032 433.669 423.757 433.887 408.394C434.105 393.031 421.833 380.388 406.473 380.17C391.113 379.952 378.474 392.227 378.256 407.59Z" fill="#FAFAFA"/>
<path d="M406.485 380.159C391.125 379.941 378.486 392.215 378.268 407.579L433.91 408.383C434.128 393.019 421.856 380.377 406.496 380.159H406.485Z" fill="#E0E0E0"/>
<path d="M389.127 407.74C388.99 417.098 396.474 424.802 405.83 424.929C415.186 425.066 422.889 417.58 423.027 408.222C423.165 398.864 415.68 391.159 406.324 391.021C396.968 390.883 389.265 398.37 389.139 407.728L389.127 407.74Z" fill="#263238"/>
<path d="M712.597 447.421C734.4 445.513 750.528 426.288 748.62 404.48C746.713 382.672 727.492 366.541 705.689 368.448C683.887 370.356 667.759 389.582 669.666 411.389C671.574 433.197 690.794 449.329 712.597 447.421Z" fill="#263238"/>
<path d="M669.508 407.315C669.508 407.315 669.508 407.384 669.508 407.418C669.198 429.303 686.681 447.308 708.562 447.629C730.442 447.939 748.442 430.452 748.764 408.566C748.764 408.532 748.764 408.497 748.764 408.463L669.519 407.315H669.508Z" fill="#263238"/>
<path d="M681.309 407.59C681.091 422.954 693.362 435.596 708.722 435.814C724.082 436.032 736.721 423.757 736.939 408.394C737.158 393.031 724.886 380.388 709.526 380.17C694.166 379.952 681.527 392.227 681.309 407.59Z" fill="#FAFAFA"/>
<path d="M709.526 380.159C694.166 379.941 681.527 392.215 681.309 407.579L736.951 408.383C737.169 393.019 724.897 380.377 709.537 380.159H709.526Z" fill="#E0E0E0"/>
<path d="M692.18 407.74C692.042 417.098 699.527 424.802 708.883 424.929C718.239 425.066 725.942 417.58 726.08 408.222C726.217 398.864 718.733 391.159 709.377 391.021C700.021 390.883 692.318 398.37 692.192 407.728L692.18 407.74Z" fill="#263238"/>
<path d="M458.029 314.135C458.029 314.135 399.666 318.441 378.038 323.298C362.793 326.72 333.405 332.622 333.749 351.12L336.08 364.382C336.08 364.382 325.174 369.365 325.174 382.076C325.174 394.787 322.511 414.503 347.961 415.295C352.151 415.421 360.118 415.295 360.118 415.295C360.118 415.295 355.228 361.075 405.027 359.491C455.687 357.871 452.323 414.801 452.323 414.801H663.756C663.756 414.801 655.078 359.341 709.618 359.261C764.158 359.181 755.858 415.157 755.858 415.157C755.858 415.157 775.924 416.891 785.257 400.023C794.59 383.156 792.157 371.157 792.157 371.157L791.847 360.501C791.743 356.873 788.839 353.945 785.212 353.807C785.212 353.807 788.851 326.961 783.26 322.322C777.669 317.672 747.019 289.655 747.019 289.655L748.476 288.736C750.922 287.197 750.497 283.512 747.765 282.57C736.124 278.563 713.119 270.651 707.712 268.757C706.897 268.47 706.059 268.297 705.198 268.229C701.972 267.976 692.834 267.402 676.051 267.218C655.617 267 574.467 267.218 574.467 267.218C574.467 267.218 546.537 269.515 530.982 276.37C514.624 283.569 457.994 314.147 457.994 314.147L458.029 314.135Z" fill="#0073F4"/>
<g opacity="0.4">
<path d="M339.971 380.595C337.859 380.159 334.61 380.124 332.992 381.56C331.798 382.628 331.476 384.35 331.293 385.946C331.04 388.139 330.914 390.378 331.442 392.514C331.958 394.65 333.21 396.705 335.15 397.75C337.09 398.806 339.742 398.634 341.246 397.015C342.623 395.545 342.784 393.341 342.738 391.32C342.692 388.461 342.91 386.038 342.394 383.225C342.29 382.685 342.015 382.007 341.67 381.594C341.108 380.917 340.683 380.618 339.983 380.584" fill="black"/>
</g>
<g opacity="0.6">
<path d="M339.248 364.371C345.447 364.382 351.451 364.026 357.639 363.613C358.304 363.567 359.028 363.498 359.521 363.039C360.107 362.487 360.164 361.592 360.164 360.777C360.199 357.458 360.026 353.68 357.512 351.522C355.974 350.201 353.862 349.788 351.841 349.604C346.871 349.133 341.659 349.524 336.918 351.108L339.248 364.371Z" fill="#FAFAFA"/>
</g>
<path d="M464.721 413.09C464.721 413.09 464.698 412.907 464.675 412.562C464.652 412.195 464.618 411.678 464.572 411.012C464.492 409.634 464.388 407.625 464.251 405.03C464.101 402.435 463.929 399.254 463.562 395.58C463.183 391.917 462.62 387.737 461.381 383.259C460.141 378.792 458.235 374.039 455.411 369.365C452.576 364.726 448.856 360.088 443.886 356.505C433.887 349.398 420.387 345.367 406.255 345.195C392.089 345.023 378.646 349.501 368.9 356.964C363.975 360.616 359.912 364.887 356.766 369.342C353.609 373.786 351.29 378.356 349.672 382.696C348.03 387.037 347.158 391.182 346.676 394.822C346.147 398.473 346.228 401.665 346.308 404.26C346.515 406.844 346.744 408.853 347.031 410.197C347.146 410.863 347.25 411.368 347.307 411.724C347.364 412.068 347.387 412.252 347.387 412.252C347.387 412.252 347.341 412.08 347.272 411.735C347.204 411.379 347.089 410.874 346.963 410.208C346.641 408.876 346.389 406.867 346.159 404.272C346.044 401.677 345.941 398.473 346.457 394.799C346.928 391.136 347.778 386.968 349.408 382.605C351.026 378.241 353.334 373.637 356.502 369.159C359.648 364.669 363.734 360.363 368.682 356.677C378.474 349.156 392.02 344.644 406.255 344.816C420.456 344.988 434.013 349.042 444.092 356.218C449.109 359.847 452.851 364.531 455.687 369.205C458.511 373.912 460.405 378.701 461.645 383.19C462.873 387.691 463.413 391.882 463.78 395.568C464.136 399.254 464.285 402.435 464.4 405.03C464.515 407.625 464.595 409.634 464.652 411.012C464.675 411.689 464.698 412.206 464.721 412.574C464.733 412.93 464.721 413.102 464.721 413.102V413.09Z" fill="white"/>
<path d="M466.971 414.009C466.971 414.009 466.96 413.86 466.948 413.561C466.948 413.263 466.925 412.826 466.902 412.252C466.868 411.081 466.811 409.37 466.742 407.131C466.615 402.641 466.432 396.062 466.191 387.703C465.961 379.332 465.686 369.182 465.364 357.55C465.284 354.645 465.203 351.637 465.123 348.548C465.02 347.009 465.181 345.425 465.33 343.84C465.445 343.048 465.559 342.255 465.663 341.452C465.823 340.659 465.984 339.867 466.156 339.063C466.902 335.871 467.993 332.679 469.451 329.567C470.92 326.467 472.654 323.39 474.881 320.554V320.531L474.915 320.519C486.223 313.389 498.518 305.65 511.536 297.451C514.784 295.407 518.09 293.329 521.42 291.228C524.691 289.012 528.227 287.106 531.889 285.383C535.551 283.661 539.351 282.157 543.254 280.848C545.194 280.17 547.191 279.608 549.189 279.011C551.209 278.505 553.207 277.931 555.262 277.518C563.148 275.772 571.081 274.9 578.864 274.544C586.647 274.176 594.281 274.199 601.709 274.624H601.927L601.881 274.854C598.379 290.539 595.073 305.317 592.043 318.877V318.9L592.02 318.923C590.172 321.955 588.702 325.158 587.612 328.373C586.555 331.6 585.878 334.93 586.119 338.156C586.372 341.406 586.464 344.586 586.544 347.675C586.601 350.764 586.659 353.761 586.716 356.677C586.888 368.309 586.934 378.459 586.969 386.819C586.969 395.178 586.98 401.746 586.992 406.235C586.992 408.474 586.98 410.185 586.969 411.356C586.969 411.931 586.969 412.367 586.957 412.665C586.957 412.964 586.946 413.113 586.946 413.113C586.946 413.113 586.946 412.964 586.934 412.665C586.934 412.367 586.934 411.931 586.923 411.356C586.923 410.185 586.9 408.474 586.888 406.235C586.865 401.746 586.819 395.178 586.774 386.819C586.716 378.459 586.647 368.309 586.452 356.689C586.395 353.784 586.326 350.787 586.257 347.698C586.165 344.609 586.073 341.44 585.821 338.191C585.58 334.895 586.257 331.542 587.313 328.281C588.415 325.032 589.884 321.817 591.744 318.751L591.721 318.808C594.74 305.248 598.035 290.458 601.525 274.774L601.697 275.003C594.293 274.59 586.659 274.567 578.898 274.934C571.138 275.302 563.217 276.163 555.365 277.908C553.322 278.322 551.313 278.896 549.304 279.401C547.318 279.998 545.332 280.549 543.392 281.227C539.5 282.536 535.712 284.04 532.061 285.751C528.422 287.473 524.898 289.356 521.638 291.561C518.297 293.662 515.002 295.74 511.742 297.784C498.724 305.971 486.418 313.71 475.099 320.829L475.133 320.795C472.941 323.597 471.196 326.651 469.738 329.74C468.28 332.828 467.201 335.998 466.455 339.167C464.79 345.516 465.628 351.786 465.64 357.584C465.927 369.216 466.179 379.378 466.386 387.737C466.581 396.096 466.742 402.676 466.845 407.165C466.891 409.404 466.925 411.127 466.948 412.287C466.948 412.861 466.96 413.297 466.971 413.596C466.971 413.894 466.971 414.043 466.971 414.043V414.009Z" fill="#263238"/>
<path d="M601.444 275.841C601.444 275.841 601.559 275.83 601.789 275.818C602.03 275.818 602.374 275.795 602.811 275.784C603.717 275.761 605.049 275.727 606.748 275.692C610.192 275.623 615.151 275.531 621.339 275.405C633.737 275.198 650.991 274.9 670.518 274.567H670.61L670.667 274.636C672.871 277.334 675.202 280.182 677.555 283.075C684.535 291.63 691.181 299.794 697.231 307.211C697.989 308.141 698.735 309.06 699.47 309.956C700.193 310.874 700.813 311.873 701.306 312.907C702.282 314.985 702.764 317.201 702.776 319.36C702.799 321.507 702.351 323.585 701.582 325.422C700.801 327.237 700.055 328.982 699.343 330.647C696.473 337.284 694.155 342.657 692.547 346.378C691.744 348.226 691.112 349.662 690.676 350.649C690.458 351.12 690.297 351.499 690.183 351.751C690.068 352.004 689.999 352.119 689.999 352.119C689.999 352.119 690.045 351.981 690.148 351.728C690.251 351.464 690.412 351.085 690.607 350.603C691.021 349.604 691.629 348.157 692.41 346.309C693.994 342.566 696.278 337.18 699.091 330.532C700.365 327.179 702.604 323.654 702.454 319.36C702.443 317.258 701.949 315.077 700.996 313.056C700.503 312.045 699.906 311.081 699.194 310.174C698.459 309.267 697.713 308.359 696.956 307.429C690.906 300.023 684.248 291.871 677.256 283.316C674.903 280.423 672.573 277.587 670.369 274.877L670.518 274.946C651.002 275.233 633.737 275.474 621.339 275.658C615.163 275.727 610.192 275.784 606.748 275.83C605.049 275.841 603.729 275.853 602.811 275.853C602.374 275.853 602.03 275.853 601.789 275.853C601.559 275.853 601.444 275.841 601.444 275.841Z" fill="#263238"/>
<path d="M576.625 341.257C576.625 341.257 576.832 341.234 577.211 341.165C577.59 341.096 578.152 340.946 578.772 340.545C579.381 340.143 580.035 339.465 580.356 338.478C580.528 337.984 580.586 337.444 580.563 336.847C580.551 336.262 580.402 335.653 580.104 335.09C579.518 333.954 578.221 333.012 576.694 333.012C575.133 333.012 573.457 333.012 571.701 333.024C568.176 333.024 564.308 333.024 560.255 333.035C559.291 333.035 558.338 333.414 557.649 334.046C556.949 334.677 556.513 335.561 556.41 336.468C556.318 337.398 556.444 338.317 556.88 339.086C557.305 339.856 558.005 340.441 558.774 340.774C559.555 341.119 560.393 341.073 561.243 341.073C562.081 341.073 562.884 341.073 563.665 341.073C565.226 341.073 566.684 341.084 568.016 341.096C570.644 341.119 572.791 341.142 574.318 341.153C575.03 341.165 575.604 341.176 576.028 341.188C576.419 341.199 576.625 341.211 576.625 341.222C576.625 341.234 576.419 341.245 576.028 341.257C575.604 341.257 575.03 341.279 574.318 341.291C572.791 341.302 570.644 341.325 568.016 341.348C566.684 341.348 565.226 341.36 563.665 341.371C562.884 341.371 562.069 341.371 561.243 341.371C560.818 341.371 560.416 341.394 559.968 341.371C559.521 341.337 559.073 341.245 558.648 341.073C557.799 340.717 557.041 340.085 556.57 339.247C556.077 338.409 555.939 337.375 556.042 336.411C556.146 335.412 556.628 334.447 557.397 333.747C558.155 333.047 559.199 332.622 560.267 332.633C564.331 332.633 568.188 332.633 571.712 332.645C573.468 332.645 575.145 332.656 576.706 332.668C578.359 332.679 579.736 333.724 580.356 334.941C580.666 335.55 580.816 336.204 580.816 336.824C580.827 337.421 580.758 338.018 580.574 338.524C580.207 339.557 579.507 340.246 578.864 340.648C578.21 341.05 577.624 341.176 577.234 341.222C576.844 341.268 576.637 341.222 576.637 341.222L576.625 341.257Z" fill="#263238"/>
<path d="M686.211 341.257C686.211 341.257 686.417 341.234 686.796 341.165C687.175 341.096 687.738 340.946 688.357 340.545C688.966 340.143 689.62 339.465 689.942 338.478C690.114 337.984 690.171 337.444 690.148 336.847C690.137 336.262 689.988 335.653 689.689 335.09C689.104 333.954 687.806 333.012 686.28 333.012C684.718 333.012 683.042 333.012 681.286 333.024C677.762 333.024 673.893 333.024 669.841 333.035C668.865 333.035 667.924 333.414 667.235 334.046C666.534 334.677 666.098 335.561 665.995 336.468C665.903 337.398 666.029 338.317 666.466 339.086C666.89 339.856 667.591 340.441 668.36 340.774C669.14 341.119 669.978 341.073 670.828 341.073C671.666 341.073 672.469 341.073 673.25 341.073C674.811 341.073 676.269 341.084 677.601 341.096C680.23 341.119 682.376 341.142 683.903 341.153C684.615 341.165 685.189 341.176 685.614 341.188C686.004 341.199 686.211 341.211 686.211 341.222C686.211 341.234 686.004 341.245 685.614 341.257C685.189 341.257 684.615 341.279 683.903 341.291C682.376 341.302 680.23 341.325 677.601 341.348C676.269 341.348 674.811 341.36 673.25 341.371C672.469 341.371 671.654 341.371 670.828 341.371C670.403 341.371 670.001 341.394 669.554 341.371C669.106 341.337 668.658 341.245 668.233 341.073C667.384 340.717 666.626 340.085 666.156 339.247C665.662 338.409 665.524 337.375 665.628 336.411C665.731 335.412 666.213 334.447 666.982 333.747C667.74 333.047 668.785 332.622 669.852 332.633C673.916 332.633 677.773 332.633 681.297 332.645C683.054 332.645 684.73 332.656 686.291 332.668C687.944 332.679 689.322 333.724 689.942 334.941C690.252 335.55 690.401 336.204 690.401 336.824C690.412 337.421 690.343 338.018 690.16 338.524C689.792 339.557 689.092 340.246 688.449 340.648C687.795 341.05 687.209 341.176 686.819 341.222C686.429 341.268 686.222 341.222 686.222 341.222L686.211 341.257Z" fill="#263238"/>
<path d="M782.307 323.367H760.381C757.373 323.367 754.618 325.032 753.218 327.696C752.07 329.877 751.978 332.461 752.976 334.723L761.575 354.255L783.524 354.036C783.524 354.036 788.196 329.269 782.307 323.367Z" fill="#FAFAFA"/>
<path d="M477.774 320.6L590.906 318.51L664.537 317.155L688.817 303.135C690.78 301.998 691.308 299.392 689.93 297.589L674.811 277.724C673.239 275.658 670.793 274.429 668.187 274.406L585.832 273.74C585.832 273.74 554.814 271.937 530.385 285.624C504.671 300.023 477.751 320.6 477.751 320.6H477.774Z" fill="#263238"/>
<path d="M529.627 275.795C529.627 275.795 535.298 278.379 531.602 280.779C527.906 283.179 470.587 319.325 470.587 319.325L457.409 313.366C480.747 300.356 504.326 287.726 529.616 275.807L529.627 275.795Z" fill="#455A64"/>
<path d="M472.447 320.232C472.447 320.232 472.332 320.267 472.091 320.324C471.839 320.382 471.494 320.45 471.047 320.554C470.105 320.749 468.762 321.025 467.029 321.381C463.527 322.081 458.465 323.057 452.185 324.136C439.615 326.295 422.166 328.821 402.777 330.498C397.932 330.922 393.191 331.267 388.611 331.565C384.03 331.864 379.622 332.14 375.421 332.53C367.029 333.265 359.521 334.482 353.414 336.296C347.295 338.053 342.612 340.303 339.535 342.083C337.962 342.91 336.837 343.725 336.034 344.219C335.644 344.46 335.345 344.655 335.127 344.793C334.92 344.919 334.817 344.977 334.817 344.977C334.817 344.977 334.909 344.896 335.104 344.759C335.311 344.609 335.609 344.414 335.988 344.15C336.769 343.633 337.882 342.807 339.455 341.945C342.52 340.12 347.192 337.823 353.322 336.021C359.441 334.16 366.972 332.909 375.375 332.162C379.576 331.772 383.996 331.485 388.565 331.175C393.145 330.865 397.875 330.521 402.719 330.096C422.097 328.419 439.535 325.939 452.117 323.849C458.407 322.804 463.482 321.874 466.983 321.22C468.716 320.887 470.082 320.634 471.012 320.462C471.46 320.382 471.816 320.313 472.068 320.278C472.309 320.232 472.424 320.221 472.424 320.221L472.447 320.232Z" fill="#263238"/>
<path d="M791.066 370.904C791.066 371.007 783.524 371.099 774.225 371.099C764.927 371.099 757.385 371.007 757.385 370.904C757.385 370.801 764.927 370.709 774.225 370.709C783.524 370.709 791.066 370.801 791.066 370.904Z" fill="#263238"/>
<path d="M653.115 390.149C653.115 390.252 610.548 390.344 558.051 390.344C505.555 390.344 462.976 390.252 462.976 390.149C462.976 390.045 505.532 389.953 558.051 389.953C610.571 389.953 653.115 390.045 653.115 390.149Z" fill="#263238"/>
<path d="M355.079 371.536C355.079 371.639 349.063 371.731 341.636 371.731C334.209 371.731 328.193 371.639 328.193 371.536C328.193 371.432 334.209 371.34 341.636 371.34C349.063 371.34 355.079 371.432 355.079 371.536Z" fill="#263238"/>
<path d="M746.433 288.862C746.433 288.862 741.382 294.523 743.368 298.668C745.354 302.825 765.88 317.35 765.88 317.35L780.78 320.14L746.444 288.851L746.433 288.862Z" fill="#455A64"/>
<path d="M604.797 278.735L601.444 314.916L661.391 313.205L685.556 299.162L669.909 278.735H604.797Z" fill="#455A64"/>
<path d="M491.974 316.776C491.974 316.776 528.135 290.654 542.404 285.464C556.169 280.457 563.355 279.194 576.293 278.827C588.656 278.471 596.187 278.827 596.187 278.827L586.636 315.616L491.986 316.788L491.974 316.776Z" fill="#455A64"/>
<path d="M486.682 316.891C486.682 314.594 487.922 312.482 489.919 311.368L498.231 306.695C500.595 305.363 503.27 304.662 505.991 304.662C507.678 304.662 509.343 304.938 510.927 305.454C514.474 306.614 516.839 309.99 516.988 313.722C517.184 318.912 513.039 323.229 507.839 323.229H493.042C489.54 323.229 486.705 320.393 486.705 316.891H486.682Z" fill="#0073F4"/>
<path d="M486.682 316.891C486.682 316.891 486.705 317.166 486.774 317.695C486.843 318.211 487.026 318.981 487.509 319.865C487.991 320.726 488.806 321.691 490.057 322.368C490.677 322.701 491.4 322.942 492.192 323.045C492.973 323.137 493.845 323.08 494.741 323.091C498.357 323.08 502.65 323.068 507.414 323.045C508.597 323.045 509.791 322.908 510.939 322.471C512.087 322.046 513.166 321.369 514.073 320.473C514.979 319.589 515.726 318.487 516.185 317.258C516.655 316.03 516.839 314.686 516.736 313.343C516.529 310.644 515.094 308.153 512.993 306.706C511.96 305.96 510.766 305.546 509.561 305.259C508.356 304.972 507.15 304.834 505.968 304.834C503.603 304.834 501.376 305.363 499.47 306.224C498.518 306.649 497.645 307.188 496.773 307.659C495.912 308.141 495.085 308.601 494.293 309.037C492.72 309.91 491.297 310.702 490.034 311.402C488.783 312.08 487.968 313.044 487.486 313.917C487.003 314.79 486.831 315.57 486.751 316.087C486.67 316.615 486.682 316.891 486.659 316.891C486.659 316.891 486.625 316.615 486.67 316.076C486.728 315.547 486.877 314.755 487.348 313.848C487.818 312.952 488.645 311.931 489.919 311.219C491.171 310.507 492.583 309.703 494.144 308.807C494.924 308.359 495.751 307.9 496.6 307.406C497.461 306.936 498.334 306.385 499.31 305.937C501.25 305.041 503.534 304.49 505.945 304.478C507.15 304.478 508.39 304.616 509.618 304.903C510.835 305.19 512.098 305.627 513.189 306.396C515.381 307.9 516.885 310.507 517.092 313.308C517.195 314.709 517 316.11 516.518 317.396C516.036 318.682 515.255 319.819 514.314 320.737C513.361 321.656 512.236 322.368 511.042 322.804C509.848 323.252 508.585 323.401 507.391 323.39C502.627 323.378 498.334 323.355 494.718 323.344C493.811 323.333 492.961 323.378 492.135 323.264C491.32 323.149 490.562 322.885 489.931 322.54C488.656 321.817 487.83 320.806 487.359 319.911C486.9 319.004 486.728 318.211 486.682 317.683C486.636 317.155 486.659 316.868 486.659 316.868L486.682 316.891Z" fill="#263238"/>
<path d="M765.294 413.423C765.294 413.423 765.294 413.251 765.317 412.907C765.34 412.551 765.375 412.057 765.421 411.402C765.467 410.736 765.536 409.921 765.581 408.957C765.616 407.992 765.65 406.867 765.696 405.615C765.708 404.352 765.696 402.963 765.673 401.424C765.57 399.897 765.57 398.232 765.363 396.452C765.042 392.904 764.445 388.851 763.217 384.534C762.574 382.386 761.862 380.136 760.852 377.897C759.899 375.635 758.694 373.384 757.27 371.168C754.446 366.713 750.451 362.602 745.687 359.077C740.912 355.564 735.252 352.75 729.076 350.89C722.9 348.996 716.173 348.307 709.331 348.261C702.478 348.238 695.785 349.179 689.62 351.131C686.544 352.107 683.605 353.325 680.85 354.748C678.095 356.184 675.581 357.906 673.239 359.72C668.578 363.395 664.652 367.517 661.506 371.754C659.957 373.889 658.705 376.117 657.603 378.299C656.57 380.515 655.629 382.685 654.906 384.809C651.909 393.295 650.968 400.597 650.635 405.604C650.52 408.118 650.532 410.07 650.589 411.391C650.624 412.045 650.658 412.539 650.681 412.895C650.704 413.24 650.693 413.412 650.693 413.412C650.693 413.412 650.67 413.24 650.635 412.907C650.601 412.551 650.566 412.057 650.509 411.402C650.417 410.082 650.383 408.118 650.474 405.604C650.761 400.586 651.668 393.26 654.642 384.729C655.353 382.593 656.295 380.411 657.328 378.184C658.43 375.979 659.681 373.74 661.242 371.57C664.388 367.299 668.325 363.153 673.009 359.445C675.362 357.607 677.899 355.874 680.666 354.427C683.444 352.992 686.394 351.751 689.494 350.775C695.693 348.8 702.432 347.87 709.319 347.882C716.196 347.928 722.946 348.628 729.179 350.534C735.401 352.406 741.084 355.254 745.894 358.802C748.293 360.57 750.486 362.51 752.449 364.554C754.412 366.598 756.122 368.757 757.534 371.007C758.958 373.246 760.163 375.52 761.116 377.793C762.115 380.044 762.826 382.306 763.469 384.476C764.686 388.828 765.26 392.881 765.57 396.452C765.765 398.232 765.765 399.909 765.857 401.436C765.857 402.974 765.857 404.375 765.845 405.627C765.788 406.878 765.742 408.004 765.696 408.968C765.639 409.933 765.547 410.748 765.501 411.414C765.444 412.068 765.398 412.562 765.363 412.918C765.329 413.251 765.306 413.423 765.306 413.423H765.294Z" fill="white"/>
<path d="M585.04 320.6C585.04 320.6 584.983 320.611 584.868 320.623C584.73 320.623 584.569 320.634 584.363 320.646C583.892 320.646 583.249 320.669 582.434 320.692C580.724 320.726 578.301 320.76 575.328 320.818C569.324 320.933 561.047 321.151 551.887 321.403C542.726 321.656 534.438 321.828 528.434 321.874C525.437 321.897 523.004 321.897 521.328 321.874C520.513 321.863 519.87 321.851 519.399 321.84C519.193 321.84 519.032 321.828 518.894 321.817C518.779 321.817 518.722 321.805 518.722 321.794C518.722 321.782 518.779 321.782 518.894 321.771C519.032 321.771 519.193 321.759 519.399 321.748C519.87 321.748 520.513 321.725 521.328 321.702C523.038 321.668 525.46 321.633 528.434 321.576C534.438 321.461 542.714 321.243 551.875 320.99C561.025 320.737 569.313 320.565 575.317 320.519C578.313 320.496 580.747 320.496 582.423 320.519C583.238 320.531 583.881 320.542 584.351 320.554C584.558 320.554 584.719 320.565 584.856 320.577C584.971 320.577 585.029 320.588 585.029 320.6H585.04Z" fill="white"/>
<path d="M575.225 331.749C575.225 331.852 572.32 331.944 568.739 331.944C565.157 331.944 562.253 331.852 562.253 331.749C562.253 331.646 565.157 331.554 568.739 331.554C572.32 331.554 575.225 331.646 575.225 331.749Z" fill="white"/>
<path d="M577.601 292.089C577.636 292.192 569.588 295.545 559.612 299.587C549.637 303.629 541.509 306.821 541.474 306.718C541.44 306.614 549.487 303.261 559.463 299.22C569.439 295.178 577.555 291.986 577.601 292.089Z" fill="white"/>
<path d="M561.277 294.627C561.323 294.73 553.643 298.106 544.149 302.17C534.644 306.247 526.907 309.462 526.861 309.37C526.815 309.267 534.483 305.891 543.989 301.826C553.494 297.75 561.231 294.535 561.277 294.638V294.627Z" fill="white"/>
<path d="M664.812 290.688C664.847 290.791 656.8 294.144 646.824 298.186C636.848 302.228 628.72 305.42 628.686 305.317C628.651 305.213 636.699 301.86 646.675 297.819C656.65 293.777 664.767 290.585 664.812 290.688Z" fill="white"/>
<path d="M648.488 293.226C648.534 293.329 640.854 296.705 631.361 300.77C621.855 304.846 614.118 308.061 614.072 307.969C614.026 307.866 621.695 304.49 631.2 300.425C640.705 296.36 648.442 293.134 648.488 293.237V293.226Z" fill="white"/>
<path d="M666.385 320.6C666.385 320.703 650.359 320.887 630.603 321.002C610.835 321.116 594.821 321.128 594.809 321.025C594.809 320.921 610.823 320.738 630.591 320.623C650.348 320.508 666.374 320.496 666.374 320.6H666.385Z" fill="white"/>
<path d="M684.121 331.129C684.121 331.232 679.633 331.359 674.088 331.416C668.543 331.474 664.055 331.416 664.043 331.313C664.043 331.209 668.532 331.083 674.076 331.026C679.621 330.968 684.11 331.026 684.11 331.129H684.121Z" fill="white"/>
<path d="M377.338 325.64C377.338 325.64 377.189 325.686 376.902 325.721C376.569 325.767 376.155 325.824 375.65 325.882C375.099 325.939 374.433 326.031 373.664 326.157C372.895 326.283 372.011 326.387 371.047 326.582C369.107 326.915 366.834 327.42 364.32 328.098C361.817 328.787 359.097 329.659 356.307 330.75C353.517 331.852 350.934 333.07 348.627 334.252C346.331 335.469 344.311 336.652 342.669 337.72C341.831 338.237 341.108 338.753 340.465 339.19C339.811 339.615 339.271 340.016 338.823 340.338C338.399 340.636 338.066 340.878 337.79 341.073C337.549 341.234 337.423 341.314 337.411 341.302C337.411 341.302 337.515 341.188 337.744 341.004C338.008 340.797 338.33 340.533 338.732 340.212C339.156 339.867 339.696 339.454 340.339 339.006C340.982 338.558 341.693 338.018 342.52 337.49C344.15 336.388 346.17 335.182 348.466 333.942C350.774 332.725 353.368 331.496 356.169 330.394C358.97 329.303 361.714 328.442 364.228 327.765C366.753 327.11 369.049 326.628 371.001 326.329C371.965 326.146 372.861 326.054 373.63 325.95C374.41 325.847 375.076 325.778 375.627 325.744C376.144 325.709 376.557 325.675 376.89 325.652C377.177 325.64 377.326 325.629 377.338 325.652V325.64Z" fill="white"/>
<path d="M509.618 308.164C509.618 308.164 509.4 307.877 508.907 307.475C508.413 307.085 507.586 306.626 506.461 306.488C505.336 306.339 503.982 306.534 502.512 306.913C501.043 307.28 499.459 307.808 497.852 308.497C494.626 309.887 492.008 311.724 490.264 313.217C488.507 314.698 487.577 315.789 487.52 315.731C487.497 315.708 487.727 315.433 488.14 314.939C488.576 314.457 489.219 313.779 490.08 312.998C491.79 311.448 494.431 309.542 497.691 308.13C499.321 307.429 500.928 306.901 502.421 306.557C503.901 306.189 505.325 306.017 506.496 306.201C507.667 306.385 508.528 306.901 508.998 307.349C509.24 307.567 509.4 307.774 509.492 307.923C509.584 308.072 509.618 308.153 509.607 308.153L509.618 308.164Z" fill="white"/>
<path d="M748.109 288.598C748.109 288.598 747.007 288.931 744.952 288.92C743.93 288.897 742.679 288.771 741.256 288.461C739.832 288.15 738.248 287.657 736.537 287.002C734.827 286.359 733.002 285.533 731.027 284.694C730.04 284.292 729.007 283.879 727.951 283.454C726.895 283.029 725.781 282.673 724.645 282.26C720.099 280.698 714.979 279.298 709.549 278.149C698.666 275.864 688.61 274.923 681.332 274.636C679.518 274.532 677.865 274.532 676.418 274.498C674.983 274.498 673.732 274.498 672.71 274.498C671.712 274.521 670.931 274.532 670.369 274.555C670.116 274.555 669.921 274.555 669.76 274.555C669.622 274.555 669.553 274.555 669.553 274.544C669.553 274.532 669.622 274.532 669.76 274.521C669.921 274.521 670.116 274.498 670.369 274.475C670.931 274.441 671.723 274.406 672.71 274.349C673.744 274.326 674.983 274.303 676.43 274.28C677.876 274.303 679.529 274.28 681.355 274.36C688.644 274.578 698.723 275.474 709.641 277.77C715.093 278.919 720.213 280.342 724.771 281.927C725.907 282.34 727.021 282.719 728.077 283.144C729.133 283.58 730.166 284.005 731.154 284.407C733.117 285.268 734.93 286.095 736.629 286.75C738.317 287.416 739.89 287.921 741.29 288.254C742.691 288.587 743.93 288.725 744.941 288.771C745.951 288.794 746.743 288.748 747.271 288.679C747.524 288.644 747.719 288.621 747.879 288.61C748.017 288.598 748.086 288.587 748.086 288.598H748.109Z" fill="#263238"/>
<path d="M366.398 407.981C366.398 407.981 366.421 408.084 366.444 408.302C366.466 408.543 366.489 408.853 366.524 409.244C366.558 409.669 366.593 410.185 366.627 410.771C366.673 411.379 366.685 412.08 366.845 412.849C367.236 415.961 368.257 420.462 370.748 425.491C371.954 428.029 373.699 430.578 375.742 433.162C376.293 433.77 376.867 434.39 377.441 435.01C377.728 435.32 378.004 435.653 378.314 435.952C378.635 436.239 378.956 436.537 379.278 436.824C379.932 437.399 380.564 438.03 381.275 438.593C381.999 439.132 382.733 439.672 383.479 440.235C386.544 442.302 389.977 444.196 393.823 445.402C397.657 446.619 401.801 447.308 406.083 447.365C410.353 447.308 414.509 446.619 418.343 445.402C422.189 444.185 425.633 442.29 428.698 440.223C429.444 439.672 430.179 439.121 430.902 438.581C431.614 438.03 432.245 437.387 432.9 436.813C433.221 436.514 433.542 436.227 433.864 435.94C434.174 435.642 434.449 435.309 434.736 434.999C435.31 434.367 435.873 433.747 436.435 433.139C438.479 430.555 440.224 428.006 441.429 425.468C443.92 420.439 444.942 415.938 445.332 412.826C445.493 412.057 445.504 411.356 445.55 410.748C445.596 410.151 445.63 409.646 445.653 409.221C445.688 408.83 445.711 408.52 445.734 408.279C445.757 408.073 445.768 407.958 445.78 407.958C445.791 407.958 445.791 408.061 445.791 408.279C445.791 408.532 445.791 408.842 445.768 409.221C445.757 409.646 445.734 410.162 445.722 410.759C445.699 411.368 445.699 412.068 445.562 412.849C445.24 415.984 444.276 420.542 441.808 425.652C440.614 428.224 438.869 430.819 436.826 433.449C436.263 434.069 435.701 434.7 435.115 435.332C434.817 435.642 434.541 435.986 434.231 436.285C433.91 436.583 433.577 436.882 433.255 437.18C432.59 437.766 431.958 438.409 431.235 438.983C430.5 439.534 429.766 440.085 429.008 440.648C425.908 442.749 422.43 444.69 418.527 445.93C414.635 447.17 410.422 447.882 406.083 447.939C401.744 447.882 397.542 447.17 393.639 445.93C389.736 444.69 386.257 442.761 383.158 440.648C382.412 440.085 381.666 439.523 380.931 438.983C380.219 438.42 379.576 437.777 378.91 437.18C378.578 436.882 378.256 436.583 377.935 436.285C377.625 435.975 377.349 435.642 377.051 435.332C376.477 434.689 375.903 434.057 375.34 433.449C373.285 430.819 371.552 428.224 370.358 425.652C367.89 420.542 366.926 415.984 366.604 412.849C366.466 412.068 366.466 411.368 366.444 410.759C366.421 410.162 366.409 409.646 366.398 409.221C366.398 408.83 366.386 408.52 366.375 408.279C366.375 408.061 366.375 407.958 366.386 407.958L366.398 407.981Z" fill="#455A64"/>
</g>
<defs>
<clipPath id="clip0_3_2059">
<rect width="807" height="456" fill="white"/>
</clipPath>
</defs>
</svg>
